<?xml version="1.0" standalone="no"?>
<!DOCTYPE svg PUBLIC "-//W3C//DTD SVG 1.1//EN" "http://www.w3.org/Graphics/SVG/1.1/DTD/svg11.dtd" >
<svg xmlns="http://www.w3.org/2000/svg" xmlns:xlink="http://www.w3.org/1999/xlink" version="1.1">
<metadata>
Created by FontForge 20170731 at Tue Sep  5 15:52:44 2023
 By Aleksey,,,
Copyright (c) Font Awesome
</metadata>
<defs>
<font id="FontAwesome6Free-Solid" horiz-adv-x="2048" >
  <font-face 
    font-family="Font Awesome 6 Free Solid"
    font-weight="900"
    font-stretch="normal"
    units-per-em="2048"
    panose-1="2 0 5 3 0 0 0 0 0 0"
    ascent="1792"
    descent="-256"
    x-height="1654"
    cap-height="1664"
    bbox="-5.3908 -257.5 2564 1796.36"
    underline-thickness="100"
    underline-position="-304"
    unicode-range="U+0020-F8FF"
  />
<missing-glyph horiz-adv-x="1536" 
d="M1408 1792q53 0 90.5 -37.5t37.5 -90.5v-1792q0 -53 -37.5 -90.5t-90.5 -37.5h-1280q-53 0 -90.5 37.5t-37.5 90.5v1792q0 53 37.5 90.5t90.5 37.5h1280zM1280 1305l-358 -537l358 -537v1074zM768 999l358 537h-716zM614 768l-358 537v-1074zM768 537l-358 -537h716z" />
    <glyph glyph-name="faucet" unicode="FAUCET" 
d="M1408 768q174 0 321.5 -86t233 -233t85.5 -321q0 -53 -37.5 -90.5t-90.5 -37.5h-256q-52 0 -90 38t-38 90t-38 90t-90 38h-51q-63 -115 -186.5 -185.5t-274.5 -70.5t-274.5 70.5t-186.5 185.5h-371q-27 0 -45.5 18.5t-18.5 45.5v384q0 27 18.5 45.5t45.5 18.5h474
q95 81 230 112v190l128 14l128 -14v-190q135 -31 230 -112h154zM327 1152q-29 -3 -50 17t-21 50v121q0 30 21 50t50 17l441 -46v111q0 27 18.5 45.5t45.5 18.5h128q27 0 45.5 -18.5t18.5 -45.5v-111l442 46q28 3 49 -17t21 -50v-120q0 -30 -21 -50.5t-49 -17.5l-570 60z" />
    <glyph glyph-name="trailer" unicode="TRAILER" horiz-adv-x="2560" 
d="M704 512q132 0 226 -94t94 -226t-94 -226t-226 -94t-226 94t-94 226t94 226t226 94zM704 64q52 0 90 38t38 90t-38 90t-90 38t-90 -38t-38 -90t38 -90t90 -38zM2496 512q26 0 45 -19t19 -45v-128q0 -26 -19 -45t-45 -19h-1350q-24 164 -149 274t-293 110t-293 -110
t-148 -274h-135q-53 0 -90.5 37.5t-37.5 90.5v1152q0 53 37.5 90.5t90.5 37.5h1920q53 0 90.5 -37.5t37.5 -90.5v-1024h320zM384 818v558q0 13 -9.5 22.5t-22.5 9.5h-64q-13 0 -22.5 -9.5t-9.5 -22.5v-642q64 51 128 84zM768 892v484q0 13 -9.5 22.5t-22.5 9.5h-64
q-13 0 -22.5 -9.5t-9.5 -22.5v-484q42 4 64 4t64 -4zM1152 734v642q0 13 -9.5 22.5t-22.5 9.5h-64q-13 0 -22.5 -9.5t-9.5 -22.5v-559q65 -32 128 -83zM1536 512v864q0 13 -9.5 22.5t-22.5 9.5h-64q-13 0 -22.5 -9.5t-9.5 -22.5v-864h128zM1920 512v864q0 13 -9.5 22.5
t-22.5 9.5h-64q-13 0 -22.5 -9.5t-9.5 -22.5v-864h128z" />
    <glyph glyph-name="bacteria" unicode="BACTERIA" horiz-adv-x="2560" 
d="M2509 883l-46 -14q2 -33 -2.5 -67.5t-9.5 -54.5t-21 -75l41 -14q28 -10 41 -36t3 -54t-36 -41t-54 -3l-42 14q-40 -95 -92 -176l35 -26q24 -20 28.5 -47.5t-12.5 -51.5t-46.5 -28t-53.5 13l-35 26q-70 -83 -140 -142l26 -34q18 -23 13.5 -52.5t-28.5 -46.5t-52.5 -13
t-46.5 27l-26 34q-86 -56 -175 -95l14 -39q10 -28 -3 -54t-41 -36t-54.5 2.5t-36.5 40.5l-13 38q-75 -23 -133 -33q-37 -6 -67 -5l-11 -43q-8 -29 -33.5 -43.5t-53.5 -7.5q-29 8 -43.5 33.5t-7.5 53.5l12 43q-96 48 -146 142l-45 -13q-29 -8 -55 6t-34 42q-8 29 6 54.5
t42 33.5l48 14q-6 106 46 193l-39 35q-22 19 -23.5 48.5t18.5 51.5t50 23t51 -18l40 -36q26 18 51.5 29.5t41.5 16t46 11.5t45 11l-16 36q-12 27 -1 54.5t38 39.5t54 1t39 -38l16 -35q6 3 23.5 15.5t53 46.5t62.5 73l-35 17q-27 13 -37 40.5t3 53.5q19 41 65 41q8 0 16 -2
t12 -3.5t18 -8.5l20 -10q7 22 14.5 59.5t17.5 65t32 61.5l-37 38q-20 21 -19.5 50.5t21.5 49.5q18 17 40 19t36.5 -4.5t23.5 -15.5l35 -35q88 57 195 54l12 44q6 24 25 38.5t43 14.5q41 0 59 -31t11 -58l-12 -44q97 -50 146 -142l45 14q27 8 53 -5t35 -43q8 -29 -6 -54.5
t-42 -33.5zM1664 128q53 0 90.5 37.5t37.5 90.5t-37.5 90.5t-90.5 37.5t-90.5 -37.5t-37.5 -90.5t37.5 -90.5t90.5 -37.5zM1089 886q-27 -12 -54.5 -1t-39.5 38l-15 35q-6 -3 -24 -15.5t-53.5 -46.5t-62.5 -73l36 -17q27 -13 37 -40t-3 -54q-19 -41 -65 -41q-8 0 -16 2
t-12 3.5t-18 8.5l-20 10q-7 -22 -14.5 -59.5t-17.5 -65t-32 -61.5l37 -38q20 -21 19.5 -50.5t-21.5 -49.5q-18 -17 -40 -19.5t-37 4.5t-24 16l-34 36q-89 -58 -195 -55l-11 -44q-6 -24 -25.5 -38.5t-43.5 -14.5q-41 0 -58.5 30.5t-10.5 58.5l11 44q-96 49 -145 142l-45 -14
q-27 -8 -53.5 5t-35.5 43q-8 29 6 54.5t42 33.5l46 14q2 20 -0.5 22.5t0.5 21t2 20.5t3 20t4 20t5 21t6 22t6.5 24t7.5 26l-42 14q-28 9 -41 35.5t-3 54.5t36.5 41t54.5 3l42 -14q40 95 92 176l-36 25q-24 17 -28.5 46.5t12.5 53.5t46.5 28t53.5 -13l35 -26q65 78 140 142
l-26 34q-20 24 -15 52.5t30 46.5q23 17 52.5 13t47.5 -27l25 -34q89 57 176 95l-14 39q-10 28 1.5 54t37.5 36q30 10 57.5 -2.5t37.5 -40.5l13 -38q65 21 133 33q35 6 67 5l11 43q8 29 33.5 43.5t53.5 7.5q29 -8 43.5 -33.5t7.5 -53.5l-11 -43q95 -47 145 -142l45 13
q29 8 55 -6t34 -42q8 -29 -6 -54.5t-42 -33.5l-47 -14q6 -104 -47 -193l39 -35q22 -19 23.5 -48.5t-18.5 -51.5t-50 -23t-51 18l-40 36q-26 -18 -51.5 -29.5t-41.5 -16t-46 -11.5t-45 -11l16 -36q12 -27 1 -54.5t-38 -39.5zM512 768q53 0 90.5 38.5t37.5 93.5
q0 53 -37.5 90.5t-90.5 37.5t-90.5 -37.5t-37.5 -90.5q0 -55 37.5 -93.5t90.5 -38.5zM832 1152q26 0 45 19t19 45t-19 45t-45 19t-45 -19t-19 -45t19 -45t45 -19z" />
    <glyph glyph-name="bacterium" unicode="BACTERIUM" horiz-adv-x="2304" 
d="M2172 1380q11 -37 -7.5 -71.5t-56.5 -45.5l-63 -19q9 -137 -62 -257l52 -47q29 -26 30.5 -65t-24.5 -68q-27 -30 -67 -31.5t-67 24.5l-53 48q-86 -59 -180 -74q-20 -4 -66 -16l21 -49q15 -35 0 -71.5t-49 -52.5q-37 -16 -73 -1.5t-52 49.5l-21 47q-8 -4 -31.5 -20
t-71 -61.5t-83.5 -98.5l47 -22q36 -16 49.5 -53.5t-3.5 -72.5q-12 -25 -35.5 -39.5t-50.5 -14.5q-7 0 -14 1t-12 2.5t-13.5 5t-13 5.5t-17 8t-19.5 9q-13 -44 -20 -83q-14 -84 -65 -165l49 -50q28 -28 27.5 -67.5t-29.5 -66.5q-24 -23 -53 -26t-49 6t-32 22l-46 47
q-123 -80 -260 -73l-15 -58q-8 -32 -34 -51.5t-58 -19.5q-55 0 -78.5 42t-13.5 76l15 59q-128 64 -194 189l-60 -18q-36 -11 -71 7t-47 57q-11 37 7.5 72t56.5 46l62 18q-7 92 41 264l-52 18q-37 13 -54.5 47.5t-4.5 72.5q13 37 48.5 54.5t72.5 4.5l52 -18q49 119 123 235
l-44 32q-32 23 -38 61.5t17 70.5t62 38t71 -17l44 -33q94 112 187 190l-32 43q-24 32 -18.5 70.5t37.5 61.5q31 23 69.5 17.5t64.5 -36.5l31 -42q107 71 235 127l-17 48q-13 37 3.5 72.5t53.5 48.5q39 13 73.5 -4t48.5 -54l17 -48q174 50 267 48l15 57q10 38 44 58t72 10
t58 -43.5t10 -71.5l-16 -58q127 -63 194 -190l61 18q37 11 72 -7.5t46 -56.5zM768 320q80 0 136 56t56 136t-56 136t-136 56t-136 -56t-56 -136t56 -136t136 -56zM1088 864q39 0 65.5 28t26.5 68q0 37 -26.5 64.5t-65.5 27.5q-40 0 -68 -26.5t-28 -65.5q0 -40 28 -68t68 -28
z" />
    <glyph glyph-name="box-tissue" unicode="BOX&#x2d;TISSUE" 
d="M1536 640h-1024l-256 1152h566q91 0 164.5 -53t101.5 -139t101.5 -139t164.5 -53h438zM0 -128v256h2048v-256q0 -53 -37.5 -90.5t-90.5 -37.5h-1792q-53 0 -90.5 37.5t-37.5 90.5zM1920 896q53 0 90.5 -37.5t37.5 -90.5v-512h-2048v512q0 53 37.5 90.5t90.5 37.5h196
l57 -256h-61q-26 0 -45 -19t-19 -45t19 -45t45 -19h1408q26 0 45 19t19 45t-19 45t-45 19h-57l85 256h164z" />
    <glyph glyph-name="hand-holding-medical" unicode="Hand&#x2d;holding&#x2d;medical" horiz-adv-x="2304" 
d="M2273 447q40 -53 28.5 -119t-69.5 -105l-540 -398q-111 -81 -247 -81h-1385q-24 0 -42 19t-18 45v384q0 26 18.5 47t41.5 21l222 -4l186 151q130 105 296 105h644q59 0 97.5 -45t28.5 -105q-7 -46 -46.5 -76t-86.5 -30h-313q-24 0 -42.5 -19t-18.5 -45q0 -27 17.5 -45.5
t43.5 -18.5h482l479 353q53 40 119 29.5t105 -63.5zM640 1088q-26 0 -45 19t-19 45v256q0 26 19 45t45 19h256v256q0 26 19 45t45 19h256q26 0 45 -19t19 -45v-256h256q26 0 45 -19t19 -45v-256q0 -26 -19 -45t-45 -19h-256v-256q0 -26 -19 -45t-45 -19h-256q-26 0 -45 19
t-19 45v256h-256z" />
    <glyph glyph-name="hand-sparkles" unicode="Hand&#x2d;sparkles" horiz-adv-x="2560" 
d="M1792 64q0 -43 24.5 -81.5t68.5 -60.5l37 -15q-195 -163 -450 -163h-151q-161 0 -307 60.5t-259 173.5l-452 453q-47 47 -47 113q0 67 47.5 113.5t112.5 46.5q66 0 113 -47l239 -239v1118q0 53 37.5 90.5t90.5 37.5t90.5 -37.5t37.5 -90.5v-704q0 -26 19 -45t45 -19
t45 19t19 45v832q0 53 37.5 90.5t90.5 37.5t90.5 -37.5t37.5 -90.5v-832q0 -26 19 -45t45 -19t45 19t19 45v704q0 53 37.5 90.5t90.5 37.5t90.5 -37.5t37.5 -90.5v-704q0 -26 19 -45t45 -19t45 19t19 45v448q0 53 37.5 90.5t90.5 37.5t90.5 -37.5t37.5 -90.5v-785
q-52 -24 -78 -76l-63 -151l-158 -66q-38 -20 -61.5 -57.5t-23.5 -80.5zM1399 306q9 11 9 18q0 6 -9 10l-119 50l-50 119q-4 9 -14 9q-12 0 -14 -9l-50 -119l-119 -46q-9 -4 -9 -14q0 -13 9 -15l119 -49l50 -123q4 -9 14 -9q5 0 14 12l50 120zM320 896q-18 0 -24 18l-83 199
l-198 83q-15 8 -15 24q0 12 15 20l198 83l83 198q8 15 24 15t24 -15l83 -199l198 -82q6 -3 15 -24q0 -16 -15 -24l-198 -83l-83 -198q-8 -15 -24 -15zM2556 64q0 -18 -11 -24l-198 -83l-83 -198q-8 -15 -24 -15t-24 15l-83 198l-198 83q-15 8 -15 24t15 24l198 83l83 198
q8 15 24 15q7 0 13 -4.5t7 -10.5l83 -198l199 -83q14 -7 14 -24z" />
    <glyph glyph-name="hands-bubbles" unicode="HANDS&#x2d;BUBBLES" horiz-adv-x="2304" 
d="M1664 1536q-53 0 -90.5 36.5t-37.5 87.5q0 53 37.5 90.5t90.5 37.5t90.5 -37.5t37.5 -90.5q0 -51 -37.5 -87.5t-90.5 -36.5zM2076 448q35 0 63 -21.5t35 -55.5q9 -45 -20 -80t-74 -35h-640q-14 0 -23 -9t-9 -23t9 -23t23 -9h508q35 0 63 -21.5t35 -55.5q9 -45 -20 -80
t-74 -35h-512q-14 0 -23 -9t-9 -23t9 -23t23 -9h380q35 0 63 -21.5t35 -55.5q9 -45 -20 -80t-74 -35h-832q-135 0 -248 74q24 59 24 121q0 115 -72.5 203t-183.5 111v103q0 158 94 287t247 180l431 133q38 11 73 -7.5t47 -56.5t-7 -73t-57 -47l-188 -68h796q35 0 63 -21.5
t35 -55.5q9 -45 -20 -80t-74 -35h-512q-14 0 -23 -9t-9 -23t9 -23t23 -9h636zM1246 1078l-64 -19l83 264q11 33 40 53.5t63 16.5q46 -5 70.5 -43.5t10.5 -80.5l-61 -195q-44 14 -76 14q-35 0 -66 -10zM1984 896q-80 0 -136 56t-56 136q0 79 56 133.5t136 54.5
q79 0 135.5 -57.5t56.5 -134.5t-56.5 -132.5t-135.5 -55.5zM375 247q-112 65 -178.5 177t-68.5 244v450q1 40 30.5 68t69.5 28t67.5 -28.5t27.5 -68.5l8 -200l240 759q11 33 40 53.5t63 16.5q46 -5 70.5 -43.5t10.5 -80.5l-154 -488q-6 -12 1 -24t20 -16t24.5 1.5t15.5 18.5
l192 607q11 33 40 53.5t63 16.5q46 -5 70.5 -43.5t10.5 -80.5l-173 -551q-5 -13 1 -24.5t19 -15.5t25 2t16 18l134 426q11 33 39.5 53.5t62.5 16.5q46 -5 71 -43.5t11 -80.5l-137 -433l-295 -91q-192 -64 -310 -227t-118 -365v-102zM448 128q80 0 136 -56t56 -136
q0 -79 -56 -133.5t-136 -54.5q-79 0 -135.5 57.5t-56.5 134.5t56.5 132.5t135.5 55.5z" />
    <glyph glyph-name="handshake-simple-slash" unicode="HANDSHAKE&#x2d;SIMPLE&#x2d;SLASH" horiz-adv-x="2560" 
d="M1434 1010l108 102q16 18 16 44.5t-15 46.5q-18 17 -44.5 17t-46.5 -17l-262 -239l103 -84l46 42l597 -485q43 -36 45 -97l542 -424q32 -25 37 -64t-20 -71t-64 -37t-71 20l-2368 1856q-32 25 -37 64t20 71q29 37 76 37q33 0 59 -20l492 -386q224 150 483 150h26
l-323 -296l106 -76l373 342q38 33 87 33h34q174 0 334.5 -66t283.5 -189h381q51 0 87.5 -37.5t36.5 -90.5v-643q0 -53 -36 -90.5t-88 -37.5h-327q-16 92 -88 152zM128 1284h32l1477 -1161l-52 -64q-39 -47 -100.5 -53t-108.5 31l-73 61q-64 -82 -168.5 -93t-187.5 56
l-362 327h-457q-50 0 -87 38t-37 90v640q0 53 36 90.5t88 37.5z" />
    <glyph glyph-name="handshake-slash" unicode="HANDSHAKE&#x2d;SLASH" horiz-adv-x="2560" 
d="M2172 1279l381 1v-1024h-256q-50 0 -87.5 38t-37.5 90v895zM2364 384q28 0 46 19t15 45q0 24 -17.5 42t-43.5 18q-27 0 -45.5 -17t-18.5 -43t19 -45t45 -19zM0 1279h161l223 -175l-4 -720q0 -53 -37.5 -90.5t-90.5 -37.5h-252v1023zM256 448q0 26 -18 43t-42 17
t-42.5 -17t-18.5 -43t18.5 -45t42.5 -19t42 19t18 45zM512 385v623l1125 -889l-52 -64q-39 -47 -100.5 -53t-108.5 31l-73 61q-64 -82 -168.5 -93t-187.5 56l-362 328h-73zM1981 341l539 -422q31 -25 36 -64.5t-20 -70.5t-64.5 -36t-70.5 20l-2364 1852q-32 25 -37 64t20 71
q29 37 76 37q33 0 59 -20l492 -386q226 150 483 150h27l-324 -296l102 -80l374 346q37 34 86 34h34q174 0 334.5 -66.5t283.5 -189.5v-778q-19 21 -31 31l-583 473l105 95q19 17 19.5 44.5t-15.5 46.5q-17 19 -44.5 20t-46.5 -16l-261 -240l102 -80l46 42l597 -484
q44 -37 46 -97z" />
    <glyph glyph-name="head-side-cough" unicode="HEAD&#x2d;SIDE&#x2d;COUGH" horiz-adv-x="2560" 
d="M2432 356q40 0 68 -28t28 -68t-28 -68t-68 -28t-68 28t-28 68t28 68t68 28zM1909 692q29 -63 -9 -121.5t-108 -58.5h-128v-128h-384q-53 0 -90.5 -37.5t-37.5 -90.5t37.5 -90.5t90.5 -37.5l380 -4q0 -104 -75 -178t-181 -74h-256v-128h-892v708q-120 108 -188 256.5
t-68 315.5q0 209 103 385.5t279.5 279.5t385.5 103h168q204 0 384 -94t296 -259q43 -61 96.5 -203t109.5 -308t87 -236zM1344 896q52 0 90 38t38 90t-38 90t-90 38t-90 -38t-38 -90t38 -90t90 -38zM1920 356q40 0 68 -28t28 -68q0 -39 -29.5 -67.5t-66.5 -28.5t-64.5 28.5
t-27.5 67.5q0 40 26.5 68t65.5 28zM2432 548q-40 0 -68 28t-28 68t28 68t68 28t68 -28t28 -68t-28 -68t-68 -28zM2176 548q40 0 68 -28t28 -68q0 -39 -29.5 -67.5t-66.5 -28.5t-64.5 28.5t-27.5 67.5q0 40 26.5 68t65.5 28zM2176 164q40 0 68 -28t28 -68q0 -39 -29.5 -67.5
t-66.5 -28.5t-64.5 28.5t-27.5 67.5q0 40 26.5 68t65.5 28zM2432 -28q40 0 68 -28t28 -68t-28 -68t-68 -28t-68 28t-28 68t28 68t68 28z" />
    <glyph glyph-name="head-side-cough-slash" unicode="Head&#x2d;side&#x2d;cough&#x2d;slash" horiz-adv-x="2560" 
d="M2428 548q-37 0 -64.5 27.5t-27.5 64.5t26.5 64.5t65.5 27.5t67.5 -27.5t28.5 -64.5t-28.5 -64.5t-67.5 -27.5zM2428 164q-38 0 -67 26.5t-29 65.5q0 40 28 68t68 28t68 -26.5t28 -65.5q0 -40 -28 -68t-68 -28zM2523 -84q32 -25 36 -64t-23 -68q-25 -31 -64.5 -36
t-70.5 20l-2364 1852q-31 25 -36 64.5t20 70.5q29 37 75 37q33 0 59 -20l165 -129q204 149 448 149h168q205 0 385 -95t296 -262q43 -62 97 -203t110 -309t85 -235q28 -61 -10 -118.5t-107 -57.5h-30zM1280 132v-4h346l32 -25q-10 -98 -82.5 -164.5t-171.5 -66.5h-256v-124
h-892v708q-120 108 -188 256.5t-68 315.5q0 163 73 320l1230 -960h-23q-52 0 -88 -40t-36 -92q0 -51 35.5 -87.5t88.5 -36.5zM2172 356q-38 0 -67 26.5t-29 65.5q0 40 28 68t68 28t68 -26.5t28 -65.5q0 -40 -28 -68t-68 -28z" />
    <glyph glyph-name="head-side-mask" unicode="HEAD&#x2d;SIDE&#x2d;MASK" 
d="M1 1054q1 45 14 113l881 -641v-782h-640v708q-126 113 -194 269.5t-61 332.5zM1344 320q-27 0 -45 -19t-15 -45q0 -26 19 -45t45 -19h597l-43 -128h-554q-26 0 -45 -19t-19 -45t19 -45t45 -19h508l-2 -17q-26 -79 -93 -127t-150 -48h-583v768h1020l-64 -192h-640z
M2037 692q10 -21 10 -52h-1090l-904 657q88 221 293.5 358t453.5 137h264q204 0 384 -94t296 -259q58 -83 168 -398t125 -349zM1408 896q52 0 88 37.5t36 90.5t-36 90.5t-88 37.5t-90 -38t-38 -90t38 -90t90 -38z" />
    <glyph glyph-name="head-side-virus" unicode="HEAD&#x2d;SIDE&#x2d;VIRUS" 
d="M832 1092q26 0 44.5 -19.5t15.5 -41.5q0 -26 -19.5 -45t-44.5 -19q-24 0 -42 17.5t-18 43.5t19 45t45 19zM1088 836q25 0 45 -19.5t23 -44.5q0 -26 -19 -45t-45 -19t-45 19t-19 45q0 27 17 45.5t43 18.5zM2037 692q29 -64 -10 -122t-111 -58h-128v-260q0 -104 -73.5 -178
t-178.5 -74h-256v-256h-1024v709q-120 107 -188 255.5t-68 315.5q0 209 103 385.5t279.5 279.5t385.5 103h296q204 0 384 -94t296 -259q43 -61 96.5 -203t109.5 -308t87 -236zM1472 832q26 0 43 18.5t17 45.5t-17 45.5t-43 18.5h-48q-41 0 -73 23t-46 56t-7.5 71.5
t35.5 67.5l34 35q19 19 19 45t-19 45t-45 19t-45 -19l-34 -34q-29 -29 -68 -35.5t-72 7.5t-56 46t-23 73v48q0 26 -19 45t-45 19t-45 -19t-19 -45v-48q0 -41 -23 -73t-55.5 -46t-71.5 -7.5t-68 35.5l-35 34q-19 19 -45 19t-45 -19t-19 -45t19 -45l34 -34q29 -29 35.5 -68
t-7.5 -72t-46 -56t-73 -23h-48q-26 0 -45 -19t-19 -45t19 -45t45 -19h48q41 0 73 -23t46 -56t7.5 -72t-35.5 -68l-34 -34q-19 -19 -19 -45t19 -45q18 -19 45 -19q26 0 45 19l34 34q29 29 68 35.5t72 -7.5t56 -46t23 -73v-48q0 -26 19 -45t45 -19t45 19t19 45v48q0 41 23 73
t56 46t72 7.5t68 -35.5l34 -34q18 -19 45 -19q26 0 45 19t19 45t-19 45l-34 34q-29 29 -35.5 68t7.5 72t46 56t73 23h48z" />
    <glyph glyph-name="house-user" unicode="HOUSE&#x2d;USER" horiz-adv-x="2304" 
d="M2260 864q47 -42 30 -92q0 -53 -37.5 -90.5t-90.5 -37.5h-125v-637q0 -104 -73.5 -178t-178.5 -74h-1277q-104 0 -178 73.5t-74 178.5v637h-128q-57 0 -93 38.5t-32 92.5t52 93l1020 892q37 32 84 32q48 0 85 -32l427 -374v214q0 24 17.5 42t43.5 18h252q25 0 42.5 -17
t17.5 -43v-550zM1148 1024q-105 0 -178.5 -72t-73.5 -180t73.5 -180.5t178.5 -72.5q104 0 178.5 74.5t74.5 178.5t-74 178t-179 74zM1532 4q29 0 46.5 17t14.5 43q0 130 -92.5 223t-224.5 93h-252q-130 0 -223 -92t-93 -224q0 -25 17 -42.5t43 -17.5h764z" />
    <glyph glyph-name="house-laptop" unicode="HOUSE&#x2d;LAPTOP" horiz-adv-x="2560" 
d="M2517 0q18 0 30.5 -13t12.5 -30v-42q0 -70 -49.5 -120t-120.5 -51h-1196q-70 0 -120 50t-50 121v42q0 18 12.5 30.5t30.5 12.5l149 4v636q0 54 33.5 90.5t81.5 33.5h922q48 0 81.5 -35.5t33.5 -88.5v-640h149zM2176 0v576h-768v-576h768zM1084 640l-3 -501h-640
q-80 0 -136 54.5t-56 133.5v445h-125q-51 0 -87.5 36t-36.5 88t38 98l832 764q35 34 86 34q56 0 91 -34l365 -333v175q0 25 17 42.5t43 17.5h128q27 0 45.5 -17t18.5 -43v-412l215 -198q41 -38 41 -94h-589q-102 0 -186 -84v148q0 24 -18.5 42t-45.5 18h-253
q-27 0 -45.5 -16.5t-18.5 -43.5v-260q0 -24 18.5 -42t45.5 -18h256z" />
    <glyph glyph-name="lungs-virus" unicode="LUNGS&#x2d;VIRUS" horiz-adv-x="2560" 
d="M782 14q56 -56 136 -56q16 0 31 3q-81 -105 -210 -139l-238 -64q-76 -18 -148.5 -12.5t-136.5 37.5t-112 79.5t-76 113t-28 137.5q0 61 16 118q129 487 408 924q6 9 25.5 40.5t25 40t23.5 34.5t26.5 34.5t26.5 28.5t30.5 27t32 19t38.5 16.5t42.5 8.5t49.5 4
q116 0 198 -77t82 -186v-111q-47 32 -106 32q-80 0 -136 -56t-56 -136t56 -136l34 -34h-48q-80 0 -136 -56t-56 -136t56 -136t136 -56h48l-34 -35q-56 -56 -56 -135.5t56 -135.5zM1372 1189q-40 27 -99 27q-49 0 -93 -27l4 539q0 27 18.5 45.5t45.5 18.5h64q27 0 45.5 -18.5
t18.5 -45.5zM1687 105q-19 -19 -45 -19t-45 19l-34 34q-29 29 -68 35.5t-72 -7.5t-56 -46t-23 -73v-48q0 -26 -19 -45t-45 -19t-45 19t-19 45v48q0 41 -23 73t-56 46t-72 7.5t-68 -35.5l-34 -34q-18 -19 -45 -19q-26 0 -45 19t-19 45t19 45l34 34q29 29 35.5 68t-7.5 72
t-46 56t-73 23h-48q-26 0 -45 19t-19 45t19 45t45 19h49q41 0 73 23t45.5 55.5t7 71.5t-35.5 68l-34 35q-19 19 -19 45t19 45t45 19t45 -19l34 -34q29 -29 68 -35.5t72 7.5t56 46t23 73v48q0 24 19 42t45 18q27 0 45.5 -17t18.5 -43v-48q0 -41 23 -73t56 -46t72 -7.5
t68 35.5l34 34q19 19 45 19t45 -19t19 -45t-19 -45l-34 -34q-29 -29 -35.5 -68t7.5 -72t46 -56t73 -23h48q26 0 45 -19t19 -45t-19 -45t-45 -19h-49q-41 0 -73 -23t-45.5 -55.5t-7 -71.5t35.5 -68l34 -35q19 -19 19 -45t-19 -45zM1152 580q26 0 45 19.5t19 44.5t-19 44.5
t-45 19.5q-25 0 -44.5 -21.5t-19.5 -46.5q0 -24 19 -42t45 -18zM1408 324q27 0 45.5 17t18.5 43t-19 45t-45 19q-27 0 -45.5 -17t-18.5 -43t19 -45t45 -19zM2544 232q16 -62 16 -119q0 -72 -28 -137.5t-76 -113t-112 -79.5t-136.5 -37.5t-148.5 12.5l-238 64
q-129 34 -210 139q15 -3 31 -3q80 0 136 56t56 136t-56 136l-34 34h48q80 0 136 56t56 136t-56 136t-136 56h-48l34 34q56 56 56 136t-56 136t-136 56q-59 0 -106 -32v111q0 109 82 186t198 77q47 0 87.5 -13.5t64.5 -26t57.5 -52.5t44 -55.5t46.5 -73.5q5 -7 7 -10.5
t6 -9.5t7 -11q279 -437 408 -924z" />
    <glyph glyph-name="people-arrows-left-right" unicode="PEOPLE&#x2d;ARROWS&#x2d;LEFT&#x2d;RIGHT" horiz-adv-x="2304" 
d="M384 576q0 -80 55 -128l201 -190v-386q0 -53 -37.5 -90.5t-90.5 -37.5h-256q-53 0 -90.5 37.5t-37.5 90.5l-4 512q-51 0 -87.5 37.5t-36.5 90.5v384q0 106 75 181t181 75h256q79 0 143 -44.5t95 -117.5q-3 -2 -11 -6.5t-12 -7.5l-288 -272q-55 -52 -55 -128zM1920 1280
q-106 0 -181 75t-75 181t75 181t181 75t181 -75t75 -181t-75 -181t-181 -75zM384 1280q-106 0 -181 75t-75 181t75 181t181 75t181 -75t75 -181t-75 -181t-181 -75zM1778 611q14 -14 14 -35t-14 -35l-289 -273q-23 -22 -52 -9t-29 44v145h-512v-144q0 -33 -29 -45
q-28 -12 -52 10l-289 272q-14 14 -14 35.5t14 34.5l289 272q18 22 52 9q29 -13 29 -44v-144h512v144q0 31 29 44t52 -9zM2048 1152q106 0 181 -75t75 -181v-384q0 -53 -37.5 -90.5t-90.5 -37.5v-512q0 -53 -37.5 -90.5t-90.5 -37.5h-256q-53 0 -90.5 37.5t-37.5 90.5v386
l201 190q55 52 55 128t-55 128l-288 272q-4 3 -12 7.5t-11 6.5q29 72 94.5 117t143.5 45h256z" />
    <glyph glyph-name="plane-slash" unicode="PLANE&#x2d;SLASH" horiz-adv-x="2560" 
d="M130 1200q-12 53 37 74l1281 -1003l-281 -491q-18 -32 -56 -32h-262q-32 0 -51 25t-10 56l196 687h-412l-172 -234q-20 -26 -52 -26h-156q-31 0 -50.5 25t-11.5 55l122 432zM2523 -84q32 -25 36 -64t-23 -68q-25 -31 -64.5 -36t-70.5 20l-2364 1852q-32 25 -37 64t20 71
q29 37 76 37q33 0 59 -20l797 -625l-161 563q-9 31 10.5 56.5t51.5 25.5h262q16 0 31.5 -9t23.5 -23l421 -743h457q73 0 161.5 -33.5t155.5 -94t67 -125.5q0 -49 -40 -97t-99 -81t-125.5 -53.5t-119.5 -20.5h-286z" />
    <glyph glyph-name="pump-medical" unicode="PUMP&#x2d;MEDICAL" horiz-adv-x="1536" 
d="M1517 1416q19 -19 19 -45.5t-19 -45.5l-90 -90q-19 -19 -45.5 -19t-45.5 19l-173 173h-267v-128h-512l-4 384q0 53 37.5 90.5t90.5 37.5h260q53 0 90.5 -37.5t37.5 -90.5h267q100 0 181 -75zM942 1152q99 0 172.5 -67t79.5 -166l81 -896q10 -112 -66 -195.5t-189 -83.5
h-764q-113 0 -189 83.5t-66 195.5l82 896q9 99 82 166t172 67h605zM956 459h4v106q0 22 -15.5 38t-37.5 16h-160v160q0 22 -16 37.5t-38 15.5h-106q-23 0 -38.5 -14.5t-15.5 -38.5v-160h-160q-22 0 -37.5 -16t-15.5 -38v-106q0 -22 15.5 -38t37.5 -16h157v-160
q0 -22 15.5 -37.5t37.5 -15.5h107q22 0 37.5 15.5t15.5 37.5v160h160q22 0 37.5 16t15.5 38zM956 459z" />
    <glyph glyph-name="pump-soap" unicode="PUMP&#x2d;SOAP" horiz-adv-x="1536" 
d="M942 1152q99 0 172.5 -67t79.5 -166l81 -896q10 -112 -66 -195.5t-189 -83.5h-764q-113 0 -189 83.5t-66 195.5l82 896q9 99 82 166t172 67h605zM636 128q109 0 184.5 68.5t75.5 166.5q0 65 -70.5 177t-151.5 212q-13 16 -34 16t-34 -16q-81 -100 -151.5 -212t-70.5 -177
q0 -97 74 -166t178 -69zM1517 1416q19 -19 19 -45.5t-19 -45.5l-90 -90q-19 -19 -45.5 -19t-45.5 19l-173 173h-267v-128h-512l-4 384q0 53 37.5 90.5t90.5 37.5h260q53 0 90.5 -37.5t37.5 -90.5h267q100 0 181 -75z" />
    <glyph glyph-name="shield-virus" unicode="SHIELD&#x2d;VIRUS" 
d="M1152 772q26 0 45 -19.5t19 -44.5q0 -24 -19 -42.5t-45 -18.5q-27 0 -45.5 17.5t-18.5 43.5t19 45t45 19zM896 1028q26 0 44.5 -20t15.5 -44q0 -26 -19.5 -45t-44.5 -19q-24 0 -42 19t-18 45t19 45t45 19zM1866 1457q54 -23 86 -71t32 -106q0 -185 -32.5 -359t-88 -313
t-128 -263t-153.5 -217t-163 -167.5t-157.5 -121t-136.5 -71t-101 -24.5q-39 0 -99.5 24.5t-136 70.5t-157.5 120.5t-163 167t-154 217t-128.5 264t-88.5 314.5t-33 362q0 56 32 103.5t86 69.5l768 320q38 15 74 15t74 -15zM1536 772q26 0 45 20t19 47q0 26 -19 45t-45 19
h-48q-56 0 -92.5 39t-36.5 90q0 52 38 90l34 34q19 18 19 45q0 24 -18.5 42.5t-45.5 18.5q-26 0 -45 -19l-34 -34q-38 -38 -90 -38t-90.5 36t-38.5 92v49q0 26 -19 45t-45 19t-45 -19t-19 -45v-53q0 -56 -38.5 -92t-90.5 -36q-51 0 -89 38l-35 31q-17 18 -45 18t-46 -17
t-18 -43q0 -27 19 -45l34 -31q38 -38 38 -89t-36.5 -90t-92.5 -39h-48q-26 0 -45 -19t-19 -45t19 -45t45 -19h49q56 0 92 -38.5t36 -90.5t-38 -90l-34 -34q-19 -18 -19 -45q0 -24 18.5 -42.5t45.5 -18.5q26 0 45 19l35 34q38 38 89 38q52 0 90.5 -36t38.5 -92v-49
q0 -26 19 -45t45 -19t45 19t19 45v49q0 56 38.5 92t90.5 36t90 -38l34 -34q18 -19 45 -19q28 0 46 17.5t18 43.5t-19 45l-34 34q-38 38 -38 90q0 51 36.5 90t92.5 39h48z" />
    <glyph glyph-name="sink" unicode="SINK" 
d="M1984 640q26 0 45 -19t19 -45v-128q0 -26 -19 -45t-45 -19h-1920q-26 0 -45 19t-19 45v128q0 26 19 45t45 19h384v128h-256q-27 0 -45.5 19.5t-18.5 48.5v60q0 26 19 45t45 19h320q53 0 90.5 -37.5t37.5 -90.5v-192h256v753q0 141 86.5 253.5t221.5 141.5
q119 23 226.5 -23t170.5 -141t63 -212v-64q0 -26 -19 -45t-45 -19h-128q-26 0 -45 19t-19 45v64q0 53 -37.5 90.5t-90.5 37.5t-90.5 -37.5t-37.5 -90.5v-768h256v188q0 53 37.5 90.5t90.5 37.5l320 -7q26 0 45 -19t19 -45v-61q0 -24 -19 -42t-45 -18h-256v-128h384zM128 128
v128h1792v-128q0 -159 -112.5 -271.5t-271.5 -112.5h-1024q-159 0 -271.5 112.5t-112.5 271.5z" />
    <glyph glyph-name="soap" unicode="SOAP" 
d="M1280 768q-106 0 -181 75t-75 181t75 181t181 75t181 -75t75 -181t-75 -181t-181 -75zM640 640h768q106 0 181 -75t75 -181t-75 -181t-181 -75h-768q-106 0 -181 75t-75 181t75 181t181 75zM1536 1536q-53 0 -90.5 37.5t-37.5 90.5t37.5 90.5t90.5 37.5t90.5 -37.5
t37.5 -90.5t-37.5 -90.5t-90.5 -37.5zM832 1408q-80 0 -136 56t-56 136t56 136t136 56t136 -56t56 -136t-56 -136t-136 -56zM1664 1024q160 0 272 -111.5t112 -272.5v-512q0 -159 -112.5 -271.5t-271.5 -112.5h-1280q-159 0 -271.5 112.5t-112.5 271.5v512q0 161 112 272.5
t272 111.5h512q0 -138 100 -256h-356q-159 0 -271.5 -112.5t-112.5 -271.5t112.5 -271.5t271.5 -112.5h768q159 0 271.5 112.5t112.5 271.5q0 122 -70 220t-182 139q58 54 91 126.5t33 154.5z" />
    <glyph glyph-name="stopwatch-20" unicode="STOPWATCH&#x2d;&#x32;&#x30;" horiz-adv-x="1792" 
d="M1200 768q0 20 -14 34t-34 14t-34 -14t-14 -34v-384q0 -20 14 -34t34 -14t34 14t14 34v384zM1728 576q0 247 -134 452l105 109q19 19 19 45.5t-19 45.5l-91 90q-19 19 -45 19t-45 -19l-99 -98q-175 144 -399 178v138h68q52 0 90 40.5t38 91.5q0 50 -38 87t-90 37h-384
q-52 0 -90 -38t-38 -90t38 -90t90 -38h60v-138q-192 -30 -349.5 -141.5t-251 -283t-99.5 -368.5q-5 -168 59 -325t175 -272.5t265 -186t320 -73.5q171 -4 328 60.5t270 176.5t180 266.5t67 324.5zM657 336h111q33 0 56.5 -23.5t23.5 -56.5t-23.5 -56.5t-56.5 -23.5h-192
q-33 0 -56.5 23.5t-23.5 56.5v56q0 170 119 289q73 73 73 175q0 24 -16 32.5t-32 0.5t-16 -25q0 -34 -22.5 -57t-57.5 -23t-57.5 23t-22.5 57q0 80 56 136t136 56t136 -56t56 -136q0 -177 -119 -296q-63 -63 -72 -152zM1360 768v-384q0 -86 -61 -147t-147 -61t-147 61
t-61 147v384q0 86 61 147t147 61t147 -61t61 -147z" />
    <glyph glyph-name="shop-slash" unicode="STORE&#x2d;ALT&#x2d;SLASH" horiz-adv-x="2560" 
d="M94 1332l393 -308h-359q-50 0 -85.5 32.5t-41 77t20.5 89.5zM1276 256v146l253 -204v-330q0 -51 -36 -87.5t-89 -36.5h-1020q-54 0 -91 38t-37 94v1020h252v-640h768zM2300 88l220 -169q31 -25 36 -64.5t-20 -70.5q-24 -31 -64 -36t-71 20l-2364 1852q-32 25 -37 64
t20 71q29 37 76 37q33 0 59 -20l153 -120l55 79q38 57 106 57h1621q64 0 107 -57l341 -508q26 -45 20.5 -89.5t-41 -77t-85.5 -32.5h-1323l167 -134v6h260v-203l508 -401v604h256v-808z" />
    <glyph glyph-name="store-slash" unicode="STORE&#x2d;SLASH" horiz-adv-x="2560" 
d="M640 256h826l617 -484q-45 -28 -99 -28h-1408q-80 0 -136 56t-56 136v849q4 -1 21 -6.5t27 -6.5q29 -4 65 -4q71 0 143 22v-534zM498 896q-25 0 -49 3q-127 18 -198.5 122.5t-53.5 229.5l423 -331q-65 -24 -122 -24zM2523 -84q32 -25 36 -64t-23 -68q-24 -31 -64 -36
t-71 20l-2364 1852q-32 25 -37 64t20 71q29 37 76 37q33 0 59 -20l225 -176l91 144q32 52 95 52h1428q63 0 95 -52l230 -363q44 -69 48.5 -150t-24.5 -149t-90.5 -118t-142.5 -61q-24 -3 -48 -3q-76 0 -144 31t-117 85q-106 -116 -261 -116q-154 0 -260 116q-35 -38 -80 -62
l720 -562v402q72 -22 142 -22q37 0 65 4q10 1 27 6.5t22 6.5v-597z" />
    <glyph glyph-name="toilet-paper-slash" unicode="Toilet&#x2d;paper&#x2d;slash" horiz-adv-x="2560" 
d="M256 1028q0 76 10 169l1263 -983q-7 -68 -23.5 -139.5t-28.5 -112t-40 -123.5q-16 -40 -48.5 -64t-72.5 -24h-1124q-33 0 -52 25t-9 56q12 36 38 112.5t33.5 99.5t22.5 73.5t19 77t8 65t4 79.5v689zM2523 -84q32 -25 36 -64t-23 -68q-25 -31 -64.5 -36t-70.5 20
l-2364 1852q-32 25 -37 64t20 71q29 37 76 37q33 0 59 -20l228 -179q52 94 117 146.5t136 52.5h1138q-112 -114 -177 -315.5t-65 -448.5v-335l227 -177q-99 221 -99 512q0 207 51.5 383t140 278.5t192.5 102.5t193 -103t141.5 -279.5t53.5 -385.5q0 -197 -46 -366
t-126 -274.5t-176 -123.5zM1916 1028q0 -107 38.5 -181.5t89.5 -74.5q55 0 91.5 74.5t36.5 181.5q0 106 -37.5 181t-90.5 75t-90.5 -75t-37.5 -181z" />
    <glyph glyph-name="users-slash" unicode="USERS&#x2d;SLASH" horiz-adv-x="2560" 
d="M2048 1152q-133 0 -226.5 93.5t-93.5 226.5t93.5 226.5t226.5 93.5t226.5 -93.5t93.5 -226.5t-93.5 -226.5t-226.5 -93.5zM1960 1024h248q146 0 249 -109t103 -264q0 -31 -21 -53t-50 -22h-798q132 153 132 352q0 10 -1 20.5t-2.5 23t-2.5 19.5q69 33 143 33zM1586 650
l934 -731q31 -25 36 -64.5t-20 -70.5t-64.5 -36t-70.5 20l-2364 1852q-31 25 -36 64.5t20 70.5q29 37 75 37q33 0 59 -20l117 -92q96 112 240 112q133 0 226.5 -93.5t93.5 -226.5q0 -100 -60 -184l168 -129q57 85 147 135t196 50q170 0 291 -122t121 -294q0 -159 -109 -278z
M1080 384h223l735 -576q-14 -29 -42 -46.5t-62 -17.5h-1308q-47 0 -80.5 31.5t-33.5 75.5q0 145 76 267.5t207 194t285 71.5zM744 819q35 -138 124 -243h-798q-29 0 -49.5 22t-20.5 53q0 155 103 264t249 109h134z" />
    <glyph glyph-name="virus" unicode="VIRUS" horiz-adv-x="2304" 
d="M2062 882q47 0 80.5 -33.5t33.5 -80.5t-33.5 -80.5t-80.5 -33.5h-86q-59 0 -108.5 -26.5t-77.5 -69.5t-38.5 -93.5t6 -104t57.5 -94.5l61 -61q33 -33 33 -80.5t-33 -80.5t-80 -33q-48 0 -81 33l-61 61q-41 41 -94.5 57.5t-104 6t-93.5 -38.5t-69.5 -77.5t-26.5 -108.5
v-86q0 -47 -33.5 -80.5t-80.5 -33.5t-80.5 33.5t-33.5 80.5v86q0 59 -26.5 108.5t-69.5 77.5t-93.5 38.5t-104 -6t-94.5 -57.5l-61 -61q-33 -33 -81 -33q-47 0 -80 33t-33 80.5t33 80.5l61 61q41 41 57.5 94.5t6 104t-38.5 93.5t-77.5 69.5t-108.5 26.5h-86
q-47 0 -80.5 33.5t-33.5 80.5t33.5 80.5t80.5 33.5h86q59 0 108.5 26.5t77 69.5t38 93.5t-6.5 104t-60 94.5l-61 61q-33 33 -33 80.5t33 80.5q36 33 84 33t81 -33l61 -61q41 -41 94.5 -57.5t104 -6t93.5 38.5t69.5 77.5t26.5 108.5v86q0 47 33.5 80.5t80.5 33.5t80.5 -33.5
t33.5 -80.5v-86q0 -59 26.5 -108.5t69.5 -77.5t93.5 -38.5t104 6t94.5 57.5l61 61q33 33 80.5 33t80.5 -33t33 -80.5t-33 -80.5l-61 -61q-41 -41 -57.5 -94.5t-6 -104t38.5 -93.5t77.5 -69.5t108.5 -26.5h86zM1024 704q80 0 136 56t56 136t-56 136t-136 56t-136 -56
t-56 -136t56 -136t136 -56zM1344 480q40 0 68 27t28 65q0 40 -28 68t-68 28t-68 -26.5t-28 -65.5q0 -40 28 -68t68 -28z" />
    <glyph glyph-name="virus-slash" unicode="VIRUS&#x2d;SLASH" horiz-adv-x="2560" 
d="M452 882q85 0 148 53l981 -769q-79 -15 -133 -75t-54 -147v-86q0 -47 -33.5 -80.5t-80.5 -33.5t-80.5 33.5t-33.5 80.5v86q0 59 -26.5 108.5t-69.5 77.5t-93.5 38.5t-104 -6t-94.5 -57.5l-61 -61q-34 -34 -81 -34q-46 0 -80 34q-33 33 -33 80.5t33 80.5l61 61
q41 41 57.5 94.5t6 104t-38.5 93.5t-77.5 69.5t-108.5 26.5h-86q-47 0 -80.5 33.5t-33.5 80.5t33.5 80.5t80.5 33.5h82zM2523 -84q32 -25 36 -64t-23 -68q-25 -31 -64.5 -36t-70.5 20l-2364 1852q-32 25 -37 64t20 71q29 37 76 37q33 0 59 -20l385 -302q10 16 16 22
q33 33 80.5 33t80.5 -33l61 -61q41 -41 94.5 -57.5t104 -6t93.5 38.5t69.5 77.5t26.5 108.5v86q0 47 32.5 80.5t77.5 33.5q49 0 83.5 -33.5t34.5 -80.5v-86q0 -59 26.5 -108.5t69.5 -77.5t93.5 -38.5t104 6t94.5 57.5l61 61q33 33 80.5 33t80.5 -33t33 -80.5t-33 -80.5
l-61 -61q-41 -41 -57.5 -94.5t-6 -104t38.5 -93.5t77.5 -69.5t108.5 -26.5h86q47 0 80.5 -33.5t33.5 -80.5t-33.5 -80.5t-80.5 -33.5h-86q-100 0 -164 -70t-62 -163zM1336 846q4 16 4 54q0 77 -54.5 132.5t-133.5 55.5q-52 0 -94 -24z" />
    <glyph glyph-name="viruses" unicode="Viruses" horiz-adv-x="2560" 
d="M1386 939q-55 0 -97.5 -30.5t-60.5 -74.5t-10 -96t47 -91l46 -45q25 -25 25 -60.5t-25 -60.5t-60 -25q-36 0 -61 25l-45 46q-39 39 -91 47.5t-96 -10t-74.5 -61t-30.5 -97.5v-65q0 -35 -25 -60t-60 -25t-60 25t-25 60v65q0 55 -30.5 97.5t-74.5 61t-96 10t-91 -47.5
l-45 -46q-25 -25 -61 -25q-35 0 -60 25t-25 60.5t25 60.5l46 45q39 39 47.5 91t-10 96t-61 74.5t-97.5 30.5h-65q-35 0 -60 25t-25 60t25 60t60 25h65q55 0 97.5 30.5t61 74.5t10 96t-47.5 91l-46 45q-25 25 -25 60.5t25 60.5t60.5 25t60.5 -25l45 -46q39 -39 91 -47.5
t96 10t74.5 61t30.5 97.5v65q0 35 25 60t60 25t60 -25t25 -60v-65q0 -55 30.5 -97.5t74.5 -61t96 -10t91 47.5l45 46q25 25 60.5 25t60.5 -25t25 -60.5t-25 -60.5l-46 -45q-39 -39 -47.5 -91t10 -96t61 -74.5t97.5 -30.5h65q35 0 60 -25t25 -60t-25 -60t-60 -25h-65z
M640 1024q53 0 90.5 37.5t37.5 90.5t-37.5 90.5t-90.5 37.5t-90.5 -37.5t-37.5 -90.5t37.5 -90.5t90.5 -37.5zM960 896q26 0 45 19t19 45t-19 45t-45 19t-45 -19t-19 -45t19 -45t45 -19zM2496 384q26 0 45 -19t19 -45t-19 -45t-45 -19h-48q-41 0 -73 -23t-46 -56t-7.5 -71.5
t35.5 -67.5l34 -35q19 -19 19 -45t-19 -45q-21 -19 -45 -19q-26 0 -45 19l-34 34q-29 29 -68 35.5t-72 -7.5t-56 -46t-23 -73v-48q0 -26 -19 -45t-45 -19t-45 19t-19 45v48q0 41 -23 73t-56 46t-71.5 7.5t-67.5 -35.5l-35 -34q-18 -19 -45 -19q-26 0 -45 19t-19 45t19 45
l34 34q29 29 35.5 68t-7.5 72t-46 56t-73 23h-48q-26 0 -45 19t-19 45t19 45t45 19h48q41 0 73 23t46 56t7.5 71.5t-35.5 67.5l-34 35q-19 19 -19 45t19 45t45 19t45 -19l34 -34q29 -29 68 -35.5t72 7.5t56 46t23 73v48q0 26 19 45t45 19t45 -19t19 -45v-48q0 -41 23 -73
t56 -46t72 -7.5t68 35.5l34 34q19 19 45 19t45 -19t19 -45t-19 -45l-34 -34q-29 -29 -35.5 -68t7.5 -72t46 -56t73 -23h48zM1920 256q53 0 90.5 37.5t37.5 90.5t-37.5 90.5t-90.5 37.5t-90.5 -37.5t-37.5 -90.5t37.5 -90.5t90.5 -37.5z" />
    <glyph glyph-name="vest" unicode="VEST" horiz-adv-x="1792" 
d="M1749 832q43 -65 43 -142v-818q0 -53 -37.5 -90.5t-90.5 -37.5h-768v896l295 886q-143 -79 -295 -79t-295 79l228 -684l-54 -162q-7 -23 -7 -40v-896h-640q-53 0 -90.5 37.5t-37.5 90.5v818q0 78 43 142l213 320v512q0 53 37.5 90.5t90.5 37.5h128q27 0 53 -16l100 -67
q105 -71 231 -71t231 71l100 67q26 16 53 16h128q53 0 90.5 -37.5t37.5 -90.5v-512zM525 307q19 19 19 45t-19 45t-45 19t-45 -19l-192 -192q-19 -19 -19 -45t19 -45q18 -19 45 -19q26 0 45 19zM1549 115q19 19 19 45t-19 45l-192 192q-19 19 -45 19t-45 -19t-19 -45t19 -45
l192 -192q18 -19 45 -19q26 0 45 19z" />
    <glyph glyph-name="vest-patches" unicode="VEST&#x2d;PATCHES" horiz-adv-x="1792" 
d="M1749 832q43 -65 43 -142v-818q0 -53 -37.5 -90.5t-90.5 -37.5h-768v896l295 886q-143 -79 -295 -79t-295 79l228 -684l-54 -162q-7 -23 -7 -40v-896h-640q-53 0 -90.5 37.5t-37.5 90.5v818q0 78 43 142l213 320v512q0 53 37.5 90.5t90.5 37.5h128q27 0 53 -16l100 -67
q105 -71 231 -71t231 71l100 67q26 16 53 16h128q53 0 90.5 -37.5t37.5 -90.5v-512zM254 702l62 -62l-62 -62q-14 -14 -14 -34t14 -34t34 -14t34 14l62 62l62 -62q14 -14 34 -14t34 14t14 34t-14 34l-62 62l62 62q14 14 14 34t-14 34t-34 14t-34 -14l-62 -62l-62 62
q-14 14 -34 14t-34 -14t-14 -34t14 -34zM384 -32q66 0 113 47t47 113t-47 113t-113 47t-113 -47t-47 -113t47 -113t113 -47zM1437 449q44 0 73.5 32.5t25.5 76.5q-4 38 -33.5 63t-68.5 25h-20v20q0 39 -25 68.5t-63 33.5q-44 4 -76 -25.5t-33 -73.5l-1 -194q-3 -11 5 -19
t22 -8z" />
    <glyph glyph-name="arrow-trend-down" unicode="ARROW&#x2d;TREND&#x2d;DOWN" horiz-adv-x="2304" 
d="M2304 256v640q0 53 -37.5 90.5t-90.5 37.5t-90.5 -37.5t-37.5 -90.5v-331l-678 678q-37 37 -90 37q-52 0 -90 -38l-422 -421l-550 550q-37 37 -90 37q-52 0 -90 -37t-38 -91q0 -52 38 -90l640 -640q38 -38 90 -38t90 38l422 421l587 -587h-331q-53 0 -90.5 -37.5
t-37.5 -90.5t37.5 -90.5t90.5 -37.5h640q48 0 88 34.5t40 93.5z" />
    <glyph glyph-name="arrow-trend-up" unicode="ARROW&#x2d;TREND&#x2d;UP" horiz-adv-x="2304" 
d="M2304 1280q0 54 -38.5 91t-89.5 37h-640q-53 0 -90.5 -37.5t-37.5 -90.5t37.5 -90.5t90.5 -37.5h331l-587 -587l-422 421q-38 38 -90 38q-53 0 -91 -38l-640 -640q-37 -37 -37 -90q0 -52 37 -90t91 -38q53 0 90 37l550 550l422 -421q38 -38 90 -38q53 0 90 37l678 678
v-331q0 -53 37.5 -90.5t90.5 -37.5t90.5 37.5t37.5 90.5v640z" />
    <glyph glyph-name="arrow-up-from-bracket" unicode="ARROW&#x2d;UP&#x2d;FROM&#x2d;BRACKET" horiz-adv-x="1792" 
d="M1536 384q0 53 37.5 90.5t90.5 37.5t90.5 -37.5t37.5 -90.5v-256q0 -159 -112.5 -271.5t-271.5 -112.5h-1024q-159 0 -271.5 112.5t-112.5 271.5v256q0 53 37.5 90.5t90.5 37.5t90.5 -37.5t37.5 -90.5v-256q0 -53 37.5 -90.5t90.5 -37.5h1024q53 0 90.5 37.5t37.5 90.5
v256zM806 1754q38 38 91 38t90 -38l512 -512q37 -38 37 -91t-37 -90t-90 -37t-91 37l-294 294v-843q0 -53 -37.5 -90.5t-90.5 -37.5t-90.5 37.5t-37.5 90.5v843l-293 -293q-37 -38 -90 -38t-91 38t-38 90t38 90z" />
    <glyph glyph-name="austral-sign" unicode="AUSTRAL&#x2d;SIGN" horiz-adv-x="1792" 
d="M1664 512q53 0 90.5 -37.5t37.5 -90.5t-37.5 -90.5t-90.5 -37.5h-100l90 -207q20 -49 0 -98t-69 -69q-23 -10 -49 -10q-38 0 -70.5 21.5t-47.5 57.5l-128 305h-789l-127 -305q-20 -49 -69 -69.5t-98 0.5q-49 20 -69 69t0 98l86 207h-96q-53 0 -90.5 37.5t-37.5 90.5
t37.5 90.5t90.5 37.5h203l53 128h-256q-53 0 -90.5 37.5t-37.5 90.5t37.5 90.5t90.5 37.5h363l287 689q15 36 47 57.5t71 21.5t71 -21.5t47 -57.5l287 -689h363q53 0 90.5 -37.5t37.5 -90.5t-37.5 -90.5t-90.5 -37.5h-256l53 -128h203zM896 1203l-128 -307h256zM604 512h576
l-53 128h-469z" />
    <glyph glyph-name="baht-sign" unicode="BAHT&#x2d;SIGN" horiz-adv-x="1280" 
d="M1067 828q97 -60 155 -161t58 -219q0 -185 -131.5 -316.5t-316.5 -131.5h-128v-128q0 -53 -37.5 -90.5t-90.5 -37.5t-90.5 37.5t-37.5 90.5v128h-320q-53 0 -90.5 37.5t-37.5 90.5v1280q0 53 37.5 90.5t90.5 37.5h320v128q0 53 37.5 90.5t90.5 37.5t90.5 -37.5
t37.5 -90.5v-128q185 0 316.5 -131.5t131.5 -316.5q0 -132 -85 -260zM896 1088q0 80 -56 136t-136 56v-384q80 0 136 56t56 136zM256 1280v-384h192v384h-192zM256 256h192v384h-192v-384zM832 256q80 0 136 56t56 136t-56 136t-136 56h-128v-384h128z" />
    <glyph glyph-name="bitcoin-sign" unicode="BITCOIN&#x2d;SIGN" horiz-adv-x="1280" 
d="M1067 828q97 -60 155 -161t58 -219q0 -185 -131.5 -316.5t-316.5 -131.5v-128q0 -53 -37.5 -90.5t-90.5 -37.5t-90.5 37.5t-37.5 90.5v128h-128v-128q0 -53 -37.5 -90.5t-90.5 -37.5t-90.5 37.5t-37.5 90.5v128h-64q-53 0 -90.5 37.5t-37.5 90.5v1280q0 53 37.5 90.5
t90.5 37.5h64v128q0 53 37.5 90.5t90.5 37.5t90.5 -37.5t37.5 -90.5v-128h128v128q0 53 37.5 90.5t90.5 37.5t90.5 -37.5t37.5 -90.5v-149q140 -43 230 -160.5t90 -266.5q0 -132 -85 -260zM896 1088q0 80 -56 136t-136 56h-448v-384h448q80 0 136 56t56 136zM832 256
q80 0 136 56t56 136t-56 136t-136 56h-576v-384h576z" />
    <glyph glyph-name="camera-rotate" unicode="CAMERA&#x2d;ROTATE" 
d="M1856 1408q80 0 136 -56t56 -136v-1152q0 -80 -56 -136t-136 -56h-1664q-80 0 -136 56t-56 136v1152q0 80 56 136t136 56h352l49 132q21 56 70.5 90t109.5 34h502q60 0 109 -34t70 -90l50 -132h352zM1428 325q25 32 20 71t-37 64t-71 20t-64 -37q-46 -59 -112 -91
t-140 -32q-114 0 -203 73l77 77q26 26 12 61t-51 36h-308q-17 -1 -28 -12.5t-11 -27.5v-306q0 -38 35 -52.5t62 12.5l77 77q146 -130 338 -130q119 0 224.5 51.5t179.5 145.5zM1536 753v306q0 38 -35 52.5t-62 -12.5l-77 -77q-146 130 -338 130q-119 0 -224.5 -51.5
t-179.5 -145.5q-25 -32 -20 -71.5t37 -63.5q32 -25 71.5 -20t63.5 37q46 59 112 91t140 32q114 0 203 -73l-77 -77q-26 -26 -12 -61t51 -36h308q17 1 28 12.5t11 27.5z" />
    <glyph glyph-name="cedi-sign" unicode="CEDI&#x2d;SIGN" horiz-adv-x="1280" 
d="M1070 370q40 34 93 29t87 -45t29 -93.5t-45 -87.5q-149 -124 -338 -160v-141q0 -53 -37.5 -90.5t-90.5 -37.5t-90.5 37.5t-37.5 90.5v138q-245 38 -420 216q-108 110 -164 253.5t-56 288.5t56 288.5t164 253.5q172 176 420 215v139q0 52 40.5 90t91.5 38t87.5 -37.5
t36.5 -90.5v-143q192 -37 338 -158q40 -34 45 -87.5t-29 -93.5t-87 -45t-93 29q-76 63 -174 93v-982q95 28 174 93zM403 405q107 -104 237 -135v996q-136 -33 -237 -135q-96 -98 -130.5 -230.5t0 -265t130.5 -230.5z" />
    <glyph glyph-name="cent-sign" unicode="CENT&#x2d;SIGN" horiz-adv-x="1280" 
d="M1250 354q-34 41 -86.5 45.5t-93.5 -29.5q-98 -81 -219 -105.5t-239.5 12.5t-208.5 128q-96 98 -130.5 230.5t0 265t130.5 230.5q90 91 208 128t239.5 12.5t219.5 -105.5q40 -34 93 -29t87 45t29 93.5t-45 87.5q-146 121 -338 158v143q0 53 -37.5 90.5t-90.5 37.5
t-90.5 -37.5t-37.5 -90.5v-139q-246 -38 -420 -215q-108 -110 -164 -253.5t-56 -288.5t56 -288.5t164 -253.5q173 -178 420 -216v-138q0 -53 37.5 -90.5t90.5 -37.5t90.5 37.5t37.5 90.5v142q191 37 338 159q40 34 45 87.5t-29 93.5z" />
    <glyph glyph-name="chart-gantt" unicode="CHART&#x2d;GANTT" 
d="M1408 589q0 19 16 35t35 16h410q19 0 35 -16t16 -35v-154q0 -19 -16 -35t-35 -16h-410q-19 0 -35 16t-16 35v154zM768 973q0 19 16 35t35 16h666q19 0 35 -16t16 -35v-154q0 -19 -16 -35t-35 -16h-666q-19 0 -35 16t-16 35v154zM1920 128q53 0 90.5 -37.5t37.5 -90.5
t-37.5 -90.5t-90.5 -37.5h-1792q-52 0 -90 38t-38 90v1540q0 51 37.5 87.5t90.5 36.5t90.5 -36.5t37.5 -87.5v-1412h1664zM563 1152q-19 0 -35 16t-16 35v154q0 19 16 35t35 16h538q19 0 35 -16t16 -35v-154q0 -19 -16 -35t-35 -16h-538z" />
    <glyph glyph-name="clapperboard" unicode="CLAPPERBOARD" 
d="M1304 1152h-368l512 512h344q8 0 22 -2zM664 1152h-368l512 512h368zM1991 1567q57 -72 57 -159v-256h-472zM536 1664l-512 -512h-24v256q0 106 75 181t181 75h280zM0 128v896h2048v-896q0 -106 -75 -181t-181 -75h-1536q-106 0 -181 75t-75 181z" />
    <glyph glyph-name="clover" unicode="CLOVER" 
d="M2048 583q0 109 -80 186q78 76 78 184q0 106 -74.5 181t-180.5 75q-187 0 -490 -164q164 303 164 490q0 106 -75 181.5t-181 75.5q-111 0 -186 -80q-77 79 -184 79q-106 0 -181 -75t-75 -181q0 -180 164 -490q-303 164 -490 164q-106 0 -181.5 -75t-75.5 -181
q0 -109 80 -186q-78 -76 -78 -184q0 -106 74.5 -181t180.5 -75q187 0 490 164q-164 -303 -164 -490q0 -106 75 -181.5t181 -75.5q109 0 186 80q76 -78 184 -78q106 0 181 74.5t75 180.5q0 187 -164 490q303 -164 490 -164q106 0 181.5 75t75.5 181z" />
    <glyph glyph-name="code-compare" unicode="CODE&#x2d;COMPARE" 
d="M1280 1408q0 -31 -23 -49l-384 -320q-18 -15 -41 -15q-14 0 -27 6q-37 18 -37 58v192h-192q-53 0 -90.5 -37.5t-37.5 -90.5v-731q86 -37 139 -116.5t53 -176.5q0 -133 -93.5 -226.5t-226.5 -93.5t-226.5 93.5t-93.5 226.5q0 97 53 176.5t139 116.5v731q0 159 112.5 271.5
t271.5 112.5h192v192q0 40 37 58q37 17 68 -9l384 -320q23 -18 23 -49zM320 32q40 0 68 28t28 68t-28 68t-68 28t-68 -28t-28 -68t28 -68t68 -28zM1728 1728q133 0 226.5 -93.5t93.5 -226.5q0 -97 -53 -176.5t-139 -116.5v-731q0 -159 -112.5 -271.5t-271.5 -112.5h-192
v-192q0 -40 -37 -58q-13 -6 -27 -6q-23 0 -41 15l-384 320q-23 18 -23 49t23 49l384 320q31 26 68 9q37 -18 37 -58v-192h192q53 0 90.5 37.5t37.5 90.5v731q-86 37 -139 116.5t-53 176.5q0 133 93.5 226.5t226.5 93.5zM1728 1312q40 0 68 28t28 68t-28 68t-68 28t-68 -28
t-28 -68t28 -68t68 -28z" />
    <glyph glyph-name="code-fork" unicode="CODE&#x2d;FORK" horiz-adv-x="1792" 
d="M1792 1472q0 -97 -53 -176.5t-139 -116.5v-155q0 -159 -112.5 -271.5t-271.5 -112.5h-192v-283q86 -37 139 -116.5t53 -176.5q0 -133 -93.5 -226.5t-226.5 -93.5t-226.5 93.5t-93.5 226.5q0 97 53 176.5t139 116.5v283h-192q-159 0 -271.5 112.5t-112.5 271.5v155
q-86 37 -139 116.5t-53 176.5q0 133 93.5 226.5t226.5 93.5t226.5 -93.5t93.5 -226.5q0 -97 -53 -176.5t-139 -116.5v-155q0 -53 37.5 -90.5t90.5 -37.5h640q53 0 90.5 37.5t37.5 90.5v155q-86 37 -139 116.5t-53 176.5q0 133 93.5 226.5t226.5 93.5t226.5 -93.5
t93.5 -226.5zM320 1568q-40 0 -68 -28t-28 -68t28 -68t68 -28t68 28t28 68t-28 68t-68 28zM896 -32q40 0 68 28t28 68t-28 68t-68 28t-68 -28t-28 -68t28 -68t68 -28zM1472 1568q-40 0 -68 -28t-28 -68t28 -68t68 -28t68 28t28 68t-28 68t-68 28z" />
    <glyph glyph-name="code-pull-request" unicode="CODE&#x2d;PULL&#x2d;REQUEST" 
d="M640 1412q0 -100 -53 -180t-139 -117v-690q86 -37 139 -116.5t53 -176.5q0 -133 -93.5 -226.5t-226.5 -93.5t-226.5 93.5t-93.5 226.5q0 95 53 173.5t139 115.5v694q-86 37 -139 117t-53 180q0 133 93.5 226.5t226.5 93.5t226.5 -93.5t93.5 -226.5zM320 36q40 0 68 28
t28 68t-28 68t-68 28t-68 -28t-28 -68t28 -68t68 -28zM320 1316q40 0 68 28t28 68t-28 68t-68 28t-68 -28t-28 -68t28 -68t68 -28zM1856 421q86 -37 139 -116t53 -174q0 -133 -93.5 -226.5t-226.5 -93.5t-226.5 93.5t-93.5 226.5q0 97 53 176.5t139 116.5v732
q0 53 -37.5 90.5t-90.5 37.5h-192v-192q0 -46 -37 -58q-13 -6 -27 -6q-28 0 -41 11l-384 320q-23 18 -23 53q0 27 23 45l384 320q31 26 68 9q37 -18 37 -58v-192h192q159 0 271.5 -112.5t112.5 -271.5v-731zM1728 36q40 0 68 28t28 68t-28 68t-68 28t-68 -28t-28 -68t28 -68
t68 -28z" />
    <glyph glyph-name="colon-sign" unicode="COLON&#x2d;SIGN" horiz-adv-x="1280" 
d="M1070 370q40 34 93 29t87 -45t29 -93.5t-45 -87.5q-159 -132 -364 -164l-42 -168q-11 -43 -46 -70t-78 -27q-18 0 -31 4q-52 13 -79 58.5t-14 96.5l28 111q-50 11 -112 34l-52 -207q-11 -43 -46 -70t-78 -27q-11 0 -31 4q-52 13 -79 58.5t-14 96.5l71 284
q-4 3 -21.5 16.5t-25.5 22.5q-108 110 -164 253.5t-56 288.5t56 288.5t164 253.5q158 161 376 209l48 176q13 52 58.5 79t96.5 14q52 -13 79 -58.5t14 -96.5l-26 -105q64 -10 113 -26l49 193q13 52 58.5 79t96.5 14q52 -13 79 -58.5t14 -96.5l-64 -256q2 -1 10 -6.5t12 -8.5
q40 -34 45 -87t-29 -93q-37 -44 -98 -44l-211 -843q78 33 129 75zM403 1131q-128 -131 -144.5 -315t82.5 -330l184 738q-88 -54 -122 -93zM558 298q53 -24 112 -33l247 987q-53 19 -114 25z" />
    <glyph glyph-name="cruzeiro-sign" unicode="CRUZEIRO&#x2d;SIGN" horiz-adv-x="1536" 
d="M1508 252q-36 41 -87.5 47.5t-92.5 -26.5q-189 -151 -432 -145v384q0 53 37.5 90.5t90.5 37.5q35 0 64 -17q46 -26 97 -12.5t78 59.5t13 97t-60 77q-89 52 -192 52q-84 0 -165 -39q-37 39 -91 39q-53 0 -90.5 -37.5t-37.5 -90.5v-582q-108 48 -193 130
q-92 91 -141.5 207.5t-49.5 244.5t49.5 244.5t141.5 207.5q118 116 274.5 162t317 15.5t289.5 -134.5q41 -33 94 -27t86 47t27 94t-47 86q-179 143 -401 185.5t-438.5 -22t-380.5 -224.5q-129 -126 -198.5 -291t-69.5 -343t69.5 -343.5t198.5 -291.5q131 -128 298.5 -195
t346.5 -67q323 0 575 201q41 33 47 86t-27 94z" />
    <glyph glyph-name="dong-sign" unicode="DONG&#x2d;SIGN" horiz-adv-x="1792" 
d="M1568 0q53 0 90.5 -37.5t37.5 -90.5t-37.5 -90.5t-90.5 -37.5h-1344q-53 0 -90.5 37.5t-37.5 90.5t37.5 90.5t90.5 37.5h1344zM896 128q-104 0 -198.5 40.5t-163.5 109.5t-109.5 163.5t-40.5 198.5t40.5 198.5t109.5 163.5t163.5 109.5t198.5 40.5q133 0 256 -71v199
h-128q-53 0 -90.5 37.5t-37.5 90.5t37.5 90.5t90.5 37.5h128q0 53 37.5 90.5t90.5 37.5t90.5 -37.5t37.5 -90.5q53 0 90.5 -37.5t37.5 -90.5t-37.5 -90.5t-90.5 -37.5v-1024q0 -53 -37.5 -90.5t-90.5 -37.5q-38 0 -70 21.5t-47 55.5q-125 -77 -267 -77zM896 896
q-106 0 -181 -75t-75 -181t75 -181t181 -75t181 75t75 181t-75 181t-181 75z" />
    <glyph glyph-name="elevator" unicode="Elevator" 
d="M316 1408q-38 0 -55 35q-16 33 11 62l260 269q17 18 44 18t44 -18l260 -269q27 -29 11 -62q-17 -35 -55 -35h-520zM1428 1426l-260 269q-27 29 -11 62q17 35 55 35h520q16 0 32.5 -10t22.5 -25q16 -33 -11 -62l-260 -269q-17 -18 -44 -18t-44 18zM1792 1280
q106 0 181 -75t75 -181v-1028q0 -104 -75 -178t-181 -74h-1536q-106 0 -181 76.5t-75 186.5v1021q0 104 75 178t181 74h1536zM1408 896q-80 0 -136 -56t-56 -136t56 -136t136 -56t136 56t56 136t-56 136t-136 56zM640 896q-80 0 -136 -56t-56 -136t56 -136t136 -56t136 56
t56 136t-56 136t-136 56zM960 0v192q0 80 -56 136t-136 56h-256q-80 0 -136 -56t-56 -136v-192h640zM1728 0v192q0 80 -56 136t-136 56h-256q-80 0 -136 -56t-56 -136v-192h640z" />
    <glyph glyph-name="filter-circle-xmark" unicode="Filter&#x2d;circle&#x2d;xmark" horiz-adv-x="2304" 
d="M1531 996q-222 -65 -364.5 -252t-142.5 -424q0 -138 53 -266l-268 187q-41 28 -41 79v373l-738 890q-25 30 -28.5 67.5t11.5 68.5t46.5 52t71.5 21h1786q40 0 71.5 -21t46 -52t11.5 -69t-27 -70zM1728 896q117 0 223.5 -45.5t184 -123t123 -184t45.5 -223.5t-45.5 -223.5
t-123 -184t-184 -123t-223.5 -45.5t-223.5 45.5t-184 123t-123 184t-45.5 223.5t45.5 223.5t123 184t184 123t223.5 45.5zM1954 184l-136 136l136 136q19 19 19 45t-19 45t-45 19t-45 -19l-136 -136l-136 136q-19 19 -45 19t-45 -19t-19 -45t19 -45l135 -136l-135 -136
q-19 -19 -19 -45t19 -45t45 -19t45 19l136 136l136 -136q19 -19 45 -19t45 19t19 45t-19 45z" />
    <glyph glyph-name="florin-sign" unicode="FLORIN&#x2d;SIGN" horiz-adv-x="1536" 
d="M1536 1536q0 53 -37.5 90.5t-90.5 37.5h-148q-124 0 -226 -67t-146 -177l-207 -524h-425q-53 0 -90.5 -37.5t-37.5 -90.5t37.5 -90.5t90.5 -37.5h320l-166 -430q-14 -37 -51.5 -59.5t-83.5 -22.5h-147q-53 0 -90.5 -37.5t-37.5 -90.5t37.5 -90.5t90.5 -37.5h147
q124 0 227 67.5t146 176.5l207 524h425q53 0 90.5 37.5t37.5 90.5t-37.5 90.5t-90.5 37.5h-324l170 430q14 37 51.5 59.5t83.5 22.5h147q53 0 90.5 37.5t37.5 90.5z" />
    <glyph glyph-name="franc-sign" unicode="FRANC&#x2d;SIGN" horiz-adv-x="1280" 
d="M1280 1536q0 53 -37.5 90.5t-90.5 37.5h-832q-53 0 -90.5 -37.5t-37.5 -90.5v-1024h-64q-53 0 -90.5 -37.5t-37.5 -90.5t37.5 -90.5t90.5 -37.5h64v-256q0 -53 37.5 -90.5t90.5 -37.5t90.5 37.5t37.5 90.5v256h320q53 0 90.5 37.5t37.5 90.5t-37.5 90.5t-90.5 37.5h-320
v256h576q53 0 90.5 37.5t37.5 90.5t-37.5 90.5t-90.5 37.5h-576v384h704q53 0 90.5 37.5t37.5 90.5z" />
    <glyph glyph-name="guarani-sign" unicode="GUARANI&#x2d;SIGN" horiz-adv-x="1536" 
d="M1472 501q0 -93 -37.5 -177.5t-106.5 -146.5q-188 -153 -432 -172v-133q0 -53 -37.5 -90.5t-90.5 -37.5t-90.5 37.5t-37.5 90.5v153q-228 59 -391 242q-122 141 -165 321t0 359.5t165 320.5q157 182 391 243v153q0 53 37.5 90.5t90.5 37.5t90.5 -37.5t37.5 -90.5v-130
q236 -19 427 -170q41 -34 47 -86.5t-28 -93.5q-33 -41 -86 -46.5t-94 27.5q-117 95 -266 112v-381h447q53 0 90.5 -37.5t37.5 -89.5zM443 435q79 -91 197 -139v944q-118 -48 -197 -139q-124 -143 -124 -333t124 -333zM1162 371q54 49 54 129l-1 140h-319v-381
q149 17 266 112z" />
    <glyph glyph-name="gun" unicode="GUN" horiz-adv-x="2304" 
d="M2176 1536q53 0 90.5 -37.5t37.5 -90.5v-320q0 -53 -37.5 -90.5t-90.5 -37.5h-256l-91 -91q-37 -37 -90 -37h-145l-98 -295q-23 -69 -81.5 -111t-130.5 -42h-378l-112 -419q-12 -41 -46 -67t-77 -26h-415q-64 0 -102 50.5t-21 112.5l163 634q17 62 -21 112.5t-102 50.5
q-71 0 -122 51t-51 122v358q0 71 51 122t122 51h1747v32q0 40 28 68t68 28t68 -28t28 -68v-32h64zM1314 598l78 234h-368l-68 -256h328q23 0 30 22zM1920 1152v128h-1664v-128h1664z" />
    <glyph glyph-name="hands-clapping" unicode="HANDS&#x2d;CLAPPING" 
d="M1280 1408q-26 0 -45 19t-19 45v256q0 26 19 45t45 19t45 -19t19 -45v-256q0 -26 -19 -45t-45 -19zM1534 1408q-26 0 -45 18.5t-19 45.5q0 19 11 36l130 192q19 28 53 28q26 0 45 -18.5t19 -45.5q0 -19 -11 -36l-130 -192q-19 -28 -53 -28zM1536 362q0 -165 -79.5 -307
t-219.5 -226.5t-308 -84.5q-54 0 -101.5 7t-95 25.5t-86.5 38t-88 57.5t-86 69t-95.5 88t-101 100.5t-117 119.5t-130.5 132q-28 28 -28 68q0 39 27.5 67.5t68.5 28.5q40 0 68 -28l211 -210q18 -18 42 -18t42 18q17 17 17 42t-17 42l-358 357q-28 28 -28 68q0 39 27.5 67.5
t68.5 28.5q39 0 68 -29l357 -353q18 -18 42 -18t42 18t18 42q0 20 -18 38l-430 431q-28 28 -28 67t27.5 67.5t68.5 28.5q40 0 68 -28l430 -430q17 -17 42 -17t42 17q18 18 18 42t-18 42l-357 357q-28 28 -28 68q0 39 27.5 67.5t68.5 28.5q40 0 68 -28l603 -603v308
q0 51 37.5 87.5t90.5 36.5q38 0 65.5 -17t40 -41.5t17.5 -43.5t5 -32v-656zM973 1436l-134 192q-11 17 -11 36q0 27 19 45.5t45 18.5q38 0 57 -28l130 -192q11 -17 11 -36q0 -27 -19 -45.5t-45 -18.5q-34 0 -53 28zM1920 1152q53 0 90.5 -37.5t37.5 -90.5v-662
q0 -165 -79.5 -307t-219.5 -226.5t-308 -84.5q-36 0 -90 9q29 21 56.5 44t78.5 80.5t86.5 120.5t63.5 160.5t28 203.5v485l128 -128v305q0 53 37.5 90.5t90.5 37.5z" />
    <glyph glyph-name="indian-rupee-sign" unicode="Indian&#x2d;rupee&#x2d;sign" horiz-adv-x="1280" 
d="M1280 1088q0 53 -37.5 90.5t-90.5 37.5h-144q-25 109 -82 192h226q53 0 90.5 37.5t37.5 90.5t-37.5 90.5t-90.5 37.5h-1024q-53 0 -90.5 -37.5t-37.5 -90.5t37.5 -90.5t90.5 -37.5h320q97 0 176 -53t117 -139h-613q-53 0 -90.5 -37.5t-37.5 -90.5t37.5 -90.5t90.5 -37.5
h613q-38 -86 -117 -139t-176 -53h-320q-43 0 -76 -24t-46 -65q-12 -40 0 -77.5t44 -65.5l896 -640q34 -24 74 -24q69 0 108 54q31 43 22 95t-52 83l-577 413q180 22 313.5 144.5t173.5 298.5h144q53 0 90.5 37.5t37.5 90.5z" />
    <glyph glyph-name="kip-sign" unicode="KIP&#x2d;SIGN" horiz-adv-x="1536" 
d="M1536 768q0 53 -37.5 90.5t-90.5 37.5h-678l626 543q40 34 44.5 87t-30.5 93q-34 40 -87 44.5t-93 -30.5l-685 -587v490q0 54 -36 91t-89 37t-90.5 -37.5t-37.5 -90.5l4 -640h-128q-53 0 -90.5 -37.5t-37.5 -90.5t37.5 -90.5t90.5 -37.5h128v-640q0 -53 38.5 -90.5
t89.5 -37.5t87.5 37.5t36.5 90.5v490l685 -587q35 -31 83 -31q58 0 101 45q35 40 30.5 93t-44.5 87l-633 543h678q53 0 90.5 37.5t37.5 90.5z" />
    <glyph glyph-name="lari-sign" unicode="LARI&#x2d;SIGN" horiz-adv-x="1536" 
d="M1536 0q0 53 -37.5 90.5t-90.5 37.5h-692q-197 24 -328.5 169t-131.5 340q0 116 51.5 218t140.5 174v-261q0 -53 37.5 -90.5t90.5 -37.5t90.5 37.5t37.5 90.5v374q54 8 81 8q7 0 15 -0.5t17.5 -1.5t14.5 -1v-379q0 -53 37.5 -90.5t90.5 -37.5t90.5 37.5t37.5 90.5v290
q143 -97 199 -254q17 -50 65 -73t98 -6t73 65t6 98q-55 156 -171 275t-270 182v191q0 53 -37.5 90.5t-90.5 37.5t-90.5 -37.5t-37.5 -90.5v-133q-6 0 -22 2t-25 2q-36 0 -81 -5v134q0 53 -37.5 90.5t-90.5 37.5t-90.5 -37.5t-37.5 -90.5v-205q-202 -95 -325 -281.5
t-123 -412.5q0 -144 51.5 -274.5t144.5 -234.5h-68q-53 0 -90.5 -37.5t-37.5 -90.5t37.5 -90.5t90.5 -37.5h573h3l2 -1q2 0 6 -0.5t6 -0.5t4 1t4 1h682q53 0 90.5 37.5t37.5 90.5z" />
    <glyph glyph-name="litecoin-sign" unicode="Litecoin&#x2d;sign" horiz-adv-x="1536" 
d="M1536 0q0 53 -37.5 90.5t-90.5 37.5h-896v616l547 157q51 14 76.5 60.5t11.5 97.5t-60.5 76.5t-97.5 11.5l-477 -136v525q0 53 -37.5 90.5t-90.5 37.5t-90.5 -37.5t-37.5 -90.5v-598l-163 -47q-51 -15 -76.5 -61t-11.5 -97q12 -42 46.5 -67.5t76.5 -25.5q15 0 35 5l93 26
v-671q0 -53 37.5 -90.5t90.5 -37.5h1024q53 0 90.5 37.5t37.5 90.5z" />
    <glyph glyph-name="manat-sign" unicode="MANAT&#x2d;SIGN" horiz-adv-x="1536" 
d="M1472 704q0 256 -164.5 451t-411.5 241v140q0 53 -37.5 90.5t-90.5 37.5t-90.5 -37.5t-37.5 -90.5v-140q-162 -30 -293.5 -128t-207 -246.5t-75.5 -317.5v-704q0 -53 37.5 -90.5t90.5 -37.5t90.5 37.5t37.5 90.5v704q0 149 90 266.5t230 160.5v-1131q0 -53 37.5 -90.5
t90.5 -37.5t90.5 37.5t37.5 90.5v1131q140 -43 230 -160.5t90 -266.5v-704q0 -53 37.5 -90.5t90.5 -37.5t90.5 37.5t37.5 90.5v704z" />
    <glyph glyph-name="mask-face" unicode="MASK&#x2d;FACE" horiz-adv-x="2560" 
d="M2466 1250q94 -94 94 -227.5t-92 -227.5q-29 -29 -86 -88q-81 -84 -123.5 -126.5t-123 -115.5t-137.5 -111.5t-144.5 -89t-168.5 -75t-186.5 -43t-218.5 -18.5q-158 0 -302.5 37.5t-239 79.5t-216 139t-173.5 147.5t-171 174.5q-58 59 -87 89q-92 94 -91.5 227.5
t94.5 227.5q85 85 206 92.5t216 -63.5h130q106 0 197 61l171 114q120 82 267 82t269 -82l169 -112q95 -63 201 -63h124q95 71 216 63.5t206 -92.5zM448 612v558q-58 48 -133.5 45.5t-129.5 -55.5q-56 -56 -57 -137t55 -138zM1600 448q27 0 45 19t15 45q0 26 -19 45t-45 19
h-636q-26 0 -45 -19t-19 -45t19 -45t45 -19h640zM1728 704q27 0 45 18.5t15 45.5q0 26 -19 44.5t-45 18.5h-892q-26 0 -45 -18.5t-19 -44.5t19 -45t45 -19h896zM1728 959q27 0 45 19.5t16 45.5q0 26 -19 44.5t-45 18.5h-893q-26 0 -45 -18.5t-19 -44.5t19 -45.5t45 -19.5
h896zM2377 885q56 57 55.5 138t-57.5 137q-53 53 -129.5 54.5t-133.5 -44.5v-13v-1v-540z" />
    <glyph glyph-name="mill-sign" unicode="MILL&#x2d;SIGN" horiz-adv-x="1536" 
d="M1536 960q0 180 -124.5 309t-303.5 137l70 219q16 50 -8.5 97t-74.5 64q-50 16 -97.5 -8t-63.5 -75l-128 -398q-32 -28 -38 -33q-133 136 -320 136q-113 0 -216 -58q-39 58 -104 58q-53 0 -90.5 -37.5t-37.5 -90.5v-1152q0 -53 37.5 -90.5t90.5 -37.5t90.5 37.5
t37.5 90.5v832q0 80 56 136t136 56t136 -56t56 -136v-168l-282 -881q-16 -50 8.5 -97t74.5 -64q19 -6 39 -6q41 0 75 24.5t47 64.5l69 214q39 -47 97 -47q53 0 90.5 37.5t37.5 90.5v620l126 392q32 12 66 12q80 0 136 -56t56 -136v-832q0 -53 37.5 -90.5t90.5 -37.5
t90.5 37.5t37.5 90.5v832z" />
    <glyph glyph-name="naira-sign" unicode="Naira&#x2d;sign" horiz-adv-x="1792" 
d="M1664 768q53 0 90.5 -37.5t37.5 -90.5t-37.5 -90.5t-90.5 -37.5h-128v-512q0 -42 -25.5 -76t-65.5 -46q-18 -6 -37 -6q-69 0 -107 57l-388 583h-401v-512q0 -53 -37.5 -90.5t-90.5 -37.5t-90.5 37.5t-37.5 90.5v512h-128q-53 0 -90.5 37.5t-37.5 90.5t37.5 90.5
t90.5 37.5h128v768q0 42 25.5 76t65.5 46q41 12 81 -2t63 -49l559 -839h230v768q0 53 37.5 90.5t90.5 37.5t90.5 -37.5t37.5 -90.5v-768h128zM512 768h230l-230 345v-345zM1280 423v89h-60z" />
    <glyph glyph-name="panorama" unicode="PANORAMA" horiz-adv-x="2560" 
d="M2313 1528q92 28 169.5 -30t77.5 -154v-1276q0 -98 -78 -156.5t-169 -30.5q-508 151 -1034.5 151t-1031.5 -151q-95 -28 -171 29t-76 154v1280q0 96 77.5 154t169.5 30q505 -152 1033 -152t1033 152zM512 896q53 0 90.5 37.5t37.5 90.5t-37.5 90.5t-90.5 37.5
t-90.5 -37.5t-37.5 -90.5t37.5 -90.5t90.5 -37.5zM1897 238q41 -7 64.5 27.5t0.5 69.5l-437 660q-19 29 -53 29q-35 0 -53 -32l-373 -556l-130 178q-18 26 -52 26t-52 -26l-196 -274q-25 -35 -2.5 -71t65.5 -29q297 48 601 48q308 0 617 -50z" />
    <glyph glyph-name="peseta-sign" unicode="PESETA&#x2d;SIGN" horiz-adv-x="1536" 
d="M1408 1152q53 0 90.5 -37.5t37.5 -90.5t-37.5 -90.5t-90.5 -37.5h-13q-45 -221 -221 -366.5t-406 -145.5h-384v-384q0 -53 -37.5 -90.5t-90.5 -37.5t-90.5 37.5t-37.5 90.5v896q-53 0 -90.5 37.5t-37.5 90.5t37.5 90.5t90.5 37.5v384q0 53 37.5 90.5t90.5 37.5h512
q230 0 406 -145.5t221 -366.5h13zM384 1408v-256h744q-40 114 -138.5 185t-221.5 71h-384zM768 640q123 0 221.5 71t138.5 185h-744v-256h384z" />
    <glyph glyph-name="peso-sign" unicode="PESO&#x2d;SIGN" horiz-adv-x="1792" 
d="M1600 896q53 0 90.5 -37.5t37.5 -90.5t-37.5 -90.5t-90.5 -37.5h-142q-89 -174 -257 -279t-369 -105h-320v-256q0 -53 -37.5 -90.5t-90.5 -37.5t-90.5 37.5t-37.5 90.5v640q-53 0 -90.5 37.5t-37.5 90.5t37.5 90.5t90.5 37.5v128q-53 0 -90.5 37.5t-37.5 90.5t37.5 90.5
t90.5 37.5v256q0 53 37.5 90.5t90.5 37.5h448q201 0 369 -105t257 -279h142q53 0 90.5 -37.5t37.5 -90.5t-37.5 -90.5t-90.5 -37.5h-67q3 -31 3 -64q0 -32 -3 -64h67zM512 1408v-128h633q-131 128 -313 128h-320zM512 1024v-128h762q6 42 6 64t-6 64h-762zM832 512
q181 0 312 128h-632v-128h320z" />
    <glyph glyph-name="plus-minus" unicode="PLUS&#x2d;MINUS" horiz-adv-x="1536" 
d="M1408 0q53 0 90.5 -38.5t37.5 -89.5t-37.5 -87.5t-90.5 -36.5h-1280q-54 0 -91 35.5t-37 88.5t37.5 90.5t90.5 37.5h1280zM192 960q-53 0 -90.5 37.5t-37.5 90.5t37.5 90.5t90.5 37.5h448v448q0 53 37.5 90.5t90.5 37.5t90.5 -37.5t37.5 -90.5v-448h448q53 0 90.5 -37.5
t37.5 -90.5t-37.5 -90.5t-90.5 -37.5h-448v-444q0 -51 -37.5 -88t-90.5 -37q-54 0 -91 36t-37 89v444h-448z" />
    <glyph glyph-name="rupiah-sign" unicode="Rupiah&#x2d;sign" 
d="M1024 1088q0 -173 -94.5 -315t-248.5 -211l206 -515q20 -50 -1 -98.5t-70 -67.5q-24 -9 -48 -9q-39 0 -71.5 21.5t-47.5 58.5l-224 560h-169v-512q0 -53 -37.5 -90.5t-90.5 -37.5t-90.5 37.5t-37.5 90.5v1536q0 53 37.5 90.5t90.5 37.5h320q117 0 223.5 -45.5t184 -123
t123 -184t45.5 -223.5zM448 768q132 0 226 94t94 226t-94 226t-226 94h-192v-640h192zM1568 1152q130 0 240.5 -64.5t175 -175t64.5 -240.5t-64.5 -240.5t-175 -175t-240.5 -64.5h-160v-320q0 -53 -37.5 -90.5t-90.5 -37.5t-90.5 37.5t-37.5 90.5v1152q0 53 37.5 90.5
t90.5 37.5h288zM1568 448q93 0 158.5 65.5t65.5 158.5t-65.5 158.5t-158.5 65.5h-160v-448h160z" />
    <glyph glyph-name="section" unicode="SECTION" horiz-adv-x="1024" 
d="M898 442q154 -132 119 -352q-17 -100 -76.5 -177t-155.5 -120q-107 -49 -250 -49q-69 0 -142 12q-95 15 -272 83l-38 15q-50 21 -72 68t-3 96q19 50 67.5 72t97.5 3l39 -15q148 -57 222 -69q153 -25 246 18q73 33 84 104q14 83 -40.5 126t-248.5 101l-52 16
q-161 50 -243 103q-215 138 -173 393q23 139 119 223q-154 133 -119 353q26 160 156 253q86 62 207 83t261 -2q87 -14 213 -60q49 -18 71.5 -66.5t4.5 -98.5q-18 -49 -66 -71.5t-98 -4.5q-104 38 -167 48q-184 30 -277 -36q-44 -31 -53 -86q-7 -33 -2 -60.5t28 -51.5
t74.5 -48t139.5 -51l50 -16q182 -55 268 -103q244 -138 200 -409q-23 -137 -119 -224zM259 829q-7 -33 -2 -60.5t28 -51.5t74.5 -48t139.5 -51q92 -28 114 -35q135 24 151 124q14 83 -40.5 126t-248.5 101q-59 18 -63 19q-137 -25 -153 -124z" />
    <glyph glyph-name="stairs" unicode="STAIRS" horiz-adv-x="2304" 
d="M2304 1536q0 53 -37.5 90.5t-90.5 37.5h-512q-53 0 -90.5 -37.5t-37.5 -90.5v-384h-384q-53 0 -90.5 -37.5t-37.5 -90.5v-384h-384q-53 0 -90.5 -37.5t-37.5 -90.5v-384h-384q-53 0 -90.5 -37.5t-37.5 -90.5t37.5 -90.5t90.5 -37.5h512q53 0 90.5 37.5t37.5 90.5v384h384
q53 0 90.5 37.5t37.5 90.5v384h384q53 0 90.5 37.5t37.5 90.5v384h384q53 0 90.5 37.5t37.5 90.5z" />
    <glyph glyph-name="timeline" unicode="TIMELINE" horiz-adv-x="2560" 
d="M2432 896q53 0 90.5 -37.5t37.5 -90.5t-37.5 -90.5t-90.5 -37.5h-1024v-283q86 -37 139 -116.5t53 -176.5q0 -133 -93.5 -226.5t-226.5 -93.5t-226.5 93.5t-93.5 226.5q0 97 53 176.5t139 116.5v283h-1024q-53 0 -90.5 37.5t-37.5 90.5t37.5 90.5t90.5 37.5h256v283
q-86 37 -139 116.5t-53 176.5q0 133 93.5 226.5t226.5 93.5t226.5 -93.5t93.5 -226.5q0 -97 -53 -176.5t-139 -116.5v-283h1280v283q-86 37 -139 116.5t-53 176.5q0 133 93.5 226.5t226.5 93.5t226.5 -93.5t93.5 -226.5q0 -97 -53 -176.5t-139 -116.5v-283h256zM2048 1600
q-53 0 -90.5 -37.5t-37.5 -90.5t37.5 -90.5t90.5 -37.5t90.5 37.5t37.5 90.5t-37.5 90.5t-90.5 37.5zM512 1600q-53 0 -90.5 -37.5t-37.5 -90.5t37.5 -90.5t90.5 -37.5t90.5 37.5t37.5 90.5t-37.5 90.5t-90.5 37.5zM1280 -64q53 0 90.5 37.5t37.5 90.5t-37.5 90.5
t-90.5 37.5t-90.5 -37.5t-37.5 -90.5t37.5 -90.5t90.5 -37.5z" />
    <glyph glyph-name="turkish-lira-sign" unicode="TURKISH&#x2d;LIRA&#x2d;SIGN" horiz-adv-x="1536" 
d="M1536 640q0 53 -37.5 90.5t-90.5 37.5t-90.5 -37.5t-37.5 -90.5q0 -104 -40.5 -198.5t-109.5 -163.5t-163.5 -109.5t-198.5 -40.5h-256v617l547 156q51 14 76.5 60.5t11.5 97.5t-60.5 77t-97.5 11l-477 -136v118l547 156q51 14 76.5 60.5t11.5 97.5t-60.5 77t-97.5 11
l-477 -136v141q0 53 -37.5 90.5t-90.5 37.5t-90.5 -37.5t-37.5 -90.5v-214l-163 -47q-51 -14 -76.5 -60.5t-11.5 -97.5q12 -42 46.5 -67.5t76.5 -25.5q15 0 35 5l93 27v-118l-163 -47q-51 -14 -76.5 -60.5t-11.5 -97.5q12 -42 46.5 -67.5t76.5 -25.5q15 0 35 5l93 27v-672
q0 -53 37.5 -90.5t90.5 -37.5h384q208 0 385 103t280 280t103 385z" />
    <glyph glyph-name="vault" unicode="VAULT" horiz-adv-x="2304" 
d="M896 512q133 0 226.5 93.5t93.5 226.5t-93.5 226.5t-226.5 93.5t-226.5 -93.5t-93.5 -226.5t93.5 -226.5t226.5 -93.5zM2048 1792q106 0 181 -75t75 -181v-1408q0 -106 -75 -181t-181 -75h-64l-64 -128h-256l-64 128h-896l-64 -128h-256l-64 128h-64q-106 0 -181 75
t-75 181v1408q0 106 75 181t181 75h1792zM896 192q174 0 321.5 86t233 233t85.5 321q0 130 -51 248.5t-136.5 204t-204 136.5t-248.5 51t-248.5 -51t-204 -136.5t-136.5 -204t-51 -248.5t51 -248.5t136.5 -204t204 -136.5t248.5 -51zM1920 908q57 21 92.5 69.5t35.5 110.5
q0 80 -56 136t-136 56t-136 -56t-56 -136q0 -62 35.5 -110.5t92.5 -69.5v-460q0 -26 19 -45t45 -19t45 19t19 45v460z" />
    <glyph glyph-name="martini-glass-empty" unicode="GLASS&#x2d;MARTINI" 
d="M2008 1561l-849 -855v-706h189q77 0 132.5 -56.5t55.5 -135.5q0 -26 -19 -45t-45 -19h-896q-26 0 -45 19t-19 45q0 80 56 136t136 56h192v705l-856 856q-31 31 -37.5 72t7.5 75.5t48 59t77 24.5h1778q43 0 77 -24.5t48 -59t7.5 -75.5t-37.5 -72zM1024 940l597 596h-1193z
" />
    <glyph glyph-name="music" unicode="MUSIC" 
d="M2044 324l4 1340q0 53 -37.5 90.5t-90.5 37.5q-18 0 -46 -6l-1276 -378q-37 -12 -63.5 -47.5t-26.5 -74.5v-925q-63 19 -128 19q-157 0 -268.5 -92t-111.5 -224q0 -134 109.5 -227t270.5 -93t273 93.5t115 226.5v832l1024 304v-583q-63 19 -128 19q-157 0 -268.5 -92
t-111.5 -224q0 -130 112 -223t268 -93t268 94t112 226z" />
    <glyph glyph-name="magnifying-glass" unicode="MAGNIFYING&#x2d;GLASS" 
d="M2001 17q47 -47 47 -113t-47 -113t-113 -47t-113 47l-479 478q-124 -84 -272.5 -119t-306.5 -14q-181 24 -335 124t-253 255t-122 336q-20 160 18 312.5t124.5 272.5t206.5 206.5t272.5 124.5t312.5 18q181 -23 336 -122t255 -253t124 -335q21 -158 -14.5 -306
t-119.5 -273zM316 960q0 -104 40.5 -198.5t109.5 -163.5t163.5 -109.5t198.5 -40.5t198.5 40.5t163.5 109.5t109.5 163.5t40.5 198.5t-40.5 198.5t-109.5 163.5t-163.5 109.5t-198.5 40.5t-198.5 -40.5t-163.5 -109.5t-109.5 -163.5t-40.5 -198.5z" />
    <glyph glyph-name="heart" unicode="HEART" 
d="M1888 710q110 114 145.5 268t-12.5 306t-169 257q-108 92 -246 115.5t-271 -21.5t-232 -147l-79 -81l-79 81q-99 102 -233 147t-272 21.5t-244 -115.5q-122 -105 -169.5 -257t-12 -306t145.5 -268l772 -799q38 -39 92 -39t92 39z" />
    <glyph glyph-name="star" unicode="STAR" horiz-adv-x="2304" 
d="M1267 1721q-23 46 -69 63.5t-92 0t-69 -63.5l-262 -530l-585 -85q-51 -7 -81.5 -45.5t-28.5 -87.5t39 -85l424 -412l-101 -582q-9 -51 19.5 -92.5t73 -52.5t93.5 10l524 275l524 -272q49 -21 93.5 -10t73 52.5t19.5 92.5l-100 582l423 409q37 36 39 85t-28.5 87.5
t-81.5 45.5l-585 85z" />
    <glyph glyph-name="user" unicode="User" horiz-adv-x="1792" 
d="M896 768q-212 0 -362 150t-150 362t150 362t362 150t362 -150t150 -362t-150 -362t-362 -150zM1099 576q141 0 269.5 -55t221 -147.5t147.5 -221t55 -269.5q0 -58 -40.5 -98.5t-98.5 -40.5h-1514q-58 0 -98.5 40.5t-40.5 98.5q0 141 55 269.5t147.5 221t221 147.5
t269.5 55h406z" />
    <glyph glyph-name="film" unicode="FILM" 
d="M1852 1664q82 0 137 -56t55 -136v-1408q0 -80 -56 -136t-136 -56h-1664q-77 0 -132.5 56.5t-55.5 135.5v1408q0 79 55.5 135.5t132.5 56.5h1664zM444 160l-3 192q0 14 -9.5 23t-22.5 9h-189q-14 0 -23 -9t-9 -23v-192q0 -14 9 -23t23 -9h192q14 0 23 9t9 23zM444 672h-3
v192q0 14 -9.5 23t-22.5 9h-189q-14 0 -23 -9t-9 -23v-192q0 -14 9 -23t23 -9h192q14 0 23 9t9 23zM444 1184l-3 192q0 14 -9.5 23t-22.5 9h-189q-14 0 -23 -9t-9 -23v-192q0 -14 9 -23t23 -9h192q14 0 23 9t9 23zM1404 192v384q0 26 -19 45t-45 19h-640q-26 0 -45 -19
t-19 -45v-384q0 -26 19 -45t45 -19h640q26 0 45 19t19 45zM1404 960v384q0 26 -19 45t-45 19h-640q-26 0 -45 -19t-19 -45v-384q0 -26 19 -45t45 -19h640q26 0 45 19t19 45zM1852 160h4v192q0 14 -9 23t-23 9h-188q-14 0 -23 -9t-9 -23v-192q0 -32 28 -32h188q14 0 23 9
t9 23zM1852 672v192q0 14 -9 23t-23 9h-188q-14 0 -23 -9t-9 -23v-192q0 -14 9 -23t23 -9h188q14 0 23 9t9 23zM1852 1184h-3v192q0 14 -9.5 23t-22.5 9h-189q-11 0 -19.5 -9.5t-8.5 -22.5v-192q0 -14 9 -23t23 -9h188q14 0 23 9t9 23zM1852 1184z" />
    <glyph glyph-name="table-cells-large" unicode="TABLE&#x2d;CELLS&#x2d;LARGE" 
d="M1792 1664q106 0 181 -75t75 -181v-1280q0 -106 -75 -181t-181 -75h-1536q-106 0 -181 75t-75 181v1280q0 106 75 181t181 75h1536zM256 1408v-512h640v512h-640zM256 128h640v512h-640v-512zM1792 128v512h-640v-512h640zM1792 896v512h-640v-512h640z" />
    <glyph glyph-name="table-cells" unicode="TABLE&#x2d;CELLS" 
d="M1792 1664q106 0 181 -75t75 -181v-1280q0 -106 -75 -181t-181 -75h-1536q-106 0 -181 75t-75 181v1280q0 106 75 181t181 75h1536zM1195 1408h-342v-256h342v256zM1195 896h-342v-256h342v256zM256 1408v-256h341v256h-341zM256 896v-256h341v256h-341zM256 128h341v256
h-341v-256zM853 128h342v256h-342v-256zM1792 128v256h-341v-256h341zM1792 640v256h-341v-256h341zM1792 1152v256h-341v-256h341z" />
    <glyph glyph-name="table-list" unicode="TABLE&#x2d;LIST" 
d="M1792 1664q106 0 181 -75t75 -181v-1280q0 -106 -75 -181t-181 -75h-1536q-106 0 -181 75t-75 181v1280q0 106 75 181t181 75h1536zM256 1408v-256h256v256h-256zM256 896v-256h256v256h-256zM256 128h256v256h-256v-256zM1792 128v256h-1024v-256h1024zM1792 640v256
h-1024v-256h1024zM1792 1152v256h-1024v-256h1024z" />
    <glyph glyph-name="check" unicode="CHECK" 
d="M1920 1280q0 54 -38 91t-90 37t-90 -38l-934 -933l-422 421q-38 38 -90 38t-90 -37t-38 -91q0 -52 38 -90l512 -512q38 -38 90 -38t90 38l1024 1024q38 38 38 90z" />
    <glyph glyph-name="xmark" unicode="CLOSE" horiz-adv-x="1280" 
d="M1242 346l-421 422l422 421q37 37 37 90t-37 91t-90 38t-91 -38l-422 -421l-422 422q-38 37 -91 37t-90 -37t-37 -90t37 -91l422 -422l-422 -421q-37 -37 -37 -90t37 -91q38 -38 91 -38t91 38l421 421l422 -421q38 -38 90 -38q53 0 90 37q38 37 38 90t-38 91z" />
    <glyph glyph-name="magnifying-glass-plus" unicode="Magnifying&#x2d;glass&#x2d;plus" 
d="M2001 17q47 -47 47 -113t-47 -113t-113 -47t-113 47l-479 479q-125 -84 -273 -119.5t-306 -14.5q-181 24 -335 124t-253 255.5t-122 336.5q-17 133 7.5 262.5t82.5 237t147 196.5t197 147t237 82.5t263 7.5q181 -23 336 -122t255 -253t124 -335q21 -158 -14.5 -306
t-119.5 -273zM1152 864q40 0 68 28t28 68t-29 68t-71 28h-224v224q0 39 -29.5 67.5t-66.5 28.5t-64.5 -28.5t-27.5 -67.5v-224h-228q-37 0 -64.5 -28.5t-27.5 -67.5q0 -40 27 -68t65 -28h228v-224q0 -40 28 -68t68 -28q37 0 64.5 28.5t27.5 67.5v224h228z" />
    <glyph glyph-name="magnifying-glass-minus" unicode="MAGNIFYING&#x2d;GLASS&#x2d;MINUS" 
d="M2001 17q47 -47 47 -113t-47 -113t-113 -47t-113 47l-479 479q-125 -84 -273 -119.5t-306 -14.5q-181 24 -335 124t-253 255.5t-122 336.5q-17 133 7.5 262.5t82.5 237t147 196.5t197 147t237 82.5t263 7.5q181 -23 336 -122t255 -253t124 -335q21 -158 -14.5 -306
t-119.5 -273zM1152 864q40 0 68 28t28 68t-29 68t-71 28h-640q-37 0 -64.5 -28.5t-27.5 -67.5q0 -40 27 -68t65 -28h644z" />
    <glyph glyph-name="power-off" unicode="POWER&#x2d;OFF" 
d="M1024 640q-53 0 -90.5 37.5t-37.5 90.5v896q0 53 37.5 90.5t90.5 37.5t90.5 -37.5t37.5 -90.5v-896q0 -53 -37.5 -90.5t-90.5 -37.5zM1615 1525q176 -138 272.5 -336t96.5 -421q0 -195 -76 -372.5t-205 -306.5t-306.5 -205t-372.5 -76t-372.5 76t-306.5 205t-205 306.5
t-76 372.5q0 223 96.5 421t272.5 336q42 32 94.5 26t85.5 -48t26.5 -94.5t-48.5 -85.5q-129 -101 -200 -246.5t-71 -308.5q0 -191 94.5 -353t256.5 -256.5t353 -94.5t353 94.5t256.5 256.5t94.5 353q0 163 -71 308.5t-200 246.5q-42 33 -48.5 85.5t26.5 94.5t85.5 48
t94.5 -26z" />
    <glyph glyph-name="signal" unicode="SIGNAL&#x2d;PERFECT" horiz-adv-x="2304" 
d="M2176 1792q53 0 90.5 -36.5t37.5 -87.5v-1800q0 -51 -37.5 -87.5t-90.5 -36.5t-90.5 37.5t-37.5 90.5v1796q0 51 37.5 87.5t90.5 36.5zM640 640q53 0 90.5 -36.5t37.5 -87.5v-648q0 -51 -37.5 -87.5t-90.5 -36.5t-90.5 38.5t-37.5 93.5v640q0 51 37.5 87.5t90.5 36.5z
M128 256q53 0 90.5 -36.5t37.5 -87.5v-260q0 -52 -40.5 -90t-91.5 -38t-87.5 38.5t-36.5 93.5v256q0 51 37.5 87.5t90.5 36.5zM1664 1408q53 0 90.5 -36.5t37.5 -87.5v-1416q0 -51 -37.5 -87.5t-90.5 -36.5t-90.5 37.5t-37.5 90.5v1412q0 51 37.5 87.5t90.5 36.5zM1152 1024
q53 0 90.5 -36.5t37.5 -87.5v-1032q0 -51 -37.5 -87.5t-90.5 -36.5t-90.5 38.5t-37.5 93.5v1024q0 51 37.5 87.5t90.5 36.5z" />
    <glyph glyph-name="gear" unicode="COG" 
d="M1998 464q0 -35 -47 -130.5t-109.5 -180.5t-99.5 -85q-18 0 -33 9l-186 108q-106 -91 -243 -140v-216q0 -47 -54 -63q-105 -22 -206 -22q-97 0 -202 22q-22 4 -36 22t-14 41v216q-137 49 -243 140l-186 -108q-15 -9 -33 -9q-40 0 -103.5 88t-108 183t-44.5 125
q0 36 33 56l186 108q-13 73 -13 140q0 65 13 140l-186 108q-33 20 -33 56q0 35 47 130.5t109.5 180.5t99.5 85q18 0 33 -9l187 -107q108 91 242 139v216q0 23 14 41t36 22q105 22 206 22t206 -22q22 -4 36 -22t14 -41v-216q137 -49 243 -140l186 108q15 9 33 9
q40 0 103.5 -88t108 -183t44.5 -125q0 -36 -33 -56l-186 -108q13 -73 13 -140q0 -65 -13 -140l186 -108q33 -20 33 -56zM1024 448q132 0 226 94t94 226t-94 226t-226 94t-226 -94t-94 -226t94 -226t226 -94z" />
    <glyph glyph-name="home" unicode="HOME&#x2d;LG" horiz-adv-x="2304" 
d="M2304 768q0 61 -51 96l-1020 893q-35 31 -85 31q-48 0 -84 -31l-1020 -893q-44 -39 -44 -96q0 -53 37.5 -90.5t90.5 -37.5h128v-768q0 -53 37.5 -90.5t90.5 -37.5h384q53 0 90.5 37.5t37.5 90.5v448q0 24 19 42t45 18h384q27 0 45.5 -17t18.5 -43v-448q0 -54 35.5 -91
t88.5 -37h384q53 0 90.5 37.5t37.5 90.5v768l128 4q56 0 94 36t38 88z" />
    <glyph glyph-name="clock" unicode="Clock" 
d="M1020 1792q210 0 399.5 -81t326.5 -218t216.5 -326.5t78.5 -398.5q0 -139 -36.5 -272t-102 -245.5t-160 -207t-206 -160t-244.5 -102.5t-272 -37q-209 0 -398.5 81t-326.5 218t-218 326.5t-81 398.5t81 398.5t218 326.5t326.5 218t398.5 81zM1357 454q24 32 18.5 71.5
t-37.5 63.5l-218 163v432q0 40 -28 68t-68 28t-68 -28t-28 -68v-480q0 -46 35 -77l256 -192q25 -19 57 -19q52 0 81 38z" />
    <glyph glyph-name="road" unicode="ROAD" horiz-adv-x="2304" 
d="M2293 128q33 -94 -25 -175t-160 -81h-828v320q0 26 -19 45t-45 19h-128q-26 0 -45 -19t-19 -45v-320h-832q-65 0 -116 38.5t-67 95.5t3 122l502 1408q20 57 70 92.5t111 35.5h329v-320q0 -26 19 -45t45 -19h128q26 0 45 19t19 45v320h329q61 0 111 -35.5t70 -92.5z
M1280 576v384q0 26 -19 45t-45 19h-128q-26 0 -45 -19t-19 -45v-384q0 -26 19 -45t45 -19h128q26 0 45 19t19 45z" />
    <glyph glyph-name="download" unicode="DOWNLOAD" 
d="M1920 384q53 0 90.5 -37.5t37.5 -90.5v-384q0 -53 -37.5 -90.5t-90.5 -37.5h-1792q-53 0 -90.5 37.5t-37.5 90.5v384q0 53 37.5 90.5t90.5 37.5h534l181 -181q75 -75 181 -75t181 75l181 181h534zM1728 -32q40 0 68 28t28 68t-28 68t-68 28t-68 -28t-28 -68t28 -68
t68 -28zM934 294l-513 511q-37 37 -37 90t37 91t90 38t91 -38l294 -293v971q0 53 37.5 90.5t90.5 37.5t90.5 -37.5t37.5 -90.5v-971l293 294q37 37 90 37t91 -37t38 -90t-38 -91l-512 -512q-38 -38 -90 -38t-90 38z" />
    <glyph glyph-name="inbox" unicode="INBOX" 
d="M1788 1567l245 -995q15 -60 15 -122v-386q0 -80 -56 -136t-136 -56h-1664q-80 0 -136 56t-56 136v386q0 62 15 122l245 999q11 43 45.5 70t78.5 27h1280q44 0 78.5 -29t45.5 -72zM1408 384l128 256h220l-192 768h-1080l-192 -768h220l128 -256h768z" />
    <glyph glyph-name="arrow-rotate-right" unicode="Arrow&#x2d;rotate&#x2d;forward" 
d="M1984 1600q0 53 -37.5 90.5t-90.5 37.5t-90.5 -37.5t-37.5 -90.5v-281q-127 162 -312 253.5t-392 91.5q-182 0 -348 -71t-286 -191t-191 -286t-71 -348t71 -348t191 -286t286 -191t348 -71q296 0 536 180q42 32 49.5 84t-23.5 95q-32 42 -84 49.5t-95 -23.5
q-169 -128 -384 -128q-130 0 -248 50.5t-204 136.5t-136.5 204t-50.5 248t50.5 248t136.5 204t204 136.5t248 50.5q150 0 285.5 -67.5t225.5 -187.5h-254q-53 0 -90.5 -37.5t-37.5 -90.5t37.5 -90.5t90.5 -37.5h576q53 0 90.5 37.5t37.5 90.5v576z" />
    <glyph glyph-name="arrows-rotate" unicode="ARROWS&#x2d;ROTATE" 
d="M1856 1728q53 0 90.5 -37.5t37.5 -90.5v-576q0 -53 -37.5 -90.5t-90.5 -37.5h-512q-53 0 -90.5 37.5t-37.5 90.5t37.5 90.5t90.5 37.5h178q-86 120 -217 188t-281 68q-200 0 -360.5 -117t-221.5 -307q-17 -50 -63.5 -74t-97.5 -8q-50 17 -74.5 64t-8.5 97q87 269 315 435
t511 166q212 0 397.5 -96t306.5 -264v296q0 53 37.5 90.5t90.5 37.5zM1767 634q50 -14 74 -62.5t5 -98.5q-87 -269 -315 -435t-511 -166q-210 0 -394.5 96t-305.5 264v-296q0 -53 -37.5 -90.5t-90.5 -37.5t-90.5 37.5t-37.5 90.5v576q0 53 37.5 90.5t90.5 37.5h512
q53 0 90.5 -37.5t37.5 -90.5t-37.5 -90.5t-90.5 -37.5h-178q86 -120 217 -188t281 -68q200 0 360.5 116.5t221.5 306.5q17 51 63.5 75t97.5 8z" />
    <glyph glyph-name="rectangle-list" unicode="LIST&#x2d;ALT" horiz-adv-x="2304" 
d="M2048 1664q106 0 181 -75t75 -181v-1280q0 -106 -75 -181t-181 -75h-1792q-106 0 -181 75t-75 181v1280q0 106 75 181t181 75h1792zM512 256q53 0 90.5 37.5t37.5 90.5t-37.5 90.5t-90.5 37.5t-90.5 -37.5t-37.5 -90.5t37.5 -90.5t90.5 -37.5zM512 640q53 0 90.5 37.5
t37.5 90.5t-37.5 90.5t-90.5 37.5t-90.5 -37.5t-37.5 -90.5t37.5 -90.5t90.5 -37.5zM512 1024q53 0 90.5 37.5t37.5 90.5t-37.5 90.5t-90.5 37.5t-90.5 -37.5t-37.5 -90.5t37.5 -90.5t90.5 -37.5zM1920 384q0 40 -28 68t-68 28h-964q-37 0 -64.5 -28.5t-27.5 -67.5
q0 -40 27 -68t65 -28h964q40 0 68 28t28 68zM1920 772q0 38 -28 65t-68 27h-964q-37 0 -64.5 -28.5t-27.5 -67.5q0 -40 27 -68t65 -28h964q40 0 68 29t28 71zM1920 1156q0 38 -28 65t-68 27h-964q-38 0 -65 -28t-27 -68t27 -68t65 -28h964q40 0 68 29t28 71z" />
    <glyph glyph-name="lock" unicode="Lock" horiz-adv-x="1792" 
d="M1536 900q105 0 180.5 -76t75.5 -180v-640q0 -106 -75 -181t-181 -75h-1280q-106 0 -181 75t-75 181v640q0 106 75 181t181 75l64 -4v320q0 117 45.5 223.5t123 184t184 123t223.5 45.5t223.5 -45.5t184 -123t123 -184t45.5 -223.5v-320zM576 1216v-320h640v320
q0 132 -94 226t-226 94t-226 -94t-94 -226z" />
    <glyph glyph-name="flag" unicode="FLAG" 
d="M256 -192v1856q0 53 -37.5 90.5t-90.5 37.5t-90.5 -37.5t-37.5 -90.5v-1856q0 -26 19 -45t45 -19h128q26 0 45 19t19 45zM1905 1792q60 0 101.5 -33t41.5 -90v-1205q0 -37 -23 -68.5t-63 -46.5q-235 -93 -444 -93q-98 0 -207 20t-190.5 43.5t-190.5 43.5t-207 20
q-160 0 -339 -56v1402q200 62 357 62q92 0 185 -20t156.5 -44t149 -44t165.5 -20q184 0 431 112q35 17 77 17z" />
    <glyph glyph-name="headphones" unicode="Headphones" 
d="M2048 640q-4 1 -4 3q1 207 -79.5 396t-217.5 326t-326 218t-397 81t-397.5 -81t-327 -218.5t-218.5 -327t-81 -397.5l4 -448q0 -133 92 -226.5t224 -93.5q80 0 136 56t56 136v512q0 80 -56 136t-136 56q-57 0 -121 -27q18 153 90.5 288.5t181.5 232.5t253 153t300 56
t300 -56t253 -153t181.5 -232.5t90.5 -288.5q-64 27 -121 27q-80 0 -136 -56t-56 -136v-512q0 -80 56 -136t136 -56q131 0 224 93.5t96 226.5v448z" />
    <glyph glyph-name="volume-off" unicode="Volume&#x2d;off" horiz-adv-x="1280" 
d="M1280 1536q0 39 -20.5 71.5t-54.5 41.5q-34 16 -72 10t-66 -31l-540 -480h-335q-80 0 -136 -54.5t-56 -133.5v-388q0 -77 56.5 -132.5t135.5 -55.5h335l540 -480q37 -32 85 -32q26 0 53 15q34 16 54.5 47.5t20.5 69.5v1532z" />
    <glyph glyph-name="volume-low" unicode="VOLUME&#x2d;DOWN" horiz-adv-x="1792" 
d="M1650 1064q68 -56 105 -133t37 -163t-37 -163t-105 -133q-28 -22 -60 -22q-46 0 -75 35q-25 31 -21 70.5t35 65.5q71 58 71 147q0 90 -71 148q-31 26 -35 65t21 70t64.5 34.5t70.5 -21.5zM1205 1653q34 -12 54.5 -45.5t20.5 -71.5v-1536q0 -38 -20.5 -69.5t-54.5 -47.5
q-23 -11 -53 -11q-53 0 -85 43l-540 480h-335q-80 0 -136 54.5t-56 133.5v381q0 77 56.5 132.5t135.5 55.5h335l540 480q28 25 66 31t72 -10z" />
    <glyph glyph-name="volume-high" unicode="VOLUME&#x2d;HIGH" horiz-adv-x="2560" 
d="M1650 1064q142 -117 142 -292q0 -88 -37 -165.5t-105 -130.5q-28 -22 -60 -22q-46 0 -75 35q-25 31 -21 70t35 65q71 58 71 148q0 85 -71 143q-31 26 -35 65t21 70t64.5 35t70.5 -21zM1892 1359q136 -111 210 -262.5t74 -324.5q0 -174 -74 -329t-209 -263
q-25 -21 -61 -21q-46 0 -75 35q-25 31 -21 70t35 65q101 86 157 202t56 241q0 126 -56 242.5t-157 196.5q-31 26 -35 65t21 70t64.5 34.5t70.5 -21.5zM2138 1658q202 -166 312 -395.5t110 -490.5q0 -262 -110.5 -495.5t-311.5 -398.5q-26 -22 -61 -22q-48 0 -75 39
q-25 31 -21 70t35 65q167 137 259.5 332t92.5 410q0 214 -92 407.5t-260 330.5q-31 26 -35 65t21 70t65 34.5t71 -21.5zM1205 1652q34 -16 54.5 -47t20.5 -69v-1536q0 -38 -20.5 -69t-54.5 -47q-23 -11 -53 -11q-48 0 -85 32l-540 479h-335q-80 0 -136 56t-56 136v384
q0 80 56 136t136 56h335l540 479q29 25 66 31t72 -10z" />
    <glyph glyph-name="qrcode" unicode="Qrcode" horiz-adv-x="1792" 
d="M640 1664q53 0 90.5 -37.5t37.5 -90.5v-512q0 -53 -37.5 -90.5t-90.5 -37.5h-512q-53 0 -90.5 37.5t-37.5 90.5v512q0 53 37.5 90.5t90.5 37.5h512zM512 1152v256h-256v-256h256zM640 640q53 0 90.5 -37.5t37.5 -90.5v-512q0 -53 -37.5 -90.5t-90.5 -37.5h-512
q-53 0 -90.5 37.5t-37.5 90.5v512q0 53 37.5 90.5t90.5 37.5h512zM512 128v256h-256v-256h256zM1664 1664q53 0 90.5 -37.5t37.5 -90.5v-512q0 -53 -37.5 -90.5t-90.5 -37.5h-512q-53 0 -90.5 37.5t-37.5 90.5v512q0 53 37.5 90.5t90.5 37.5h512zM1536 1152v256h-256v-256
h256zM1408 -128v128h128v-128h-128zM1664 512v128h128v-512h-384v128h-128v-384h-256v768h384v-128h256zM1664 -128v128h128v-128h-128z" />
    <glyph glyph-name="barcode" unicode="BARCODE" 
d="M800 1664q40 0 68 -28t28 -68v-1600q0 -40 -28 -68t-68 -28h-68q-37 0 -64.5 29t-27.5 71v1600q0 37 28.5 64.5t67.5 27.5h64zM444 1664q28 0 46 -17.5t18 -42.5v-1672q0 -24 -20 -42t-44 -18q-25 0 -44 20t-16 48v1664q0 25 17 42.5t43 17.5zM160 1664q40 0 68 -28
t28 -68v-1600q0 -40 -28 -68t-68 -28h-68q-37 0 -64.5 29t-27.5 71v1600q0 37 28.5 64.5t67.5 27.5h64zM1952 1664q40 0 68 -28t28 -68v-1600q0 -40 -28 -68t-68 -28h-64q-40 0 -68 28t-28 68v1600q0 40 28 68t68 28h64zM1600 1664q26 0 45 -19t19 -45v-1664q0 -26 -19 -45
t-45 -19t-45 19t-19 45v1664q0 26 19 45t45 19zM1184 1664q40 0 68 -28t28 -68v-1600q0 -40 -28 -68t-68 -28h-64q-40 0 -68 28t-28 68v1600q0 40 28 68t68 28h64z" />
    <glyph glyph-name="tag" unicode="Tag" horiz-adv-x="1792" 
d="M0 1552v-747q0 -38 19.5 -85t46.5 -74l708 -708q65 -65 158.5 -65t158.5 65l635 635q65 65 65 158.5t-65 158.5l-708 708q-27 27 -74 46.5t-85 19.5h-747q-46 0 -79 -33t-33 -79zM320 1216q0 53 37.5 90.5t90.5 37.5t90.5 -37.5t37.5 -90.5t-37.5 -90.5t-90.5 -37.5
t-90.5 37.5t-37.5 90.5z" />
    <glyph glyph-name="tags" unicode="TAGS" horiz-adv-x="2304" 
d="M2146 1109q76 -76 117 -174.5t41 -205.5t-40.5 -205t-116.5 -174l-447 -450q-28 -28 -68 -28q-38 0 -68 28q-28 28 -28 67t28 68l447 450q101 101 101 244q0 142 -101 243l-542 527q-29 28 -29.5 67.5t27.5 68.5t67.5 29.5t68.5 -27.5zM1854 890q66 -66 66 -158.5
t-66 -158.5l-635 -635q-66 -65 -159 -65t-158 65l-708 708q-27 27 -46.5 74t-19.5 85v747q0 46 33 79t79 33h747q38 0 85 -19.5t74 -46.5zM576 1088q53 0 90.5 37.5t37.5 90.5t-37.5 90.5t-90.5 37.5t-90.5 -37.5t-37.5 -90.5t37.5 -90.5t90.5 -37.5z" />
    <glyph glyph-name="book" unicode="BOOK" horiz-adv-x="1792" 
d="M1792 352q0 -31 -18 -55.5t-46 -34.5v-268q28 -10 46 -34.5t18 -55.5v-64q0 -40 -28 -68t-68 -28h-1312q-159 0 -271.5 112.5t-112.5 271.5v1280q0 159 112.5 271.5t271.5 112.5h1312q40 0 68 -28t28 -68v-1344zM512 1216q0 -26 19 -45t45 -19h768q26 0 45 19t19 45
q0 27 -19.5 45.5t-48.5 18.5h-768q-24 0 -42 -19t-18 -45zM512 960q0 -26 19 -45t45 -19h768q26 0 45 19t19 45q0 27 -19.5 45.5t-48.5 18.5h-768q-24 0 -42 -19t-18 -45zM256 128q0 -53 37.5 -90.5t90.5 -37.5h1152v256h-1152q-53 0 -90.5 -37.5t-37.5 -90.5z" />
    <glyph glyph-name="bookmark" unicode="Bookmark" horiz-adv-x="1536" 
d="M1536 1600q0 80 -56 136t-136 56h-1152q-80 0 -136 -56t-56 -136v-1856l768 448l768 -448v1856z" />
    <glyph glyph-name="print" unicode="PRINT" 
d="M1792 1024q106 0 181 -75t75 -181v-384q0 -53 -37.5 -90.5t-90.5 -37.5h-128v-384q0 -53 -37.5 -90.5t-90.5 -37.5h-1280q-53 0 -90.5 37.5t-37.5 90.5v384h-128q-53 0 -90.5 37.5t-37.5 90.5v384q0 106 75 181t181 75h1536zM1536 0v384h-1024v-384h1024zM1728 608
q40 0 68 28t28 68t-28 68t-68 28t-68 -28t-28 -68t28 -68t68 -28zM512 1536v-384h-256v512q0 53 37.5 90.5t90.5 37.5h1099q53 0 91 -38l180 -181q38 -38 38 -90v-331h-256v278l-106 106h-918z" />
    <glyph glyph-name="camera" unicode="CAMERA&#x2d;ALT" 
d="M1856 1408q80 0 136 -56t56 -136v-1152q0 -80 -56 -136t-136 -56h-1664q-80 0 -136 56t-56 136v1152q0 80 56 136t136 56h352l49 132q21 56 70.5 90t109.5 34h502q60 0 109 -34t70 -90l50 -132h352zM1024 256q159 0 271.5 112.5t112.5 271.5t-112.5 271.5t-271.5 112.5
t-271.5 -112.5t-112.5 -271.5t112.5 -271.5t271.5 -112.5z" />
    <glyph glyph-name="font" unicode="FONT" horiz-adv-x="1792" 
d="M1664 128q53 0 90.5 -37.5t37.5 -90.5t-37.5 -90.5t-90.5 -37.5h-384q-53 0 -90.5 37.5t-37.5 90.5t37.5 90.5t90.5 37.5l-68 192h-639l-68 -192h7q53 0 90.5 -37.5t37.5 -90.5t-37.5 -90.5t-90.5 -37.5h-384q-53 0 -90.5 37.5t-37.5 90.5t37.5 90.5t90.5 37.5h103
l542 1453q14 37 47 60t73 23t72.5 -22.5t46.5 -60.5l549 -1453h103zM673 576h446l-223 596z" />
    <glyph glyph-name="bold" unicode="BOLD" horiz-adv-x="1536" 
d="M1284 822q115 -69 183.5 -185t68.5 -253q0 -104 -40.5 -198.5t-109.5 -163.5t-163.5 -109.5t-198.5 -40.5h-896q-53 0 -90.5 37.5t-37.5 90.5t37.5 90.5t90.5 37.5h64v1280h-64q-53 0 -90.5 37.5t-37.5 90.5t37.5 90.5t90.5 37.5h768q104 0 198.5 -40.5t163.5 -109.5
t109.5 -163.5t40.5 -198.5q0 -185 -124 -330zM448 1408v-512h448q106 0 181 75t75 181t-75 181t-181 75h-448zM1024 128q105 0 180.5 78t75.5 182t-75 178t-181 74h-576v-512h576z" />
    <glyph glyph-name="italic" unicode="ITALIC" horiz-adv-x="1536" 
d="M1536 1536q0 53 -37.5 90.5t-90.5 37.5h-768q-53 0 -90.5 -37.5t-37.5 -90.5t37.5 -90.5t90.5 -37.5h256l-533 -1280h-235q-53 0 -90.5 -37.5t-37.5 -90.5t37.5 -90.5t90.5 -37.5h768q53 0 90.5 37.5t37.5 90.5t-37.5 90.5t-90.5 37.5h-256l533 1280h235q53 0 90.5 37.5
t37.5 90.5z" />
    <glyph glyph-name="text-height" unicode="TEXT&#x2d;HEIGHT" horiz-adv-x="2304" 
d="M1152 1664q53 0 90.5 -37.5t37.5 -90.5v-256q0 -53 -37.5 -90.5t-90.5 -37.5t-90.5 37.5t-37.5 90.5v128h-256v-1280h128q53 0 90.5 -37.5t37.5 -90.5t-37.5 -90.5t-90.5 -37.5h-512q-53 0 -90.5 37.5t-37.5 90.5t37.5 90.5t90.5 37.5h128v1280h-256v-128
q0 -53 -37.5 -90.5t-90.5 -37.5t-90.5 37.5t-37.5 90.5v256q0 53 37.5 90.5t90.5 37.5h1024zM2086 346q38 38 90 38t90 -38t38 -91t-38 -90l-256 -256q-37 -37 -90 -37t-90 37l-256 256q-38 37 -38 90t38 91t90 38t90 -38l38 -37v918l-38 -37q-38 -38 -91 -38t-90 38t-37 91
t37 90l256 256q37 37 90 37t91 -37l256 -256q38 -37 38 -90t-38 -91t-90 -38q-53 0 -90 37l-38 38v-918z" />
    <glyph glyph-name="text-width" unicode="TEXT&#x2d;WIDTH" horiz-adv-x="1792" 
d="M1664 1664q53 0 90.5 -37.5t37.5 -90.5v-252q0 -53 -37.5 -90.5t-90.5 -37.5t-90.5 37.5t-37.5 90.5v128h-512v-512h64q54 0 91 -36t37 -89t-37.5 -90.5t-90.5 -37.5h-384q-53 0 -90.5 38.5t-37.5 89.5t37.5 88t90.5 37h64v512h-512v-128q0 -53 -37.5 -90.5t-90.5 -37.5
t-90.5 37.5t-37.5 90.5v252q0 53 37.5 90.5t90.5 37.5h1536zM1498 602l256 -256q38 -38 38 -91t-38 -90l-256 -256q-37 -37 -90 -37q-54 0 -91 37t-37 90t37 91l38 38h-918l37 -38q38 -38 38 -91t-38 -90q-37 -37 -90 -37t-91 38l-256 256q-37 38 -37 91t37 90l256 256
q37 37 90 37t91 -37t38 -90t-38 -91l-37 -38h918l-38 37q-37 37 -37 90t37 91t90 38t91 -38z" />
    <glyph glyph-name="align-left" unicode="ALIGN&#x2d;LEFT" horiz-adv-x="1792" 
d="M1664 128q52 0 90 -40.5t38 -91.5t-37.5 -87.5t-90.5 -36.5h-1536q-53 0 -90.5 37.5t-37.5 90.5t37.5 90.5t90.5 37.5h1536zM128 896q-53 0 -90.5 37.5t-37.5 90.5t37.5 90.5t90.5 37.5h1536q52 0 90 -40.5t38 -91.5t-37.5 -87.5t-90.5 -36.5h-1536zM128 1408
q-53 0 -90.5 37.5t-37.5 90.5t37.5 90.5t90.5 37.5h896q52 0 90 -40.5t38 -91.5t-37.5 -87.5t-90.5 -36.5h-896zM128 384q-53 0 -90.5 37.5t-37.5 90.5t37.5 90.5t90.5 37.5h896q52 0 90 -40.5t38 -91.5t-37.5 -87.5t-90.5 -36.5h-896z" />
    <glyph glyph-name="align-center" unicode="ALIGN&#x2d;CENTER" horiz-adv-x="1792" 
d="M1664 1152q53 0 90.5 -37.5t37.5 -90.5t-38.5 -90.5t-93.5 -37.5h-1536q-51 0 -87.5 37.5t-36.5 90.5t36.5 90.5t87.5 37.5h1540zM1664 128q53 0 90.5 -37.5t37.5 -90.5t-38.5 -90.5t-93.5 -37.5h-1536q-51 0 -87.5 37.5t-36.5 90.5t36.5 90.5t87.5 37.5h1540zM508 1408
q-51 0 -87.5 37.5t-36.5 90.5t36.5 90.5t87.5 37.5h772q53 0 90.5 -37.5t37.5 -90.5t-38.5 -90.5t-93.5 -37.5h-768zM1280 384h-772q-51 0 -87.5 37.5t-36.5 90.5t36.5 90.5t87.5 37.5h772q53 0 90.5 -37.5t37.5 -90.5t-37.5 -90.5t-90.5 -37.5z" />
    <glyph glyph-name="align-right" unicode="ALIGN&#x2d;RIGHT" horiz-adv-x="1792" 
d="M0 0q0 53 37.5 90.5t90.5 37.5h1536q52 0 90 -40.5t38 -91.5t-37.5 -87.5t-90.5 -36.5h-1536q-53 0 -90.5 37.5t-37.5 90.5zM1792 1024q0 -53 -37.5 -90.5t-90.5 -37.5h-1536q-53 0 -90.5 37.5t-37.5 90.5t37.5 90.5t90.5 37.5h1536q53 0 90.5 -37.5t37.5 -90.5z
M1792 1536q0 -53 -37.5 -90.5t-90.5 -37.5h-896q-53 0 -90.5 37.5t-37.5 90.5t37.5 90.5t90.5 37.5h896q53 0 90.5 -37.5t37.5 -90.5zM1792 512q0 -53 -37.5 -90.5t-90.5 -37.5h-896q-53 0 -90.5 37.5t-37.5 90.5t37.5 90.5t90.5 37.5h896q53 0 90.5 -37.5t37.5 -90.5z" />
    <glyph glyph-name="align-justify" unicode="ALIGN&#x2d;JUSTIFY" horiz-adv-x="1792" 
d="M1664 128q53 0 90.5 -37.5t37.5 -90.5t-38.5 -90.5t-93.5 -37.5h-1536q-51 0 -87.5 37.5t-36.5 90.5t36.5 90.5t87.5 37.5h1540zM1664 640q53 0 90.5 -37.5t37.5 -90.5t-38.5 -90.5t-93.5 -37.5h-1536q-51 0 -87.5 37.5t-36.5 90.5t36.5 90.5t87.5 37.5h1540zM1664 1152
q53 0 90.5 -37.5t37.5 -90.5t-38.5 -90.5t-93.5 -37.5h-1536q-51 0 -87.5 37.5t-36.5 90.5t36.5 90.5t87.5 37.5h1540zM1664 1664q53 0 90.5 -37.5t37.5 -90.5t-38.5 -90.5t-93.5 -37.5h-1536q-51 0 -87.5 37.5t-36.5 90.5t36.5 90.5t87.5 37.5h1540z" />
    <glyph glyph-name="list" unicode="List&#x2d;squares" 
d="M320 1600q26 0 45 -19t19 -45v-256q0 -26 -19 -45t-45 -19h-256q-26 0 -45 19t-19 45v256q0 26 19 45t45 19h256zM320 960q26 0 45 -19t19 -45v-256q0 -26 -19 -45t-45 -19h-256q-26 0 -45 19t-19 45v256q0 26 19 45t45 19h256zM320 320q26 0 45 -19t19 -45v-256
q0 -26 -19 -45t-45 -19h-256q-26 0 -45 19t-19 45v256q0 26 19 45t45 19h256zM768 1280q-52 0 -90 40.5t-38 91.5t37.5 87.5t90.5 36.5h1152q52 0 90 -40.5t38 -91.5t-37.5 -87.5t-90.5 -36.5h-1152zM1920 256q53 0 90.5 -37.5t37.5 -90.5t-37.5 -90.5t-90.5 -37.5h-1152
q-53 0 -90.5 37.5t-37.5 90.5t37.5 90.5t90.5 37.5h1152zM1920 896q53 0 90.5 -37.5t37.5 -90.5t-37.5 -90.5t-90.5 -37.5h-1152q-53 0 -90.5 37.5t-37.5 90.5t37.5 90.5t90.5 37.5h1152z" />
    <glyph glyph-name="outdent" unicode="DEDENT" horiz-adv-x="1792" 
d="M407 399l-384 320q-23 18 -23 49t23 49l384 320q18 15 41 15q14 0 27 -6q37 -18 37 -58v-640q0 -41 -37 -58t-68 9zM1664 128q53 0 90.5 -37.5t37.5 -90.5t-37.5 -90.5t-90.5 -37.5h-1536q-53 0 -90.5 37.5t-37.5 90.5t37.5 90.5t90.5 37.5h1536zM128 1408
q-53 0 -90.5 37.5t-37.5 90.5t37.5 90.5t90.5 37.5h1536q53 0 90.5 -37.5t37.5 -90.5t-37.5 -90.5t-90.5 -37.5h-1536zM1664 640q53 0 90.5 -37.5t37.5 -90.5t-37.5 -90.5t-90.5 -37.5h-768q-53 0 -90.5 37.5t-37.5 90.5t37.5 90.5t90.5 37.5h768zM1664 1152
q53 0 90.5 -37.5t37.5 -90.5t-37.5 -90.5t-90.5 -37.5h-768q-53 0 -90.5 37.5t-37.5 90.5t37.5 90.5t90.5 37.5h768z" />
    <glyph glyph-name="indent" unicode="Indent" horiz-adv-x="1792" 
d="M37 390q-37 18 -37 58v640q0 40 37 58q37 17 68 -9l384 -320q23 -20 23 -45q0 -35 -23 -53l-384 -320q-18 -15 -41 -15q-14 0 -27 6zM128 1408q-52 0 -90 40.5t-38 91.5t37.5 87.5t90.5 36.5h1536q53 0 90.5 -37.5t37.5 -90.5t-37.5 -90.5t-90.5 -37.5h-1536zM1664 128
q53 0 90.5 -37.5t37.5 -90.5t-37.5 -90.5t-90.5 -37.5h-1536q-52 0 -90 40.5t-38 91.5t37.5 87.5t90.5 36.5h1536zM1664 640q53 0 90.5 -37.5t37.5 -90.5t-37.5 -90.5t-90.5 -37.5h-768q-52 0 -90 40.5t-38 91.5t37.5 87.5t90.5 36.5h768zM1664 1152q53 0 90.5 -37.5
t37.5 -90.5t-37.5 -90.5t-90.5 -37.5h-768q-52 0 -90 40.5t-38 91.5t37.5 87.5t90.5 36.5h768z" />
    <glyph glyph-name="video" unicode="VIDEO&#x2d;CAMERA" horiz-adv-x="2304" 
d="M1536 1344q0 80 -56 136t-136 56h-1152q-80 0 -136 -56t-56 -136v-1152q0 -80 56 -136t136 -56h1152q80 0 136 56t56 136v1152zM2304 1282q0 49 -33.5 84.5t-78.5 40t-90 -21.5l-438 -302v-630l438 -302q45 -26 90 -21.5t78.5 40t33.5 84.5v1028z" />
    <glyph glyph-name="image" unicode="Image" 
d="M1788 1664q108 0 182 -75t74 -181v-1280q0 -106 -75 -181t-181 -75h-1536q-104 0 -178 75t-74 181v1280q0 106 74 181t178 75h1536zM444 1408q-77 0 -134.5 -56.5t-57.5 -135.5q0 -80 55 -136t137 -56t137 56t55 136t-56 136t-136 56zM1784 162q18 34 -3 66l-512 768
q-19 28 -53 28q-35 0 -53 -32l-373 -556l-130 178q-18 26 -52 26t-52 -26l-280 -384q-23 -32 -5 -67t57 -35h1400q38 0 56 34z" />
    <glyph glyph-name="pencil" unicode="PENCIL&#x2d;ALT" 
d="M1992 1495q57 -56 56 -135.5t-60 -135.5l-226 -226l-508 512l226 226q56 56 135.5 56t135.5 -56zM124 384l1039 1035l512 -512l-1039 -1039q-14 -14 -33 -17l-526 -106q-4 -1 -13 -1q-29 0 -49 25t-14 55l106 527q3 19 17 33zM528 31l96 97h-240v240l-97 -96l-60 -301z
" />
    <glyph glyph-name="location" unicode="Location" horiz-adv-x="1536" 
d="M0 1024q0 -53 3.5 -95t17.5 -90.5t28 -85t48 -97.5t64.5 -108.5t91.5 -137t113.5 -164t146.5 -208.5t176 -253q29 -41 79 -41t79 41q82 119 176 253t146.5 208.5t113.5 164t91.5 137t64.5 108.5t48 97.5t28 85t17.5 90.5t3.5 95q0 209 -103 385.5t-279.5 279.5
t-385.5 103t-385.5 -103t-279.5 -279.5t-103 -385.5z" />
    <glyph glyph-name="circle-half-stroke" unicode="Adjust" 
d="M1024 1792q209 0 398.5 -81t326.5 -218t218 -326.5t81 -398.5t-81 -398.5t-218 -326.5t-326.5 -218t-398.5 -81t-398.5 81t-326.5 218t-218 326.5t-81 398.5t81 398.5t218 326.5t326.5 218t398.5 81zM1024 0q208 0 385 103t280 280t103 385t-103 385t-280 280t-385 103
v-1536z" />
    <glyph glyph-name="droplet" unicode="Droplet" horiz-adv-x="1536" 
d="M885 1703q38 -127 91.5 -244t107.5 -203t111 -168t105.5 -154t87.5 -145t61.5 -157.5t22.5 -175.5q0 -145 -55.5 -277t-150 -227t-225 -151.5t-273.5 -56.5t-273.5 56.5t-225 151.5t-150 227t-55.5 277q0 91 22.5 175t61.5 157t88 145.5t106 154.5t110.5 168.5t107 203
t91.5 243.5q17 57 68 78.5t101 -1t65 -77.5zM768 0q27 0 45.5 19.5t18.5 48.5q0 24 -18.5 42t-45.5 18q-132 0 -226 92t-94 224q0 27 -18.5 45.5t-45.5 18.5t-45.5 -18.5t-18.5 -45.5q0 -120 60 -222t163.5 -162t224.5 -60z" />
    <glyph glyph-name="pen-to-square" unicode="Edit" 
d="M1532 0h-3v624l252 256v-880q0 -106 -73.5 -181t-178.5 -75h-1277q-104 0 -178 75t-74 181v1280q0 106 74 181t178 75h881l-256 -256h-625v-1280h1280zM1992 1623q56 -56 56 -135.5t-56 -135.5l-155 -155l-384 384l155 155q56 56 135.5 56t135.5 -56zM589 694q7 30 26 49
l748 748l384 -384l-748 -748q-20 -20 -49 -26l-380 -76q-26 -5 -44 13t-13 44z" />
    <glyph glyph-name="backward-step" unicode="BACKWARD&#x2d;STEP" horiz-adv-x="1280" 
d="M124 1536q55 0 93.5 -37.5t38.5 -90.5v-1276q0 -55 -37 -92.5t-91 -39.5q-53 0 -90.5 37.5t-37.5 90.5v1280q0 54 35.5 91t88.5 37zM1070 1506q30 25 67 29t68 -10.5t52.5 -45t22.5 -68.5v-1279q0 -39 -21.5 -70.5t-52.5 -46t-68.5 -11t-67.5 28.5l-768 637
q-46 40 -46 98q0 59 46 102z" />
    <glyph glyph-name="backward-fast" unicode="BACKWARD&#x2d;FAST" 
d="M0 132q0 -55 38 -91.5t94 -36.5q51 0 87.5 35.5t36.5 88.5v523l686 -621q30 -25 67.5 -28.5t68.5 10.5t52.5 45.5t21.5 70.5v523l686 -621q30 -25 67.5 -28.5t68.5 10.5t52.5 45.5t21.5 70.5v1280q0 39 -21.5 70.5t-52.5 45.5t-68.5 10.5t-67.5 -28.5l-686 -626v528
q0 53 -36 89.5t-83 38.5t-91 -29l-686 -626v527q0 54 -38.5 90.5t-93.5 33.5q-51 0 -87.5 -35.5t-36.5 -88.5v-1276z" />
    <glyph glyph-name="backward" unicode="BACKWARD" 
d="M1838 1506q30 25 67.5 28.5t68.5 -10.5t52.5 -45.5t21.5 -70.5v-1276q0 -54 -36 -92t-83 -40t-91 29l-686 572v334zM814 1506q30 25 67 29t68 -10.5t52.5 -45t22.5 -68.5v-1279q0 -39 -21.5 -70.5t-52.5 -46t-68.5 -11t-67.5 28.5l-768 636q-46 38 -46 98.5t46 98.5z" />
    <glyph glyph-name="play" unicode="PLAY" 
d="M704 -128q54 0 100 28l1152 704q43 26 67.5 70t24.5 94t-24.5 94t-67.5 70l-1152 704q-46 28 -100 28q-81 0 -136.5 -57t-55.5 -135v-1408q0 -78 55.5 -135t136.5 -57z" />
    <glyph glyph-name="pause" unicode="PAUSE" horiz-adv-x="1280" 
d="M1088 1540q79 0 135.5 -58t56.5 -138v-1152q0 -80 -56 -136t-136 -56l-128 7q-80 0 -136 56.5t-56 135.5v1152q0 77 56.5 133t135.5 56h128zM320 1540q79 0 135.5 -58t56.5 -138v-1152q0 -80 -56 -136t-136 -56h-128q-80 0 -136 57t-56 139v1152q0 80 56 136t136 56h128z
" />
    <glyph glyph-name="stop" unicode="Stop" horiz-adv-x="1536" 
d="M1536 1280q0 106 -75 181t-181 75h-1024q-106 0 -181 -75t-75 -181v-1020q0 -106 75 -181t181 -75h1024q106 0 181 75t75 181v1020z" />
    <glyph glyph-name="forward" unicode="FORWARD" 
d="M210 30q-30 -25 -67.5 -28.5t-68.5 10.5t-52.5 45.5t-21.5 70.5v1280q0 39 21.5 70.5t52.5 45.5t68.5 10.5t67.5 -28.5l686 -571v-334zM1234 30q-44 -31 -91 -29.5t-83 36.5t-36 84v1280q0 39 21.5 70.5t52.5 45.5t68.5 10.5t67.5 -28.5l768 -636q46 -38 46 -98.5
t-46 -98.5z" />
    <glyph glyph-name="forward-fast" unicode="FORWARD&#x2d;FAST" 
d="M2048 1408q0 54 -38.5 90.5t-93.5 33.5q-51 0 -87.5 -35.5t-36.5 -88.5v-523l-686 621q-30 25 -67.5 28.5t-68.5 -10.5t-52.5 -45.5t-21.5 -70.5v-523l-686 621q-30 25 -67.5 28.5t-68.5 -10.5t-52.5 -45.5t-21.5 -70.5v-1276q0 -41 21.5 -73t52.5 -46.5t68.5 -11
t67.5 28.5l686 626v-524q0 -41 21.5 -73t52.5 -46.5t68.5 -11t67.5 28.5l686 626v-524q0 -55 38 -91.5t94 -36.5q51 0 87.5 35.5t36.5 88.5v1280z" />
    <glyph glyph-name="forward-step" unicode="FORWARD&#x2d;STEP" horiz-adv-x="1280" 
d="M1148 4q-51 0 -89.5 37t-38.5 91v1279q0 51 36 88t89 37t90.5 -37.5t37.5 -90.5v-1276q0 -54 -36 -91t-89 -37zM210 30q-30 -25 -67.5 -28.5t-68.5 10.5t-52.5 45.5t-21.5 70.5v1280q0 40 21.5 70.5t52.5 44.5t68.5 8.5t67.5 -32.5l768 -636q46 -40 46 -99q0 -58 -46 -98
z" />
    <glyph glyph-name="eject" unicode="EJECT" horiz-adv-x="1792" 
d="M192 516q-48 0 -89 21t-65 56t-33.5 76t2 85.5t44.5 79.5l704 772q57 62 141.5 62t141.5 -62l700 -769q41 -45 48 -102t-14 -105t-68.5 -81t-107.5 -33h-1404zM1596 256q81 0 136.5 -56t55.5 -136t-56 -136t-136 -56h-1404q-80 0 -136 56t-56 136t56 136t136 56h1404z
" />
    <glyph glyph-name="chevron-left" unicode="CHEVRON&#x2d;LEFT" horiz-adv-x="1280" 
d="M896 -128q54 0 91 37t37 90t-37 91l-678 678l678 678q37 38 37 90t-37 90t-90 38t-91 -38l-768 -768q-38 -38 -38 -90t38 -90l768 -768q38 -38 90 -38z" />
    <glyph glyph-name="chevron-right" unicode="Chevron&#x2d;right" horiz-adv-x="1280" 
d="M384 -128q54 0 91 37l768 768q37 37 37 90t-37 91l-768 768q-37 38 -90 38t-91 -38t-38 -91t38 -90l677 -677l-677 -678q-38 -38 -38 -90t38 -90t90 -38z" />
    <glyph glyph-name="circle-plus" unicode="CIRCLE&#x2d;PLUS" 
d="M1024 1792q209 0 398.5 -81t326.5 -218t218 -326.5t81 -398.5t-81 -398.5t-218 -326.5t-326.5 -218t-398.5 -81t-398.5 81t-326.5 218t-218 326.5t-81 398.5t81 398.5t218 326.5t326.5 218t398.5 81zM1408 672q40 0 68 28t28 68t-28 68t-68 28h-288v288q0 40 -28 68
t-68 28t-68 -28t-28 -68v-288h-288q-40 0 -68 -28t-28 -68t28 -68t68 -28h288v-288q0 -40 29 -68t71 -28q37 0 64.5 28.5t27.5 67.5v288h288z" />
    <glyph glyph-name="circle-minus" unicode="CIRCLE&#x2d;MINUS" 
d="M1024 1792q209 0 398.5 -81t326.5 -218t218 -326.5t81 -398.5t-81 -398.5t-218 -326.5t-326.5 -218t-398.5 -81t-398.5 81t-326.5 218t-218 326.5t-81 398.5t81 398.5t218 326.5t326.5 218t398.5 81zM1408 672q40 0 68 28t28 68t-28 68t-68 28h-768q-40 0 -68 -28
t-28 -68t28 -68t68 -28h768z" />
    <glyph glyph-name="circle-xmark" unicode="CIRCLE&#x2d;XMARK" 
d="M1024 1792q209 0 398.5 -81t326.5 -218t218 -326.5t81 -398.5t-81 -398.5t-218 -326.5t-326.5 -218t-398.5 -81t-398.5 81t-326.5 218t-218 326.5t-81 398.5t81 398.5t218 326.5t326.5 218t398.5 81zM1344 580l-184 188l188 188q28 28 28 68t-28 68t-68 28t-68 -28
l-188 -188l-188 191q-28 29 -68 29t-68 -29t-28 -68t28 -67l188 -192l-188 -188q-28 -28 -28 -68t28 -68q29 -28 68 -28t68 28l188 188l185 -188q29 -28 67.5 -28t67.5 28q28 28 28 68t-28 68z" />
    <glyph glyph-name="circle-check" unicode="CIRCLE&#x2d;CHECK" 
d="M1024 1792q209 0 398.5 -81t326.5 -218t218 -326.5t81 -398.5t-81 -398.5t-218 -326.5t-326.5 -218t-398.5 -81t-398.5 81t-326.5 218t-218 326.5t-81 398.5t81 398.5t218 326.5t326.5 218t398.5 81zM1487 945q33 33 32.5 79t-32.5 79q-33 33 -79 33t-79 -33l-433 -433
l-177 177q-33 33 -79 33t-79 -33t-33 -79t33 -79l256 -256q33 -33 79 -33t79 33z" />
    <glyph glyph-name="circle-question" unicode="CIRCLE&#x2d;QUESTION" 
d="M1024 1792q209 0 398.5 -81t326.5 -218t218 -326.5t81 -398.5t-81 -398.5t-218 -326.5t-326.5 -218t-398.5 -81t-398.5 81t-326.5 218t-218 326.5t-81 398.5t81 398.5t218 326.5t326.5 218t398.5 81zM1024 192q52 0 90 37.5t38 90.5t-38 90.5t-90 37.5q-56 0 -92 -36.5
t-36 -91.5q0 -54 37 -91t91 -37zM1300 760q66 39 103 103t37 137q0 118 -82.5 199t-204.5 81h-205q-114 0 -195 -81.5t-81 -198.5q0 -39 28.5 -67.5t67.5 -28.5t67.5 28.5t28.5 67.5q0 37 25 62.5t63 25.5h204q36 0 64 -26t28 -62q0 -51 -44 -76l-228 -136q-48 -30 -48 -84
v-64q0 -39 28.5 -67.5t67.5 -28.5t67.5 28.5t28.5 67.5v8z" />
    <glyph glyph-name="circle-info" unicode="CIRCLE&#x2d;INFO" 
d="M1024 1792q209 0 398.5 -81t326.5 -218t218 -326.5t81 -398.5t-81 -398.5t-218 -326.5t-326.5 -218t-398.5 -81t-398.5 81t-326.5 218t-218 326.5t-81 398.5t81 398.5t218 326.5t326.5 218t398.5 81zM1024 1280q-53 0 -90.5 -37.5t-37.5 -90.5t37.5 -90.5t90.5 -37.5
t90.5 37.5t37.5 90.5t-37.5 90.5t-90.5 37.5zM1184 256q40 0 68 28t28 68t-28 68t-68 28h-64v352q0 40 -28 68t-68 28h-128q-40 0 -68 -28t-28 -68t28 -68t68 -28h32v-256h-64q-40 0 -68 -28t-28 -68t28 -68t68 -28h320z" />
    <glyph glyph-name="crosshairs" unicode="CROSSHAIRS" 
d="M1024 896q53 0 90.5 -37.5t37.5 -90.5t-37.5 -90.5t-90.5 -37.5t-90.5 37.5t-37.5 90.5t37.5 90.5t90.5 37.5zM1920 896q53 0 90.5 -37.5t37.5 -90.5t-37.5 -90.5t-90.5 -37.5h-36q-41 -286 -243.5 -488.5t-488.5 -243.5v-36q0 -52 -40.5 -90t-91.5 -38t-87.5 37.5
t-36.5 90.5v36q-286 41 -488.5 243.5t-243.5 488.5h-36q-53 0 -90.5 37.5t-37.5 90.5t37.5 90.5t90.5 37.5h36q42 284 246 487t486 245v36q0 53 37.5 90.5t90.5 37.5t90.5 -37.5t37.5 -90.5v-36q282 -42 486 -245t246 -487h36zM1459 333q129 129 167 307h-90
q-53 0 -90.5 37.5t-37.5 90.5t37.5 90.5t90.5 37.5h85q-40 172 -162 294q-128 135 -307 168v-78q0 -52 -40.5 -90t-91.5 -38t-87.5 37.5t-36.5 90.5v69q-169 -41 -294 -159q-128 -122 -164 -294h74q51 0 87.5 -37.5t36.5 -90.5q0 -54 -35.5 -91t-88.5 -37h-73
q38 -176 163 -307q122 -127 294 -167v90q0 53 37.5 90.5t90.5 37.5t90.5 -37.5t37.5 -90.5v-91q177 38 307 168z" />
    <glyph glyph-name="ban" unicode="Ban" 
d="M1024 1792q209 0 398.5 -81t326.5 -218t218 -326.5t81 -398.5t-81 -398.5t-218 -326.5t-326.5 -218t-398.5 -81t-398.5 81t-326.5 218t-218 326.5t-81 398.5t81 398.5t218 326.5t326.5 218t398.5 81zM256 768q0 -209 103 -385.5t279.5 -279.5t385.5 -103q244 0 444 143
l-1069 1069q-143 -200 -143 -444zM1649 324q143 200 143 444q0 208 -103 385t-280 280t-385 103q-244 0 -444 -143z" />
    <glyph glyph-name="arrow-left" unicode="ARROW&#x2d;LEFT" horiz-adv-x="1792" 
d="M1788 768q0 54 -35.5 91t-88.5 37h-1227l422 422q37 38 37 90t-37 90t-90 38t-91 -38l-640 -640q-38 -38 -38 -90t38 -90l640 -640q38 -38 90 -38q54 0 91 37t37 90t-37 91l-422 422h1227q53 0 88.5 37t35.5 91z" />
    <glyph glyph-name="arrow-right" unicode="ARROW&#x2d;RIGHT" horiz-adv-x="1792" 
d="M1754 678q38 38 38 90.5t-37 90.5l-640 640q-37 37 -90 37t-91 -37t-38 -90t38 -91l421 -422h-1227q-53 0 -90.5 -37.5t-37.5 -90.5t37.5 -90.5t90.5 -37.5h1227l-421 -421q-38 -37 -38 -90t38 -91t90 -38t90 38z" />
    <glyph glyph-name="arrow-up" unicode="ARROW&#x2d;UP" horiz-adv-x="1536" 
d="M1498 806q38 38 38 90.5t-37 90.5l-640 640q-37 37 -90 37t-91 -37l-640 -640q-38 -37 -38 -90t38 -91t91 -38t90 38l421 421v-1227q0 -52 40 -88t92 -36q51 0 87.5 35.5t36.5 88.5v1227l422 -421q38 -38 90 -38t90 38z" />
    <glyph glyph-name="arrow-down" unicode="ARROW&#x2d;DOWN" horiz-adv-x="1536" 
d="M1498 550q38 38 38 90t-37 90t-90 38t-91 -38l-422 -421v1227q0 52 -40 88t-92 36q-51 0 -87.5 -35.5t-36.5 -88.5v-1227l-421 422q-37 37 -90 37t-91 -37t-38 -90t38 -91l640 -640q38 -38 90 -38t90 38z" />
    <glyph glyph-name="share" unicode="ARROW&#x2d;TURN&#x2d;RIGHT" 
d="M2015 887q33 29 33 73.5t-33 75.5l-704 605q-33 24 -68.5 23t-63 -28.5t-27.5 -67.5v-320q-146 -2 -267 -12t-242 -33t-215 -59.5t-176.5 -94t-136 -133.5t-84.5 -180.5t-31 -232.5q0 -176 97 -346t236 -271q41 -30 84.5 -1.5t28.5 76.5q-45 144 -54 255.5t19.5 193
t86.5 137t155.5 89.5t217.5 50t281 18v-349q0 -40 27.5 -67.5t63 -28t68.5 23.5z" />
    <glyph glyph-name="expand" unicode="EXPAND" horiz-adv-x="1792" 
d="M512 1664q53 0 90.5 -37.5t37.5 -90.5t-37.5 -90.5t-90.5 -37.5h-256v-256q0 -53 -37.5 -90.5t-90.5 -37.5t-90.5 37.5t-37.5 90.5v384q0 53 37.5 90.5t90.5 37.5h384zM1664 1664q53 0 90.5 -37.5t37.5 -90.5v-384q0 -53 -37.5 -90.5t-90.5 -37.5t-90.5 37.5t-37.5 90.5
v256h-256q-53 0 -90.5 37.5t-37.5 90.5t37.5 90.5t90.5 37.5h384zM512 128q53 0 90.5 -37.5t37.5 -90.5t-37.5 -90.5t-90.5 -37.5h-384q-53 0 -90.5 37.5t-37.5 90.5v384q0 53 37.5 90.5t90.5 37.5t90.5 -37.5t37.5 -90.5v-256h256zM1664 512q53 0 90.5 -37.5t37.5 -90.5
v-384q0 -53 -37.5 -90.5t-90.5 -37.5h-384q-53 0 -90.5 37.5t-37.5 90.5t37.5 90.5t90.5 37.5h256v256q0 53 37.5 90.5t90.5 37.5z" />
    <glyph glyph-name="compress" unicode="COMPRESS" horiz-adv-x="1792" 
d="M512 512q53 0 90.5 -37.5t37.5 -90.5v-384q0 -53 -37.5 -90.5t-90.5 -37.5t-90.5 37.5t-37.5 90.5v256h-256q-53 0 -90.5 37.5t-37.5 90.5t37.5 90.5t90.5 37.5h384zM1664 512q53 0 90.5 -37.5t37.5 -90.5t-37.5 -90.5t-90.5 -37.5h-256v-256q0 -53 -37.5 -90.5
t-90.5 -37.5t-90.5 37.5t-37.5 90.5v384q0 53 37.5 90.5t90.5 37.5h384zM1280 1024q-53 0 -90.5 37.5t-37.5 90.5v384q0 53 37.5 90.5t90.5 37.5t90.5 -37.5t37.5 -90.5v-256h256q53 0 90.5 -37.5t37.5 -90.5t-37.5 -90.5t-90.5 -37.5h-384zM512 1664q53 0 90.5 -37.5
t37.5 -90.5v-384q0 -53 -37.5 -90.5t-90.5 -37.5h-384q-53 0 -90.5 37.5t-37.5 90.5t37.5 90.5t90.5 37.5h256v256q0 53 37.5 90.5t90.5 37.5z" />
    <glyph glyph-name="plus" unicode="Add" horiz-adv-x="1792" 
d="M1728 768q0 53 -37.5 90.5t-90.5 37.5h-576v576q0 53 -37.5 90.5t-90.5 37.5t-90.5 -37.5t-37.5 -90.5v-576h-576q-53 0 -90.5 -37.5t-37.5 -90.5t37.5 -90.5t90.5 -37.5h576v-576q0 -53 37.5 -90.5t90.5 -37.5t90.5 37.5t37.5 90.5v576h576q53 0 90.5 37.5t37.5 90.5z
" />
    <glyph glyph-name="minus" unicode="Minus" horiz-adv-x="1792" 
d="M1600 640q53 0 90.5 37.5t37.5 90.5t-37.5 90.5t-90.5 37.5h-1408q-53 0 -90.5 -37.5t-37.5 -90.5t37.5 -90.5t90.5 -37.5h1408z" />
    <glyph glyph-name="asterisk" unicode="ASTERISK" horiz-adv-x="1792" 
d="M1668 320q29 46 16 97.5t-59 77.5l-473 273l470 273q46 26 59 77.5t-13 97.5q-17 34 -51 51t-72 12q-27 -3 -48 -16l-473 -273v546q0 53 -37.5 90.5t-90.5 37.5t-90.5 -37.5t-37.5 -90.5v-546l-473 273q-21 13 -48 16q-38 5 -73.5 -12t-57.5 -51q-24 -46 -9.5 -97.5
t60.5 -77.5l469 -273l-469 -273q-46 -26 -59.5 -77.5t12.5 -97.5q18 -30 47.5 -47t63.5 -17q36 0 64 17l473 273v-546q0 -52 40.5 -90t91.5 -38t87.5 37.5t36.5 90.5v546l470 -273q28 -17 63 -17q34 0 63.5 17t47.5 47z" />
    <glyph glyph-name="circle-exclamation" unicode="CIRCLE&#x2d;EXCLAMATION" 
d="M1024 1792q209 0 398.5 -81t326.5 -218t218 -326.5t81 -398.5t-81 -398.5t-218 -326.5t-326.5 -218t-398.5 -81t-398.5 81t-326.5 218t-218 326.5t-81 398.5t81 398.5t218 326.5t326.5 218t398.5 81zM928 1184v-512q0 -40 28 -68t68 -28t68 28t28 68v512q0 40 -28 68
t-68 28t-68 -28t-28 -68zM1024 192q52 0 89 37t37 89t-37 89t-89 37t-89 -37t-37 -89t37 -89t89 -37z" />
    <glyph glyph-name="gift" unicode="GIFT" 
d="M128 -128v768h768v-896h-640q-53 0 -90.5 37.5t-37.5 90.5zM1920 1280q54 0 90.5 -37.5t33.5 -90.5v-256q0 -52 -38 -90t-90 -38h-1792q-50 0 -87 38t-37 90v256q0 53 37.5 90.5t90.5 37.5h169q-82 158 0 326q43 87 127.5 136.5t185.5 49.5q121 0 213.5 -63t200.5 -210
q108 147 200.5 210t213.5 63q101 0 185.5 -49.5t127.5 -136.5q82 -168 0 -326h169zM616 1280h344q-75 112 -128 179t-92.5 96.5t-63.5 37t-60 7.5q-66 0 -113 -47t-47 -113t47 -113t113 -47zM1432 1280q66 0 113 47t47 113t-47 113t-113 47q-36 0 -60 -7.5t-63.5 -37
t-92.5 -96.5t-128 -179h344zM1152 -256l4 896h764v-768q0 -53 -37.5 -90.5t-90.5 -37.5h-640z" />
    <glyph glyph-name="leaf" unicode="LEAF" 
d="M2048 1130q0 270 -104 502q-14 31 -47.5 32t-50.5 -28q-60 -105 -160 -171t-210.5 -82t-226.5 8q-159 38 -324 0q-196 -46 -341 -193t-185 -344q-12 -62 -14 -132q403 302 959 302q26 0 45 -19t19 -45t-19 -45t-45 -19q-158 0 -302.5 -26t-257.5 -70t-214 -104
t-176 -125.5t-138.5 -138t-106 -137.5t-74.5 -127.5t-48.5 -105t-23.5 -72.5q-9 -39 11.5 -72.5t59.5 -42.5q12 -3 22 -3q32 0 58.5 20.5t34.5 53.5q3 10 8.5 27.5t27 68t49.5 99.5t79 115t112 122q91 -174 259.5 -276t363.5 -102q134 0 259 50q209 69 368 226.5t246 379
t87 474.5z" />
    <glyph glyph-name="fire" unicode="FIRE" horiz-adv-x="1792" 
d="M1294 1587q139 -129 256 -308t179.5 -342t62.5 -271q0 -188 -71 -358.5t-191 -294t-286 -196.5t-348 -73t-348 73t-286 196.5t-191 294t-71 358.5q0 216 189.5 535.5t482.5 590.5q231 -215 398 -444q104 128 224 239zM1216 224q96 67 146 172.5t46.5 221.5t-58.5 220
q-13 26 -45 80l-235 -268q-367 470 -395 502q-108 -130 -164.5 -208t-91.5 -159t-35 -156q0 -151 71 -266.5t189.5 -175t263.5 -59.5q169 0 308 96z" />
    <glyph glyph-name="eye" unicode="EYE" horiz-adv-x="2304" 
d="M2290 840q14 -37 14 -72t-14 -72q-166 -374 -470.5 -599t-667.5 -225q-364 0 -668.5 226t-469.5 602q-14 32 -14 68q0 35 14 72q166 374 470.5 599t667.5 225t667.5 -225t470.5 -599zM1728 768q0 117 -45.5 223.5t-123 184t-184 123t-223.5 45.5t-223.5 -45.5t-184 -123
t-123 -184t-45.5 -223.5t45.5 -223.5t123 -184t184 -123t223.5 -45.5t223.5 45.5t184 123t123 184t45.5 223.5zM1152 1152q157 0 270.5 -113t113.5 -271q0 -159 -112.5 -271.5t-271.5 -112.5q-158 0 -271 113.5t-113 270.5q0 4 0.5 10t1.5 13t1 11q55 -34 125 -34
q106 0 181 75t75 181q0 65 -34 125q18 3 34 3z" />
    <glyph glyph-name="eye-slash" unicode="Eye&#x2d;slash" horiz-adv-x="2560" 
d="M1300 386q-4 0 -10 -1t-10 -1q-140 0 -246 89.5t-131 224.5zM1280 192q110 0 211 46l298 -234q-244 -129 -513 -129q-364 0 -668.5 224.5t-469.5 600.5q-14 32 -14 68q0 28 18 68q73 167 183 314l383 -306q0 -13 -2 -39.5t-2 -40.5q0 -155 77 -286.5t210 -208.5t289 -77z
M2523 -84q32 -25 36 -64t-23 -68q-24 -31 -64 -36t-71 20l-2364 1852q-32 25 -37 64t20 71q29 37 76 37q33 0 59 -20l442 -353q312 238 683 238q364 0 668.5 -224t469.5 -600q14 -32 14 -68q0 -37 -14 -69q-117 -259 -309 -456zM1852 768q0 117 -45 223.5t-121.5 184
t-182.5 123t-223 45.5q-221 0 -386 -152l355 -281q27 54 27 113q0 72 -30 125q2 0 15.5 1.5t18.5 1.5q156 0 268 -114t112 -270q0 -76 -34 -152l155 -121q71 128 71 273z" />
    <glyph glyph-name="triangle-exclamation" unicode="Exclamation&#x2d;triangle" 
d="M2025 124q26 -42 23 -86.5t-23.5 -81.5t-60 -60.5t-87.5 -23.5h-1706q-48 0 -88 23.5t-60 60.5t-23 81.5t23 86.5l853 1456q32 54 90 74.5t116 0t90 -74.5zM928 1120v-512q0 -39 31 -67.5t69 -28.5q37 0 64.5 28.5t27.5 67.5v512q0 40 -28 68t-68 28t-68 -28t-28 -68z
M1024 128q52 0 89 37t37 89t-37 89t-89 37t-89 -37t-37 -89t37 -89t89 -37z" />
    <glyph glyph-name="plane" unicode="PLANE" horiz-adv-x="2304" 
d="M987 1792h-262q-32 0 -51.5 -25.5t-10.5 -56.5l193 -686h-412l-169 230q-20 26 -51 26h-160q-31 0 -50.5 -25t-11.5 -55l126 -432l-126 -432q-8 -30 11.5 -55t50.5 -25h160q33 0 48 26l172 230h416l-197 -686q-9 -31 10.5 -56.5t51.5 -25.5h262q36 0 55 32l421 736h457
q73 0 161.5 33.5t155.5 95t67 127.5t-67 127.5t-155.5 95t-161.5 33.5h-457l-421 736q-7 13 -23.5 22.5t-31.5 9.5z" />
    <glyph glyph-name="calendar-days" unicode="CALENDAR&#x2d;DAYS" horiz-adv-x="1792" 
d="M0 -64v1088h1792v-1088q0 -80 -56 -136t-136 -56h-1408q-80 0 -136 56t-56 136zM1280 704v-128q0 -26 19 -45t45 -19h128q26 0 45 19t19 45v128q0 26 -19 45t-45 19h-128q-26 0 -45 -19t-19 -45zM1280 192v-128q0 -26 19 -45t45 -19h128q26 0 45 19t19 45v128
q0 26 -19 45t-45 19h-128q-26 0 -45 -19t-19 -45zM768 704v-128q0 -26 19 -45t45 -19h128q26 0 45 19t19 45v128q0 26 -19 45t-45 19h-128q-26 0 -45 -19t-19 -45zM768 192v-128q0 -26 19 -45t45 -19h128q26 0 45 19t19 45v128q0 26 -19 45t-45 19h-128q-26 0 -45 -19
t-19 -45zM256 704v-128q0 -26 19 -45t45 -19h128q26 0 45 19t19 45v128q0 26 -19 45t-45 19h-128q-26 0 -45 -19t-19 -45zM256 192v-128q0 -26 19 -45t45 -19h128q26 0 45 19t19 45v128q0 26 -19 45t-45 19h-128q-26 0 -45 -19t-19 -45zM1600 1536q80 0 136 -56t56 -136
v-192h-1792v192q0 80 56 136t136 56h192v132q0 50 38 87t90 37t90 -37t38 -87v-132h512v132q0 50 38 87t90 37t90 -37t38 -87v-132h192z" />
    <glyph glyph-name="shuffle" unicode="RANDOM" 
d="M1696 644l320 -320q28 -28 28 -68t-28 -68l-316 -320q-46 -45 -105 -20.5t-59 88.5v192h-256q-64 0 -102 51l-730 973h-320q-53 0 -90.5 37.5t-37.5 90.5t37.5 90.5t90.5 37.5h384q64 0 102 -51l730 -973h192v192q0 64 57 88.5t103 -20.5zM1344 1152l-172 -224l-156 213
l162 216q38 51 102 51h252v192q0 64 59 88.5t105 -20.5l317 -320q29 -28 29 -68t-29 -68l-317 -320q-21 -22 -49 -26.5t-52.5 5.5t-41.5 34t-17 55v192h-192zM448 384l168 224l160 -213l-162 -216q-38 -51 -102 -51h-384q-53 0 -90.5 37.5t-37.5 90.5t37.5 90.5t90.5 37.5
h320z" />
    <glyph glyph-name="comment" unicode="Comment" 
d="M1024 1664q208 0 397.5 -66t325.5 -177.5t216.5 -265.5t80.5 -323t-80.5 -323t-216.5 -265.5t-325.5 -177.5t-397.5 -66q-223 0 -430 78q-266 -206 -562 -206q-21 0 -29 19q-10 19 6 35q5 5 19 21.5t44 56.5t58 84t56 104.5t42 116.5q-228 230 -228 523q0 169 81 323.5
t218 265.5t326.5 177t398.5 66z" />
    <glyph glyph-name="magnet" unicode="Magnet" horiz-adv-x="1792" 
d="M1280 768v384h512v-384q0 -196 -82.5 -372.5t-219 -298t-324.5 -182.5t-388 -35q-166 21 -311.5 104t-247.5 206t-160.5 281.5t-58.5 327.5v353h512v-369q0 -141 86.5 -253.5t221.5 -138.5q90 -17 175 6t147 75.5t100 130.5t38 165zM1664 1668q53 0 90.5 -38.5
t37.5 -89.5v-256h-512v256q0 53 37.5 90.5t90.5 37.5h256zM512 1540v-256h-512v256q0 53 37.5 90.5t90.5 37.5h256q53 0 90.5 -38.5t37.5 -89.5z" />
    <glyph glyph-name="chevron-up" unicode="CHEVRON&#x2d;UP" horiz-adv-x="1792" 
d="M1664 384q53 0 90 37q38 37 38 90t-38 91l-768 768q-38 38 -91 38t-90 -38l-768 -768q-37 -38 -37 -91t37 -90t90 -37t91 37l678 678l678 -677q38 -38 90 -38z" />
    <glyph glyph-name="chevron-down" unicode="CHEVRON&#x2d;DOWN" horiz-adv-x="1792" 
d="M896 128q54 0 91 37l768 768q37 37 37 90t-37 91t-90 38t-91 -38l-678 -677l-677 677q-37 38 -90 38t-91 -38t-38 -90t38 -90l768 -768q38 -38 90 -38z" />
    <glyph glyph-name="retweet" unicode="RETWEET" horiz-adv-x="2560" 
d="M2457 453q11 -27 5 -56t-26 -49l-320 -320q-28 -28 -68 -28t-68 32l-320 320q-20 20 -26 48.5t5 55.5t35.5 43.5t53.5 16.5h192v572q0 26 -19 45t-45 19h-512q-53 0 -90.5 37.5t-37.5 90.5t37.5 90.5t90.5 37.5h512q132 0 226 -94t94 -226v-572h192q29 0 53.5 -17.5
t35.5 -45.5zM1216 384q53 0 90.5 -37.5t37.5 -90.5t-37.5 -90.5t-90.5 -37.5h-512q-132 0 -226 94t-94 226v576h-192q-29 0 -53.5 16t-35.5 43t-5 56t26 49l320 320q28 28 68 28t68 -28l320 -320q20 -20 26 -49t-5 -56t-35.5 -43t-53.5 -16h-192v-576q0 -26 19 -45t45 -19
h512z" />
    <glyph glyph-name="cart-shopping" unicode="CART&#x2d;SHOPPING" horiz-adv-x="2304" 
d="M1852 128q82 0 135.5 -55.5t53.5 -136.5q0 -79 -56 -135.5t-133 -56.5t-132.5 56.5t-55.5 135.5q0 80 54.5 136t133.5 56zM700 128q82 0 135.5 -55.5t53.5 -136.5q0 -79 -56 -135.5t-133 -56.5t-132.5 56.5t-55.5 135.5q0 80 54.5 136t133.5 56zM2278 1613
q38 -50 21 -116l-220 -764q-12 -41 -46 -67t-77 -26h-1273l37 -192h1232q40 0 68 -29t28 -71q0 -37 -28.5 -64.5t-67.5 -27.5h-1312q-34 0 -61.5 22t-36.5 56l-241 1266h-209q-36 0 -64 31.5t-28 68.5t27.5 64.5t64.5 27.5h292q34 0 60.5 -22t33.5 -56l6 -50h1692
q64 0 102 -51z" />
    <glyph glyph-name="folder" unicode="FOLDER" 
d="M1856 1408q80 0 136 -56t56 -136v-64h-2048v320q0 80 56 136t136 56h640l256 -256h768zM0 64v960h2048v-960q0 -80 -56 -136t-136 -56h-1664q-80 0 -136 56t-56 136z" />
    <glyph glyph-name="folder-open" unicode="FOLDER&#x2d;OPEN" horiz-adv-x="2304" 
d="M591 1024q-74 0 -135.5 -38t-93.5 -103l-362 -725v1314q0 80 56 136t136 56h640l256 -256h640q80 0 136 -56t56 -136v-192h-1329zM2172 896q74 0 111.5 -60.5t3.5 -124.5l-384 -768q-17 -32 -48 -51.5t-67 -19.5h-1788l477 953q16 33 47 52t67 19h1581z" />
    <glyph glyph-name="chart-bar" unicode="BAR&#x2d;CHART" 
d="M563 1152q-19 0 -35 16t-16 35v154q0 19 16 35t35 16h922q19 0 35 -16t16 -35v-154q0 -19 -16 -35t-35 -16h-922zM563 768q-19 0 -35 16t-16 35v154q0 19 16 35t35 16h666q19 0 35 -16t16 -35v-154q0 -19 -16 -35t-35 -16h-666zM563 384q-19 0 -35 16t-16 35v154
q0 19 16 35t35 16h1178q19 0 35 -16t16 -35v-154q0 -19 -16 -35t-35 -16h-1178zM1920 128q53 0 90.5 -37.5t37.5 -90.5t-37.5 -90.5t-90.5 -37.5h-1792q-52 0 -90 38t-38 90v1540q0 51 37.5 87.5t90.5 36.5t90.5 -36.5t37.5 -87.5v-1412h1664z" />
    <glyph glyph-name="camera-retro" unicode="CAMERA&#x2d;RETRO" 
d="M1024 896q132 0 226 -94t94 -226t-94 -226t-226 -94t-226 94t-94 226t94 226t226 94zM1856 1664q80 0 136 -56t56 -136v-1408q0 -80 -56 -136t-136 -56h-1664q-80 0 -136 56t-56 136v1280q0 80 56 136t136 56h64v64q0 26 19 45t45 19h256q26 0 45 -19t19 -45v-64h128
l202 101q54 27 114 27h772zM1024 128q185 0 316.5 131.5t131.5 316.5t-131.5 316.5t-316.5 131.5t-316.5 -131.5t-131.5 -316.5t131.5 -316.5t316.5 -131.5zM1792 1024v384h-711l-253 -128h-572v-256h312q89 90 207 141t249 51t249 -51t207 -141h312z" />
    <glyph glyph-name="key" unicode="Key" 
d="M1344 1792q143 0 273.5 -55t225 -148.5t150 -223.5t55.5 -273t-55.5 -273.5t-150 -225t-225 -150t-273.5 -55.5q-71 0 -170 18l-131 -131q-19 -19 -46 -19h-229v-192q0 -26 -19 -45t-45 -19h-192v-192q0 -26 -19 -45t-45 -19h-384q-26 0 -45 19t-19 45v395q0 53 38 91
l624 624q-22 86 -22 170q0 143 55.5 273.5t150 225t225 150t273.5 55.5zM1504 1088q66 0 113 47t47 113t-47 113t-113 47t-113 -47t-47 -113t47 -113t113 -47z" />
    <glyph glyph-name="gears" unicode="COGS" horiz-adv-x="2560" 
d="M1258 926q30 -18 20 -50q-44 -133 -135 -234q-12 -14 -31 -14q-12 0 -22 6l-117 68q-74 -65 -165 -96v-134q0 -15 -9.5 -27t-23.5 -15q-68 -14 -135 -14t-135 14q-14 3 -23.5 14.5t-9.5 26.5v135q-91 31 -165 96l-117 -68q-11 -6 -22 -6q-20 0 -31 18q-91 101 -135 234
q-5 11 1 25t19 21l116 67q-10 52 -10 95q0 44 10 96l-116 67q-30 18 -20 50q41 129 135 234q12 14 31 14q12 0 22 -6l118 -69q76 65 164 95v136q0 15 9.5 27t23.5 15q68 14 135 14t135 -14q14 -3 23.5 -15t9.5 -27v-136q88 -30 164 -95l118 69q10 6 22 6q19 0 31 -14
q94 -105 135 -234q10 -32 -20 -50l-116 -63q10 -58 10 -100q0 -44 -10 -96zM640 896q80 0 136 56t56 136t-56 136t-136 56t-136 -56t-56 -136t56 -136t136 -56zM2514 519q14 -68 14 -135t-14 -135q-3 -14 -14.5 -23.5t-26.5 -9.5h-137q-31 -90 -94 -164l68 -118q6 -11 6 -22
q0 -19 -14 -31q-101 -91 -234 -135q-32 -10 -50 20l-67 116q-52 -10 -96 -10q-49 0 -95 9l-67 -116q-17 -29 -50 -19q-134 45 -235 135q-13 12 -13 31q0 10 6 21l68 118q-65 74 -96 165h-135q-34 0 -41 33q-14 68 -14 135q0 71 13 135q3 14 15 23.5t27 9.5h135q31 91 96 165
l-68 117q-6 10 -6 22q0 19 14 31q101 91 234 135q32 10 50 -20l67 -116q52 10 95 10q38 0 96 -10l67 116q18 30 50 20q133 -44 234 -135q14 -12 14 -31q0 -12 -6 -22l-68 -118q63 -74 94 -164h137q15 0 26.5 -9.5t14.5 -23.5zM1855 192q79 0 135.5 56t56.5 136t-56.5 136
t-135.5 56t-135.5 -56t-56.5 -136t56.5 -136t135.5 -56z" />
    <glyph glyph-name="comments" unicode="COMMENTS" horiz-adv-x="2560" 
d="M1664 1088q0 -143 -66 -273.5t-177 -225t-265.5 -150t-323.5 -55.5q-224 0 -418 96q-185 -96 -383 -96q-20 0 -28 18q-8 19 5 34q7 7 27 30.5t61.5 82.5t70.5 117q-167 189 -167 422q0 143 66 273.5t177 225t265.5 150t323.5 55.5t323.5 -55.5t265.5 -150t177 -225
t66 -273.5zM2398 17q29 -56 69 -112.5t59 -79t26 -29.5q13 -15 5 -34q-7 -18 -28 -18q-188 0 -366 88q-173 -88 -371 -88q-269 0 -475 150.5t-269 383.5q212 42 381 158.5t266 287t97 364.5q0 22 -4 64h4q156 0 298.5 -55.5t245 -150t163.5 -225t61 -273.5q0 -240 -162 -431
z" />
    <glyph glyph-name="star-half" unicode="STAR&#x2d;HALF" horiz-adv-x="2304" 
d="M1152 34v1758q-36 0 -67 -18t-48 -53l-262 -530l-585 -85q-51 -7 -81.5 -45.5t-28.5 -87.5t39 -85l424 -412l-101 -582q-10 -61 30 -105.5t97 -44.5q29 0 59 15z" />
    <glyph glyph-name="thumbtack" unicode="THUMB&#x2d;TACK" horiz-adv-x="1536" 
d="M640 -32v292h256v-292q0 -8 -3 -14l-96 -189q-9 -18 -29 -18t-29 18l-96 189q-3 6 -3 14zM1192 935q153 -71 248.5 -189t95.5 -262q0 -37 -28.5 -65t-67.5 -28h-1344q-40 0 -68 27t-28 66q0 143 95.5 261.5t248.5 189.5l49 477h-169q-41 0 -68.5 27.5t-27.5 71.5v189
q0 37 28.5 64.5t67.5 27.5h1088q39 0 67.5 -27.5t28.5 -64.5v-200q0 -37 -28.5 -64.5t-67.5 -27.5h-169z" />
    <glyph glyph-name="trophy" unicode="TROPHY" horiz-adv-x="2304" 
d="M2288 1462q5 -21 8.5 -44t5.5 -100t-9 -149t-48.5 -172.5t-99.5 -188.5q-225 -335 -750 -469q-56 -14 -91 -61t-35 -105q0 -71 51.5 -122t122.5 -51h18q79 0 135.5 -56t56.5 -136q0 -27 -17 -45.5t-43 -18.5h-893q-24 0 -42 19t-18 45q0 80 56 136t136 56h18q72 0 123 51
t51 122q0 58 -35 105t-91 61q-525 134 -750 469q-59 88 -94 188.5t-45 172.5t-7.5 149t6 99.5t8.5 44.5q7 32 33.5 53t59.5 21h403q-2 104 1 132q2 52 39 88t89 36h1022q52 0 89 -36t39 -88q2 -77 1 -132h403q33 0 59.5 -21t33.5 -53zM310 913q142 -208 436 -325
q-190 297 -231 756h-321q-13 -241 116 -431zM1994 913q121 178 116 431h-321q-41 -459 -231 -756q294 117 436 325z" />
    <glyph glyph-name="upload" unicode="UPLOAD" 
d="M422 1062q-38 38 -38 90t38 90l512 512q38 38 90 38q53 0 91 -38l512 -512q37 -38 37 -91t-37 -90t-90 -37t-91 37l-294 294v-971q0 -53 -37.5 -90.5t-90.5 -37.5t-90.5 37.5t-37.5 90.5v971l-293 -293q-37 -38 -90 -38t-91 38zM1920 384q53 0 90.5 -37.5t37.5 -90.5
v-384q0 -53 -37.5 -90.5t-90.5 -37.5h-1792q-53 0 -90.5 37.5t-37.5 90.5v384q0 53 37.5 90.5t90.5 37.5h640q0 -106 75 -181t181 -75t181 75t75 181h640zM1728 -32q40 0 68 28t28 68t-28 68t-68 28t-68 -28t-28 -68t28 -68t68 -28z" />
    <glyph glyph-name="lemon" unicode="LEMON" horiz-adv-x="1792" 
d="M1712 1584q60 -60 76 -135t-17 -128q-24 -41 -28.5 -101t1 -127t12 -146t-1.5 -167.5t-33 -180.5t-89.5 -197t-164.5 -205t-205 -164.5t-196.5 -89.5t-180.5 -33t-168 -1.5t-146 12t-127 1t-101 -28.5q-53 -32 -127.5 -16t-134.5 76t-76 134.5t16 127.5q24 41 28.5 101
t-1 127t-12 146t1.5 167.5t33 180.5t89.5 197t164.5 205t205 164.5t196.5 89.5t180.5 33t168 1.5t146 -12t127 -1t101 28.5q53 33 128 17t135 -76zM848 1282q26 7 39.5 30t6.5 48t-29.5 38.5t-48.5 7.5q-169 -43 -342 -216t-216 -342q-7 -25 6.5 -48t36.5 -27q5 -1 15 -1
q55 0 66 44q34 133 183.5 282.5t282.5 183.5z" />
    <glyph glyph-name="phone" unicode="Phone" 
d="M2045 244q10 43 -11.5 84.5t-61.5 62.5l-434 186q-38 16 -79 6t-67 -42l-176 -215q-208 102 -372 266t-266 372l215 173q32 26 42 66.5t-6 78.5l-186 434q-18 42 -58.5 62.5t-84.5 10.5l-403 -93q-43 -10 -70 -44t-27 -78q0 -248 66 -485.5t184 -438t287 -369.5
t369.5 -287t438 -184t485.5 -66q44 0 78 27t44 70z" />
    <glyph glyph-name="square-phone" unicode="PHONE&#x2d;SQUARE" horiz-adv-x="1792" 
d="M1536 1664q106 0 181 -75t75 -181v-1280q0 -106 -75 -181t-181 -75h-1280q-106 0 -181 75t-75 181v1280q0 106 75 181t181 75h1280zM1406 506q5 22 -5 42.5t-31 29.5l-217 93q-19 8 -39.5 3t-33.5 -21l-88 -108q-104 51 -186 133t-133 186l108 88q36 30 18 73l-93 217
q-9 21 -29.5 31.5t-42.5 5.5l-201 -47q-22 -5 -35.5 -22t-13.5 -39q0 -186 72.5 -355.5t195.5 -292t292 -195t355 -72.5q22 0 39 13.5t22 34.5z" />
    <glyph glyph-name="unlock" unicode="UNLOCK" horiz-adv-x="1792" 
d="M1792 640q0 106 -75 181t-181 75h-960v320q0 132 94 226t226 94t226 -94t94 -226v-64h256v64q0 117 -45.5 223.5t-123 184t-184 123t-223.5 45.5t-223.5 -45.5t-184 -123t-123 -184t-45.5 -223.5v-320l-64 -4q-106 0 -181 -75t-75 -181v-640q0 -104 75 -178t181 -74h1280
q106 0 181 75t75 181v640z" />
    <glyph glyph-name="credit-card" unicode="CREDIT&#x2d;CARD&#x2d;ALT" horiz-adv-x="2304" 
d="M2048 1664q106 0 181 -75t75 -181v-128h-2304v128q0 106 75 181t181 75h1792zM0 128v768h2304v-768q0 -106 -75 -181t-181 -75h-1792q-106 0 -181 75t-75 181zM764 352l4 -64q0 -14 9 -23t23 -9h576q14 0 23 9t9 23l-7 64q0 14 -9.5 23t-22.5 9h-573q-14 0 -23 -9t-9 -23
zM252 352l4 -64q0 -14 9 -23t23 -9h320q14 0 23 9t9 23l-4 64q0 14 -9 23t-23 9h-320q-14 0 -23 -9t-9 -23z" />
    <glyph glyph-name="rss" unicode="Feed" horiz-adv-x="1792" 
d="M102 1088q213 -14 411.5 -109.5t347.5 -244.5t243.5 -348.5t107.5 -411.5q2 -40 -23.5 -70t-65.5 -32h-7q-36 0 -63 26t-29 64q-16 238 -147.5 447.5t-341 340t-445.5 146.5q-40 2 -66 32t-24 70t32 66t70 24zM128 1664q226 0 441.5 -60t398 -167t336.5 -261t261 -336.5
t167 -398t60 -441.5q0 -53 -37.5 -90.5t-90.5 -37.5t-90.5 37.5t-37.5 90.5q0 191 -50.5 373.5t-141.5 337t-221 284.5t-284.5 221t-337 141.5t-373.5 50.5q-53 0 -90.5 37.5t-37.5 90.5t37.5 90.5t90.5 37.5zM252 384q108 0 182.5 -74.5t74.5 -181.5q0 -106 -76.5 -181
t-180.5 -75t-178 75t-74 181t74 181t178 75z" />
    <glyph glyph-name="hard-drive" unicode="HARD&#x2d;DRIVE" 
d="M1856 640q80 0 136 -56t56 -136v-384q0 -80 -56 -136t-136 -56h-1664q-80 0 -136 56t-56 136v384q0 80 56 136t136 56h1664zM1280 128q52 0 90 38t38 90t-38 90t-90 38t-90 -38t-38 -90t38 -90t90 -38zM1664 128q52 0 90 38t38 90t-38 90t-90 38t-90 -38t-38 -90t38 -90
t90 -38zM1856 1664q80 0 136 -56t56 -136v-770q-87 66 -192 66h-1664q-103 0 -192 -66v770q0 80 56 136t136 56h1664z" />
    <glyph glyph-name="bullhorn" unicode="BULLHORN" 
d="M1920 1052q58 -31 93 -90.5t35 -129.5q0 -69 -35 -127.5t-93 -92.5v-612q0 -23 -10 -50t-41 -52.5t-77 -25.5q-19 0 -42.5 9t-37.5 23l-344 268q-125 103 -280 157.5t-320 54.5h-28q-14 -54 -4.5 -111.5t26.5 -104t41 -87t38 -60t17 -22.5q28 -32 35.5 -76.5t-7.5 -86.5
t-47 -67t-71 -25h-256q-61 0 -99 54l-9 13.5t-18.5 30t-24.5 45t-27.5 59t-27 70.5t-23.5 80.5t-17 89.5t-6.5 96.5t6.5 101.5h-10q-106 0 -181 75t-75 181v384q0 106 75 181t181 75h512q164 0 320 54.5t284 157.5l340 272q34 28 80 28t77 -26t41 -53t10 -49v-612zM1664 266
v1132l-132 -106q-162 -130 -359 -199t-405 -69v-384q207 0 404.5 -69t359.5 -199z" />
    <glyph glyph-name="certificate" unicode="CERTIFICATE" 
d="M2018 588l-180 181l180 180q27 25 29.5 60t-17 64t-54.5 37l-251 64l67 248q15 53 -25.5 93.5t-93.5 25.5l-248 -71l-63 251q-13 51 -68.5 66.5t-93.5 -24.5l-176 -185l-180 185q-24 26 -59 29t-64 -16.5t-38 -54.5l-64 -251l-248 71q-53 15 -92 -25t-27 -94l71 -248
l-251 -64q-54 -13 -68 -67t26 -95l180 -180l-180 -180q-41 -39 -25.5 -92t71.5 -69l251 -64l-71 -248q-15 -53 25.5 -93.5t93.5 -25.5l248 71l63 -251q9 -36 38 -55.5t64.5 -16t59.5 29.5l176 184l180 -185q24 -26 59.5 -29t64.5 17t38 55l63 251l248 -71q53 -15 92 24.5
t27 94.5l-71 248l251 64q35 8 54.5 37t16.5 64t-29 60z" />
    <glyph glyph-name="hand-point-right" unicode="HAND&#x2d;POINT&#x2d;RIGHT" 
d="M896 512q0 53 37.5 90.5t90.5 37.5h256q53 0 90.5 -37.5t37.5 -90.5t-37.5 -90.5t-90.5 -37.5h-256q-53 0 -90.5 37.5t-37.5 90.5zM1070 768q18 49 18 96v160h320q53 0 90.5 -37.5t37.5 -90.5t-37.5 -90.5t-90.5 -37.5h-338zM1088 1152v224q0 5 -0.5 10t-1.5 11.5
t-1 10.5h835q53 0 90.5 -37.5t37.5 -90.5t-37.5 -90.5t-90.5 -37.5h-832zM1280 128q0 -53 -37.5 -90.5t-90.5 -37.5h-256q-53 0 -90.5 37.5t-37.5 90.5t37.5 90.5t90.5 37.5h256q53 0 90.5 -37.5t37.5 -90.5zM808 369q-74 -27 -121 -93t-47 -148q0 -66 36 -128h-132
q-148 0 -273 73t-198 198t-73 273v355q0 178 104 320l106 146q58 80 147.5 125.5t188.5 45.5h254q66 0 113 -47t47 -113v-512q0 -66 -47 -111t-113 -45q-78 0 -121 54.5t-43 114.5v279q3 23 -18 41.5t-46 18.5q-24 0 -42 -18t-18 -42v-292q0 -113 77 -195.5t189 -90.5
q-10 -35 -10 -66q0 -75 40 -143z" />
    <glyph glyph-name="hand-point-left" unicode="HAND&#x2d;POINT&#x2d;LEFT" 
d="M1024 640q53 0 90.5 -37.5t37.5 -90.5t-37.5 -90.5t-90.5 -37.5h-256q-53 0 -90.5 37.5t-37.5 90.5t37.5 90.5t90.5 37.5h256zM960 864q0 -47 18 -96h-338q-53 0 -90.5 37.5t-37.5 90.5t37.5 90.5t90.5 37.5h320v-160zM960 1376v-224h-832q-53 0 -90.5 37.5t-37.5 90.5
t37.5 90.5t90.5 37.5h835q0 -4 -1 -10.5t-1.5 -11.5t-0.5 -10zM896 0q-53 0 -90.5 37.5t-37.5 90.5t37.5 90.5t90.5 37.5h256q53 0 90.5 -37.5t37.5 -90.5t-37.5 -90.5t-90.5 -37.5h-256zM1408 128q0 82 -49 148t-123 93q44 64 44 143q0 31 -10 66q112 8 189 90.5t77 195.5
v292q0 24 -19 42t-45 18t-45 -18t-19 -42l-4 -279q0 -25 -9 -53t-27 -54.5t-50.5 -44t-73.5 -17.5q-64 0 -110 45.5t-46 110.5v512q0 66 47 113t113 47h254q98 0 186 -45t150 -126l106 -146q104 -142 104 -320v-355q0 -148 -73 -273t-198 -198t-273 -73h-132q36 62 36 128z
" />
    <glyph glyph-name="hand-point-up" unicode="HAND&#x2d;POINT&#x2d;UP" horiz-adv-x="1792" 
d="M1152 640q-53 0 -90.5 37.5t-37.5 90.5v256q0 53 37.5 90.5t90.5 37.5t90.5 -37.5t37.5 -90.5v-256q0 -53 -37.5 -90.5t-90.5 -37.5zM896 814q-49 18 -96 18h-160v320q0 53 37.5 90.5t90.5 37.5t90.5 -37.5t37.5 -90.5v-338zM512 832h-224q-5 0 -10 -0.5t-11.5 -1.5
t-10.5 -1v835q0 53 37.5 90.5t90.5 37.5t90.5 -37.5t37.5 -90.5v-832zM1536 1024q53 0 90.5 -37.5t37.5 -90.5v-256q0 -53 -37.5 -90.5t-90.5 -37.5t-90.5 37.5t-37.5 90.5v256q0 53 37.5 90.5t90.5 37.5zM1295 556q27 -74 93 -123t148 -49q66 0 128 36v-132
q0 -148 -73 -273t-198 -198t-273 -73h-355q-178 0 -320 104l-146 106q-80 59 -125.5 147.5t-45.5 188.5v254q0 66 47 113t113 47h512q66 0 111 -47t45 -113q0 -41 -17.5 -73.5t-44 -50.5t-54.5 -27t-53 -9h-279q-24 0 -42 -19t-18 -45t18 -45t42 -19h292q113 0 195.5 77
t90.5 189q35 -10 66 -10q68 0 143 44z" />
    <glyph glyph-name="hand-point-down" unicode="Hand&#x2d;point&#x2d;down" horiz-adv-x="1792" 
d="M1024 768q0 53 37.5 90.5t90.5 37.5t90.5 -37.5t37.5 -90.5v-256q0 -53 -37.5 -90.5t-90.5 -37.5t-90.5 37.5t-37.5 90.5v256zM800 704q47 0 96 18v-338q0 -53 -37.5 -90.5t-90.5 -37.5t-90.5 37.5t-37.5 90.5v320h160zM288 704h224v-832q0 -53 -37.5 -90.5t-90.5 -37.5
t-90.5 37.5t-37.5 90.5v835q4 0 10.5 -1t11.5 -1.5t10 -0.5zM1664 640q0 -53 -37.5 -90.5t-90.5 -37.5t-90.5 37.5t-37.5 90.5v256q0 53 37.5 90.5t90.5 37.5t90.5 -37.5t37.5 -90.5v-256zM1536 1152q-83 0 -148.5 -48t-92.5 -124q-64 44 -143 44q-31 0 -66 -10
q-8 112 -90.5 189t-195.5 77h-292q-24 0 -42 -19t-18 -45t18 -45.5t42 -22.5h279q25 0 53 -9t54.5 -27t44 -50.5t17.5 -73.5q0 -64 -45.5 -110t-110.5 -46h-512q-66 0 -113 47t-47 113v254q0 99 45.5 188.5t125.5 147.5l146 106q142 104 320 104h355q148 0 273 -73t198 -198
t73 -273v-132q-62 36 -128 36z" />
    <glyph glyph-name="circle-arrow-left" unicode="ARROW&#x2d;CIRCLE&#x2d;LEFT" 
d="M1024 1792q209 0 398.5 -81t326.5 -218t218 -326.5t81 -398.5t-81 -398.5t-218 -326.5t-326.5 -218t-398.5 -81t-398.5 81t-326.5 218t-218 326.5t-81 398.5t81 398.5t218 326.5t326.5 218t398.5 81zM1536 640q53 0 90.5 37.5t37.5 90.5t-37.5 90.5t-90.5 37.5h-715
l194 194q37 38 37 91t-37 90t-90 37t-91 -37l-412 -412q-38 -38 -38 -91q0 -52 38 -90l416 -417q38 -37 91 -37t90 37t37 90t-37 91l-198 198h715z" />
    <glyph glyph-name="circle-arrow-right" unicode="ARROW&#x2d;CIRCLE&#x2d;RIGHT" 
d="M1024 1792q209 0 398.5 -81t326.5 -218t218 -326.5t81 -398.5t-81 -398.5t-218 -326.5t-326.5 -218t-398.5 -81t-398.5 81t-326.5 218t-218 326.5t-81 398.5t81 398.5t218 326.5t326.5 218t398.5 81zM1626 678q38 38 38 90q0 53 -41 94l-412 413q-37 37 -90 37t-91 -37
t-38 -90t38 -91l197 -198h-715q-53 0 -90.5 -37.5t-37.5 -90.5t37.5 -90.5t90.5 -37.5h715l-194 -194q-37 -38 -37 -91t37 -90t90 -37t91 37z" />
    <glyph glyph-name="circle-arrow-up" unicode="Arrow&#x2d;circle&#x2d;up" 
d="M1024 1792q209 0 398.5 -81t326.5 -218t218 -326.5t81 -398.5t-81 -398.5t-218 -326.5t-326.5 -218t-398.5 -81t-398.5 81t-326.5 218t-218 326.5t-81 398.5t81 398.5t218 326.5t326.5 218t398.5 81zM1530 774q38 37 37.5 90.5t-40.5 93.5l-412 412q-38 38 -91 38
t-94 -41l-413 -412q-37 -37 -37 -90t37 -91t90 -38t91 38l198 197v-715q0 -53 37.5 -90.5t90.5 -37.5t90.5 37.5t37.5 90.5v715l197 -197q37 -38 90 -38t91 38z" />
    <glyph glyph-name="circle-arrow-down" unicode="ARROW&#x2d;CIRCLE&#x2d;DOWN" 
d="M1024 1792q209 0 398.5 -81t326.5 -218t218 -326.5t81 -398.5t-81 -398.5t-218 -326.5t-326.5 -218t-398.5 -81t-398.5 81t-326.5 218t-218 326.5t-81 398.5t81 398.5t218 326.5t326.5 218t398.5 81zM1530 582q38 38 38 90t-37 90t-90 38t-91 -38l-198 -197v715
q0 53 -37.5 90.5t-90.5 37.5t-90.5 -37.5t-37.5 -90.5v-715l-197 198q-37 37 -90 37t-91 -37t-38 -90t38 -91l415 -416q38 -38 91 -38q54 0 94 41z" />
    <glyph glyph-name="globe" unicode="GLOBE" 
d="M747 1687q-143 -193 -203 -535h-400q84 193 242.5 334t360.5 201zM640 768q0 132 14 256h740q14 -126 14 -256t-14 -256h-740q-14 126 -14 256zM1374 1152h-700q48 259 146.5 417.5t203.5 158.5t203.5 -158.5t146.5 -417.5zM1904 1152h-400q-58 340 -203 535
q203 -61 361 -201.5t242 -333.5zM1301 -151q143 193 203 535h400q-85 -191 -243.5 -332.5t-359.5 -202.5zM1948 1024q36 -134 36 -256q0 -128 -36 -256h-426q14 128 14 256t-14 256h426zM674 384h700q-48 -259 -146.5 -417.5t-203.5 -158.5t-203.5 158.5t-146.5 417.5z
M512 768q0 -128 14 -256h-426q-36 128 -36 256t36 256h426q-14 -128 -14 -256zM144 384h400q58 -340 203 -535q-204 61 -361 201.5t-242 333.5z" />
    <glyph glyph-name="wrench" unicode="WRENCH" 
d="M2030 1301q37 -153 -8 -307q-44 -185 -187 -316.5t-330 -160.5q-157 -25 -305 24l-712 -713q-41 -41 -95.5 -62.5t-108.5 -21.5q-53 0 -104.5 23t-91.5 65q-84 84 -84 203.5t84 203.5l712 713q-50 152 -20 301q29 187 160.5 330t316.5 187q156 37 303 1q36 -9 46 -45.5
t-16 -62.5l-306 -307v-332h332l306 306q26 26 62.5 16.5t45.5 -45.5zM320 -32q40 0 68 28t28 68t-28 68t-68 28t-68 -28t-28 -68t28 -68t68 -28z" />
    <glyph glyph-name="filter" unicode="Filter" 
d="M2018 1455q24 31 27 68t-11.5 68t-45.5 52t-71 21h-1786q-40 0 -71.5 -21t-46.5 -52t-11.5 -68.5t28.5 -67.5l738 -890v-373q0 -51 41 -79l320 -224q47 -33 99 -6t52 85v597z" />
    <glyph glyph-name="briefcase" unicode="BRIEFCASE" 
d="M1280 448v192h768v-576q0 -76 -58 -134t-134 -58h-1664q-76 0 -134 58t-58 134v576h768v-192q0 -26 19 -45t45 -19h384q26 0 45 19t19 45zM1856 1408q76 0 134 -58t58 -134v-448h-2048v448q0 76 58 134t134 58h320v192q0 76 58 134t134 58h640q76 0 134 -58t58 -134v-192
h320zM1344 1408v192h-640v-192h640z" />
    <glyph glyph-name="up-down-left-right" unicode="ARROWS&#x2d;ALT" 
d="M2048 768q0 42 -32 71l-320 288q-46 41 -103 17q-26 -11 -41.5 -35t-15.5 -53v-160h-387v384h160q29 0 52.5 15.5t34.5 41.5t7 54t-23 49l-288 320q-28 30 -72 30t-71 -30l-284 -320q-42 -45 -17 -103q11 -26 35 -41.5t53 -15.5h156v-384h-380v160q0 28 -15.5 52.5
t-41.5 35.5q-57 24 -103 -17l-320 -288q-32 -29 -32 -71t32 -71l320 -288q28 -25 64 -25q22 0 39 8q26 11 41.5 35t15.5 53v160h380v-384h-156q-29 0 -53 -15.5t-35 -41.5q-24 -57 17 -103l284 -320q29 -32 71 -32q46 0 75 32l288 320q41 46 17 103q-11 26 -35 41.5
t-53 15.5h-160v384h384v-160q0 -29 15.5 -53t41.5 -35q17 -8 39 -8q36 0 64 25l320 288q32 29 32 71z" />
    <glyph glyph-name="users" unicode="GROUP" horiz-adv-x="2560" 
d="M1280 512q-173 0 -294.5 122t-118.5 294q0 173 120.5 294.5t292.5 121.5q170 0 291 -122t121 -294q0 -173 -120 -294.5t-292 -121.5zM1480 384q154 0 285 -71.5t207 -194t76 -267.5q0 -44 -33.5 -75.5t-80.5 -31.5h-1308q-47 0 -80.5 31.5t-33.5 75.5q0 145 76 267.5
t207 194t285 71.5h400zM2048 1152q-133 0 -226.5 93.5t-93.5 226.5t93.5 226.5t226.5 93.5t226.5 -93.5t93.5 -226.5t-93.5 -226.5t-226.5 -93.5zM736 928q0 -199 132 -352h-798q-29 0 -49.5 22t-20.5 53q0 155 103 264t249 109h248q83 0 142 -32q-6 -42 -6 -64zM512 1152
q-133 0 -226.5 93.5t-93.5 226.5t93.5 226.5t226.5 93.5t226.5 -93.5t93.5 -226.5t-93.5 -226.5t-226.5 -93.5zM2208 1024q146 0 249 -109t103 -264q0 -31 -21 -53t-50 -22h-798q132 153 132 352q0 10 -1 20.5t-2.5 23t-2.5 19.5q69 33 143 33h248z" />
    <glyph glyph-name="link" unicode="CHAIN" horiz-adv-x="2560" 
d="M2394 1626q161 -161 166 -386q2 -114 -40 -221.5t-126 -191.5l-533 -533q-81 -81 -184.5 -123.5t-214.5 -42.5t-215 42t-185 124q-90 90 -132 208t-30.5 240t72.5 230q54 52 126 52q76 0 129 -53q15 -15 30 -45l-18 -14q-91 -91 -91 -218q0 -124 95 -219q91 -91 219 -91
q123 0 218 90l533 534q91 91 91 219q0 127 -91 218t-219 91q-127 0 -218 -91l-152 -152q-27 33 -35 40q-65 65 -168 120l174 173q81 81 184.5 123.5t214.5 42.5q228 0 400 -166zM936 242q3 -3 15 -17.5t20 -21.5q65 -65 168 -120l-174 -173q-81 -81 -184.5 -123.5
t-214.5 -42.5t-215 42t-185 123t-123.5 185t-42.5 215t42.5 215t123.5 185l533 533q81 81 184.5 123.5t214.5 42.5q230 0 400 -166q90 -90 132 -208t30.5 -240t-72.5 -230q-54 -52 -126 -52q-74 0 -129 53q-15 15 -30 45l14 14q91 91 91 219q0 127 -91 218t-219 91t-218 -90
l-533 -534q-91 -91 -91 -219q0 -127 91 -218t219 -91q122 0 218 91z" />
    <glyph glyph-name="cloud" unicode="CLOUD" horiz-adv-x="2560" 
d="M2560 384q0 185 -116.5 325.5t-293.5 176.5q26 70 26 138q0 159 -112.5 271.5t-271.5 112.5q-116 0 -213 -65q-85 147 -232.5 234t-322.5 87q-130 0 -248.5 -50.5t-204.5 -136.5t-136.5 -204.5t-50.5 -248.5q0 -6 0.5 -16t0.5 -16q-170 -60 -277.5 -209t-107.5 -335
q0 -117 45.5 -223.5t123 -184t184 -123t223.5 -45.5h1472q212 0 362 150t150 362z" />
    <glyph glyph-name="flask" unicode="FLASK" horiz-adv-x="1792" 
d="M1749 178q43 -68 42.5 -146.5t-35 -141.5t-101 -104.5t-147.5 -41.5h-1224q-81 0 -147.5 41.5t-101 104.5t-35 141.5t42.5 146.5l469 754l-7 604h-29q-37 0 -64.5 28.5t-27.5 67.5v64q0 40 28 68t68 28h825q37 0 64.5 -28.5t27.5 -67.5v-64q0 -40 -26.5 -68t-65.5 -28
h-29v-604zM548 512h692l-193 310q-23 34 -23 74v640h-256v-640q0 -43 -27 -73z" />
    <glyph glyph-name="scissors" unicode="CUT" 
d="M1343 679l686 -687q19 -19 19 -45t-19 -45q-94 -94 -226 -94t-226 94l-506 505zM2029 1544l-1175 -1172q55 -122 30.5 -260t-123.5 -237q-64 -64 -147.5 -97.5t-169.5 -33.5q-181 0 -316 131q-131 131 -131 317t131 317t316 131q53 0 121 -18l145 146l-149 145
q-65 -17 -117 -17q-86 0 -167.5 33.5t-145.5 97.5q-131 131 -131 317t131 317t313 131q190 0 321 -131q99 -99 123 -237t-31 -260l125 -124l595 594q94 94 226 94t226 -94q19 -19 19 -45t-19 -45zM448 1152q80 0 136 56t56 136t-56 136t-136 56t-136 -56t-56 -136t56 -136
t136 -56zM448 0q80 0 136 56t56 136t-56 136t-136 56t-136 -56t-56 -136t56 -136t136 -56z" />
    <glyph glyph-name="copy" unicode="Copy" 
d="M1536 1408q0 -53 38.5 -90.5t93.5 -37.5h380v-832q0 -80 -56 -136t-136 -56h-768q-80 0 -136 56t-56 136v1152q0 80 56 136t136 56h448v-384zM1664 1792l384 -384h-384v384zM768 384q0 -106 75 -181t181 -75h128v-192q0 -80 -56 -136t-136 -56h-768q-80 0 -136 56
t-56 136v1152q0 80 56 136t136 56h576v-896z" />
    <glyph glyph-name="paperclip" unicode="PAPERCLIP" horiz-adv-x="1536" 
d="M1408 1284q0 146 -76.5 268t-207 187.5t-279.5 50.5q-130 -13 -236.5 -89.5t-165.5 -194t-59 -249.5v-681q0 -142 105 -237.5t248 -80.5q123 13 205 111.5t82 225.5v621q0 26 -19 45t-45 19h-128q-26 0 -45 -19t-19 -45v-640q0 -26 -19 -45t-45 -19t-45 19t-19 45v704
q0 117 90 194t209 58q93 -16 153 -92.5t60 -173.5v-818q0 -102 -44.5 -193.5t-118 -152.5t-174 -87.5t-205.5 -4.5q-155 32 -254.5 160.5t-99.5 290.5v499q0 26 -19 45t-45 19h-128q-26 0 -45 -19t-19 -45v-481q0 -136 48 -264t131 -226t202 -162t253 -76q154 -15 297.5 35
t247.5 145.5t166.5 232.5t62.5 288v832z" />
    <glyph glyph-name="floppy-disk" unicode="FLOPPY&#x2d;DISK" horiz-adv-x="1792" 
d="M1732 1276q25 -25 42.5 -66t17.5 -74v-1008q0 -106 -75 -181t-181 -75h-1280q-106 0 -181 75t-75 181v1280q0 106 75 181t181 75h1008q33 0 72.5 -16t60.5 -37zM896 128q106 0 181 75t75 181t-75 181t-181 75t-181 -75t-75 -181t75 -181t181 -75zM1280 960v384
q0 26 -19 45t-45 19h-896q-26 0 -45 -19t-19 -45v-384q0 -26 19 -45t45 -19h896q26 0 45 19t19 45z" />
    <glyph glyph-name="square" unicode="SQUARE" horiz-adv-x="1792" 
d="M1792 1412q0 104 -75.5 179.5t-180.5 72.5h-1280q-106 0 -181 -73.5t-75 -178.5v-1280q0 -106 75 -181t181 -75h1280q106 0 181 75t75 181v1280z" />
    <glyph glyph-name="bars" unicode="Bars" horiz-adv-x="1792" 
d="M1664 896q53 0 90.5 -37.5t37.5 -90.5t-38.5 -90.5t-93.5 -37.5h-1536q-51 0 -87.5 37.5t-36.5 90.5t36.5 90.5t87.5 37.5h1540zM1664 256q53 0 90.5 -37.5t37.5 -90.5t-38.5 -90.5t-93.5 -37.5h-1536q-50 0 -87 40.5t-37 91.5q0 50 37 87t87 37h1540zM1664 1536
q53 0 90.5 -37.5t37.5 -90.5t-38.5 -90.5t-93.5 -37.5h-1536q-50 0 -87 40.5t-37 91.5q0 50 37 87t87 37h1540z" />
    <glyph glyph-name="list-ul" unicode="LIST&#x2d;DOTS" 
d="M192 960q80 0 136 -56t56 -136t-56 -136t-136 -56t-136 56t-56 136t56 136t136 56zM192 320q80 0 136 -56t56 -136t-56 -136t-136 -56t-136 56t-56 136t56 136t136 56zM192 1600q80 0 136 -56t56 -136t-56 -136t-136 -56t-136 56t-56 136t56 136t136 56zM768 1280
q-52 0 -90 40.5t-38 91.5t37.5 87.5t90.5 36.5h1152q52 0 90 -40.5t38 -91.5t-37.5 -87.5t-90.5 -36.5h-1152zM1920 896q53 0 90.5 -37.5t37.5 -90.5t-37.5 -90.5t-90.5 -37.5h-1152q-53 0 -90.5 37.5t-37.5 90.5t37.5 90.5t90.5 37.5h1152zM1920 256q53 0 90.5 -37.5
t37.5 -90.5t-37.5 -90.5t-90.5 -37.5h-1152q-53 0 -90.5 37.5t-37.5 90.5t37.5 90.5t90.5 37.5h1152z" />
    <glyph glyph-name="list-ol" unicode="LIST&#x2d;NUMERIC" 
d="M1920 896q53 0 90.5 -37.5t37.5 -90.5t-37.5 -90.5t-90.5 -37.5h-1024q-53 0 -90.5 37.5t-37.5 90.5t37.5 90.5t90.5 37.5h1024zM896 1280q-53 0 -90.5 37.5t-37.5 90.5t37.5 90.5t90.5 37.5h1024q53 0 90.5 -37.5t37.5 -90.5t-37.5 -90.5t-90.5 -37.5h-1024zM1920 256
q53 0 90.5 -37.5t37.5 -90.5t-37.5 -90.5t-90.5 -37.5h-1024q-53 0 -90.5 37.5t-37.5 90.5t37.5 90.5t90.5 37.5h1024zM160 896q-40 0 -68 28t-28 68t28 68t68 28h64v315q-32 -11 -65 0.5t-50 41.5q-20 35 -10 73t45 58l128 75q47 28 96 0q48 -27 48 -83v-476h64
q40 0 68 -27t28 -69t-28 -71t-68 -29h-320zM545 64q40 0 68 -29t28 -71q0 -37 -28.5 -64.5t-67.5 -27.5h-449q-30 0 -54.5 17t-35.5 45t-3.5 57t29.5 48l335 299q31 27 34.5 67t-22.5 71q-27 32 -70 35q-44 3 -76 -24l-50 -43q-30 -26 -69.5 -23t-65.5 33t-23 69.5t33 65.5
l50 43q93 80 216 71q127 -10 201 -103q77 -91 67.5 -210t-99.5 -196l-146 -130h198z" />
    <glyph glyph-name="strikethrough" unicode="STRIKETHROUGH" 
d="M1329 512h313q37 -105 14 -236q-38 -224 -227 -328q-138 -76 -335 -76q-286 0 -630 141q-49 20 -70 69t-1 98t69 69.5t98 0.5q232 -95 435 -116t309 38q82 46 99 148q11 66 -6 111t-68 81zM1952 832q39 0 67.5 -27.5t28.5 -64.5t-28.5 -64.5t-67.5 -27.5h-1856
q-40 0 -68 26.5t-28 65.5q0 37 28.5 64.5t67.5 27.5h453q-203 156 -157 428q16 96 69 175.5t136 132.5q275 177 825 31q51 -13 78 -59.5t13 -97.5t-59.5 -77.5t-96.5 -13.5q-442 117 -622 1q-76 -49 -91 -136q-4 -26 -4.5 -47.5t4 -41.5t12.5 -37t23 -33t33 -30t45 -28
t56 -26.5t68.5 -26.5t81.5 -27t96 -28q120 -34 187 -58z" />
    <glyph glyph-name="underline" unicode="UNDERLINE" horiz-adv-x="1792" 
d="M1664 0q53 0 90.5 -37.5t37.5 -90.5t-37.5 -90.5t-90.5 -37.5h-1536q-53 0 -90.5 37.5t-37.5 90.5t37.5 90.5t90.5 37.5h1536zM192 1536q-52 0 -90 40.5t-38 91.5t37.5 87.5t90.5 36.5h384q53 0 90.5 -37.5t37.5 -90.5t-37.5 -90.5t-90.5 -37.5h-64v-640
q0 -157 113 -270.5t271 -113.5q159 0 271.5 110.5t112.5 269.5v640h-64q-53 0 -90.5 37.5t-37.5 90.5t37.5 90.5t90.5 37.5h384q54 0 91 -35.5t37 -88.5t-37.5 -90.5t-90.5 -37.5h-64v-640q0 -129 -51 -246.5t-136.5 -203t-204 -136t-248.5 -50.5t-248.5 50t-204.5 135
t-136.5 203t-50.5 248v640h-64z" />
    <glyph glyph-name="table" unicode="Table" 
d="M1792 1664q107 0 181 -75t72 -181v-1280q0 -106 -75 -181t-181 -75h-1533q-106 0 -181 75t-75 181v1280q0 106 75 181t181 75h1536zM896 128v384h-640v-384h640zM896 768v384h-640v-384h640zM1792 128v384h-640v-384h640zM1792 768v384h-640v-384h640z" />
    <glyph glyph-name="wand-magic" unicode="MAGIC" 
d="M1992 1600q56 -56 56 -136t-56 -136l-1529 -1528q-56 -56 -135.5 -56t-135.5 56l-136 136q-56 56 -56 136t56 136l1528 1528q56 56 136 56t136 -56zM1389 1043l422 421l-91 91l-421 -422z" />
    <glyph glyph-name="truck" unicode="TRUCK" horiz-adv-x="2560" 
d="M2496 384q26 0 45 -19t19 -45v-128q0 -26 -19 -45t-45 -19h-192q0 -159 -112.5 -271.5t-271.5 -112.5t-271.5 112.5t-112.5 271.5h-512q0 -159 -112.5 -271.5t-271.5 -112.5t-271.5 112.5t-112.5 271.5h-64q-80 0 -136 56t-56 136v1280q0 80 56 136t136 56h1280
q80 0 136 -56t56 -136v-192h203q106 0 181 -75l309 -309q75 -75 75 -181v-459h64zM640 -64q80 0 136 56t56 136t-56 136t-136 56t-136 -56t-56 -136t56 -136t136 -56zM1664 1152v-384h512v75l-309 309h-203zM1920 -64q80 0 136 56t56 136t-56 136t-136 56t-136 -56t-56 -136
t56 -136t136 -56z" />
    <glyph glyph-name="money-bill" unicode="MONEY&#x2d;BILL" horiz-adv-x="2304" 
d="M2112 1536q80 0 136 -56t56 -136v-1152q0 -80 -56 -136t-136 -56h-1920q-80 0 -136 56t-56 136v1152q0 80 56 136t136 56h1920zM192 192h256q0 106 -75 181t-181 75v-256zM192 1088q106 0 181 75t75 181h-256v-256zM1152 384q133 0 226.5 112.5t93.5 271.5t-93.5 271.5
t-226.5 112.5t-226.5 -112.5t-93.5 -271.5t93.5 -271.5t226.5 -112.5zM2112 192v256q-106 0 -181 -75t-75 -181h256zM2112 1088v256h-256q0 -106 75 -181t181 -75z" />
    <glyph glyph-name="caret-down" unicode="CARET&#x2d;DOWN" horiz-adv-x="1280" 
d="M1242 806q27 27 33.5 65t-8.5 74t-47.5 57.5t-71.5 21.5h-1020q-39 0 -71 -21.5t-47 -57.5t-7 -74t38 -65l508 -512q38 -38 91 -38q51 0 94 38z" />
    <glyph glyph-name="caret-up" unicode="Caret&#x2d;up" horiz-adv-x="1280" 
d="M38 730q-28 -27 -35.5 -65t7.5 -74t47 -57.5t71 -21.5h1020q41 0 72.5 21.5t46.5 57.5t7.5 73.5t-35.5 65.5l-508 512q-38 38 -91 38q-51 0 -94 -38z" />
    <glyph glyph-name="caret-left" unicode="CARET&#x2d;LEFT" horiz-adv-x="1024" 
d="M550 166q27 -27 65 -33.5t74 8.5t57.5 47.5t21.5 71.5v1020q0 39 -21.5 71t-57.5 47t-73.5 8t-65.5 -35l-512 -509q-38 -38 -38 -90q0 -55 38 -98z" />
    <glyph glyph-name="caret-right" unicode="CARET&#x2d;RIGHT" horiz-adv-x="1024" 
d="M474 1370q-27 28 -65 35.5t-74 -7.5t-57.5 -47t-21.5 -71v-1020q0 -82 79 -115q36 -15 73.5 -7.5t65.5 35.5l512 508q38 38 38 91q0 47 -38 90z" />
    <glyph glyph-name="table-columns" unicode="COLUMNS" 
d="M1792 1664q106 0 181 -75t75 -181v-1280q0 -106 -75 -181t-181 -75h-1536q-106 0 -181 75t-75 181v1280q0 106 75 181t181 75h1536zM896 128v1024h-640v-1024h640zM1792 128v1024h-640v-1024h640z" />
    <glyph glyph-name="sort" unicode="SORT" horiz-adv-x="1280" 
d="M111 896q-35 0 -63 20t-39.5 48t-6.5 61.5t30 58.5l530 548q31 32 78 32q46 0 78 -32l530 -548q25 -25 30 -58.5t-6.5 -61.5t-39.5 -48t-63 -20h-1058zM1169 640q35 0 62.5 -20t39.5 -48t6.5 -61.5t-30.5 -58.5l-529 -548q-32 -32 -78 -32q-47 0 -78 32l-530 548
q-25 25 -30 58.5t6.5 61.5t39.5 48t63 20h1058z" />
    <glyph glyph-name="sort-down" unicode="SORT&#x2d;DOWN" horiz-adv-x="1280" 
d="M1248 452q25 25 30 58.5t-6.5 61.5t-39.5 48t-63 20h-1058q-35 0 -62.5 -20t-39.5 -48t-6.5 -61.5t30.5 -58.5l529 -548q31 -32 78 -32q46 0 78 32z" />
    <glyph glyph-name="sort-up" unicode="SORT&#x2d;ASC" horiz-adv-x="1280" 
d="M111 896q-35 0 -63 20t-39.5 48t-6.5 61.5t30 58.5l530 548q31 32 78 32q46 0 78 -32l530 -548q25 -25 30 -58.5t-6.5 -61.5t-39.5 -48t-63 -20h-1058z" />
    <glyph glyph-name="envelope" unicode="ENVELOPE" 
d="M1024 384q106 0 189 65l835 650v-907q0 -80 -56 -136t-136 -56h-1664q-80 0 -136 56t-56 136v907l835 -649q84 -66 189 -66zM65 1211q-65 51 -65 133q0 80 56 136t136 56h1664q80 0 136 -56t56 -136q0 -77 -65 -133l-849 -661q-49 -38 -110 -38t-110 38z" />
    <glyph glyph-name="arrow-rotate-left" unicode="ARROW&#x2d;ROTATE&#x2d;BACKWARD" 
d="M1920 768q0 182 -71 348t-191 286t-286 191t-348 71q-208 0 -392.5 -91t-311.5 -254v281q0 53 -37.5 90.5t-90.5 37.5t-90.5 -37.5t-37.5 -90.5v-576q0 -53 37.5 -90.5t90.5 -37.5h576q53 0 90.5 37.5t37.5 90.5t-37.5 90.5t-90.5 37.5h-254q90 120 225.5 187.5
t285.5 67.5q130 0 248.5 -50.5t204 -136.5t136 -204t50.5 -248t-50.5 -248t-136.5 -204t-204 -136.5t-248 -50.5q-215 0 -384 128q-42 31 -94.5 23.5t-84.5 -49.5q-32 -43 -24.5 -95.5t50.5 -83.5q240 -180 536 -180q182 0 348 71t286 191t191 286t71 348z" />
    <glyph glyph-name="gavel" unicode="GAVEL" 
d="M2048 927q0 -45 -35 -61l-498 -498q-28 -28 -68 -28t-68 28l-90 91q-29 23 -29 64q0 35 29 64l22 23l-452 452l-23 -22q-22 -28 -64 -28q-37 0 -65 28l-90 90q-28 28 -28 68q0 38 28 68l498 498q28 28 68 28q41 0 67 -35l91 -91q28 -22 28 -64q0 -37 -28 -65l-23 -22
l460 -453l22 23q22 28 65 28q36 0 64 -28l91 -90q28 -28 28 -68zM911 840l181 -185l-234 -234q38 -38 38 -90q0 -53 -38 -91l-459 -458q-38 -38 -90 -38t-90 38l-181 181q-38 38 -38 90q0 53 38 91l458 458q38 38 91 38t91 -38z" />
    <glyph glyph-name="gauge-simple" unicode="Gauge&#x2d;simple&#x2d;high" horiz-adv-x="2304" 
d="M1152 1664q234 0 447.5 -91.5t367.5 -245.5t245.5 -367.5t91.5 -447.5q0 -311 -156 -579q-16 -28 -46.5 -44.5t-63.5 -16.5h-1772q-33 0 -63.5 16.5t-46.5 44.5q-156 268 -156 579q0 234 91.5 447.5t245.5 367.5t367.5 245.5t447.5 91.5zM1805 966q24 31 18 71t-38 64
t-71 18.5t-63 -37.5l-434 -579q-31 9 -65 9q-106 0 -181 -75t-75 -181q0 -66 36 -128h441q35 60 35 128q0 71 -38 131z" />
    <glyph glyph-name="bolt" unicode="BOLT" horiz-adv-x="1536" 
d="M1492 672q30 26 39 64t-7 73q-14 37 -47 60t-73 23h-446l308 718q18 41 6 84.5t-48 69.5t-81 24.5t-79 -31.5l-1020 -893q-30 -26 -40 -64.5t4 -76.5q14 -37 47 -60t73 -23h446l-308 -718q-18 -41 -5.5 -84.5t48.5 -69.5q33 -24 75 -24q47 0 88 35z" />
    <glyph glyph-name="sitemap" unicode="SITEMAP" horiz-adv-x="2560" 
d="M512 384q52 0 90 -38t38 -90v-384q0 -52 -38 -90t-90 -38h-384q-52 0 -90 38t-38 90v384q0 52 38 90t90 38h384zM416 704v-192h-192v230q0 63 45 108.5t109 45.5h806v256h-160q-52 0 -90 38t-38 90v384q0 52 38 90t90 38h512q52 0 90 -38t38 -90v-384q0 -52 -38 -90
t-90 -38h-160v-256h806q64 0 109 -45.5t45 -108.5v-230h-192v192h-768v-192h-192v192h-768zM1472 384q52 0 90 -38t38 -90v-384q0 -52 -38 -90t-90 -38h-384q-52 0 -90 38t-38 90v384q0 52 38 90t90 38h384zM2432 384q52 0 90 -38t38 -90v-384q0 -52 -38 -90t-90 -38h-384
q-52 0 -90 38t-38 90v384q0 52 38 90t90 38h384z" />
    <glyph glyph-name="umbrella" unicode="Umbrella" horiz-adv-x="2304" 
d="M1020 585q63 52 132 58q67 0 128 -54v-521q0 -135 -94.5 -229.5t-229.5 -94.5q-99 0 -182 59t-119 155q-18 49 5 97t73 66t97.5 -5t65.5 -73q16 -43 60 -43q26 0 45 19t19 45v521zM2303 668q5 -19 -6.5 -37t-30.5 -22t-42 14q-79 83 -158 119t-159.5 23.5t-161 -85.5
t-155.5 -205q-16 -28 -40 -27t-39 27l-6 13q-6 12 -13 25t-19.5 33.5t-26 39.5t-33 42t-39.5 42.5t-46 37.5t-53 31t-60 21t-67 8q-52 0 -99 -18t-81.5 -43.5t-69.5 -68.5t-57.5 -77.5t-51.5 -85.5q-15 -26 -39 -27t-40 27q-75 132 -155.5 205t-160.5 86t-159.5 -23
t-158.5 -120q-30 -27 -56 -6.5t-19 51.5q34 160 105.5 300t169 246.5t217.5 187t253 128t274 62.5v72q0 53 39 90.5t93 37.5q53 0 90.5 -37.5t37.5 -90.5v-72q141 -15 275 -62.5t255 -128t218.5 -186.5t169.5 -246.5t105 -300.5z" />
    <glyph glyph-name="paste" unicode="FILE&#x2d;CLIPBOARD" 
d="M1280 1408h-192q-133 0 -226.5 -93.5t-93.5 -226.5v-1088h-576q-80 0 -136 56t-56 136v1280q0 80 56 136t136 56h226q34 58 93.5 93t128.5 35t128.5 -35t93.5 -93h226q80 0 136 -56t56 -136v-64zM640 1440q40 0 68 28t28 68t-28 68t-68 28t-68 -28t-28 -68t28 -68t68 -28
zM1664 1280l384 -384h-384v384zM1536 896q0 -52 38 -90t90 -38h384v-832q0 -80 -56 -136t-136 -56h-768q-80 0 -136 56t-56 136v1152q0 80 56 136t136 56h448v-384z" />
    <glyph glyph-name="lightbulb" unicode="LIGHTBULB" horiz-adv-x="1536" 
d="M448 -25v157h640l-1 -157q0 -39 -21 -71l-68 -103q-16 -24 -47 -40.5t-60 -16.5h-246q-29 0 -60 16.5t-47 40.5l-68 103q-22 33 -22 71zM766 1792q144 0 274.5 -55.5t225 -149t150.5 -223.5t56 -272q0 -134 -45.5 -253.5t-128.5 -210.5q-57 -64 -119 -168.5t-90 -196.5
q0 -1 -0.5 -2t-0.5 -2h-640q0 1 -0.5 2t-0.5 2q-28 92 -90 196.5t-119 168.5q-174 200 -174 464q0 137 53 264.5t144.5 223.5t223.5 154t281 58zM768 1408q27 0 45.5 17t18.5 43t-19 45t-45 19q-186 0 -317 -129.5t-131 -314.5q0 -26 19 -45t45 -19q27 0 45.5 19.5
t18.5 48.5q0 130 94 223t226 93z" />
    <glyph glyph-name="cloud-arrow-down" unicode="Cloud&#x2d;download&#x2d;alt" horiz-adv-x="2560" 
d="M2150 886q177 -36 293.5 -176.5t116.5 -325.5q0 -212 -150 -362t-362 -150h-1472q-117 0 -223.5 45.5t-184 123t-123 184t-45.5 223.5q0 186 107.5 334.5t277.5 208.5q0 5 -0.5 16t-0.5 17q0 130 50.5 248.5t136.5 204.5t204.5 136.5t248.5 50.5q175 0 322.5 -87
t232.5 -234q97 65 213 65q159 0 271.5 -112.5t112.5 -271.5q0 -68 -26 -138zM1696 512q31 25 32 64.5t-28 67.5q-28 28 -68 28t-68 -28l-188 -188v600q0 40 -28 68t-68 28t-68 -28t-28 -68v-600l-188 188q-28 28 -68 28t-68 -28t-28 -68t28 -68l352 -352q28 -28 68 -28
q23 0 40.5 10t23.5 22z" />
    <glyph glyph-name="cloud-arrow-up" unicode="CLOUD&#x2d;UPLOAD&#x2d;ALT" horiz-adv-x="2560" 
d="M2150 886q177 -36 293.5 -176.5t116.5 -325.5q0 -212 -150 -362t-362 -150h-1472q-117 0 -223.5 45.5t-184 123t-123 184t-45.5 223.5q0 186 107.5 334.5t277.5 208.5q0 5 -0.5 16t-0.5 17q0 130 50.5 248.5t136.5 204.5t204.5 136.5t248.5 50.5q175 0 322.5 -87
t232.5 -234q97 65 213 65q159 0 271.5 -112.5t112.5 -271.5q0 -68 -26 -138zM860 772q-28 -29 -29.5 -66t26.5 -66q29 -28 68 -28t67 28l192 184v-600q0 -40 28 -68t68 -28t68 28t28 68v600l188 -188q28 -28 68 -28t68 28t28 68t-28 68l-352 352q-28 28 -68 28t-68 -28z" />
    <glyph glyph-name="user-doctor" unicode="USER&#x2d;DOCTOR" horiz-adv-x="1792" 
d="M896 768q-212 0 -362 150t-150 362t150 362t362 150t362 -150t150 -362t-150 -362t-362 -150zM1280 551q224 -61 368 -246t144 -422q0 -58 -40.5 -98.5t-98.5 -40.5h-1514q-58 0 -98.5 40.5t-40.5 98.5q0 237 144.5 422.5t368.5 246.5v-242q-70 -21 -115 -80t-45 -134
q0 -93 65.5 -158.5t158.5 -65.5t158.5 65.5t65.5 158.5q0 75 -45 134t-115 80v263q51 3 52 3h406q27 0 54 -3v-230q-84 -22 -138 -95t-54 -163v-117q0 -26 19 -45l41 -41q9 -9 22.5 -9t22.5 9l46 45q9 9 9 22.5t-9 22.5l-24 23v101q0 58 45 97t105 30q47 -8 76.5 -46.5
t29.5 -87.5v-94l-22 -23q-9 -9 -9 -22.5t9 -22.5l45 -45q9 -9 22.5 -9t22.5 9l42 41q18 18 18 45v128q0 88 -54 156.5t-138 89.5v209zM481 96q0 40 28 68t68 28t68 -28t28 -68t-28 -68t-68 -28t-68 28t-28 68z" />
    <glyph glyph-name="stethoscope" unicode="STETHOSCOPE" horiz-adv-x="2304" 
d="M1920 1344q133 0 226.5 -93.5t93.5 -226.5q0 -97 -53 -176.5t-139 -116.5v-315q0 -182 -94.5 -337t-256.5 -245t-353 -90q-141 0 -269.5 51.5t-222.5 139t-151 208.5t-61 254q-221 45 -366.5 221t-145.5 406v622q0 34 21.5 60.5t55.5 33.5l252 50q39 8 71.5 -14t40.5 -61
l13 -63q8 -39 -14.5 -72t-61.5 -41l-122 -24v-491q0 -160 113.5 -272t273.5 -111q104 1 192 53.5t138.5 141.5t50.5 193v486l-123 24q-39 8 -61 41t-14 72l13 63q7 39 40 61t72 14l252 -50q34 -6 55.5 -32.5t21.5 -61.5v-618q0 -232 -146 -408.5t-365 -222.5
q8 -166 137.5 -281.5t309.5 -115.5q185 0 316.5 122t131.5 294v315q-86 37 -139 116.5t-53 176.5q0 133 93.5 226.5t226.5 93.5zM1920 928q40 0 68 28t28 68t-28 68t-68 28t-68 -28t-28 -68t28 -68t68 -28z" />
    <glyph glyph-name="suitcase" unicode="SUITCASE" 
d="M0 1216q0 76 58 134t134 58h192v-1536h-192q-76 0 -134 58t-58 134v1152zM1344 1792q76 0 134 -58t58 -134v-1728h-1024v1728q0 76 58 134t134 58h640zM1344 1408v192h-640v-192h640zM1856 1408q76 0 134 -58t58 -134v-1152q0 -76 -58 -134t-134 -58h-192v1536h192z" />
    <glyph glyph-name="bell" unicode="BELL" horiz-adv-x="1792" 
d="M892 -256q-104 0 -178 75t-74 181h512q0 -107 -75.5 -181.5t-184.5 -74.5zM1758 343q34 -37 34 -87q-1 -51 -37 -89.5t-91 -38.5h-1535q-56 0 -92.5 38.5t-36.5 89.5q0 49 35 87q5 5 15 16q34 36 53.5 59t53 78t52 112t33.5 150t15 202q0 231 144 402.5t367 217.5v84
q0 52 38 90t90 38t90 -38t38 -90v-84q223 -46 367.5 -218t144.5 -402q0 -109 15 -202t33.5 -150t52 -112t52.5 -78t54 -59q10 -11 15 -16z" />
    <glyph glyph-name="mug-saucer" unicode="COFFEE" horiz-adv-x="2560" 
d="M2048 1664q104 0 198.5 -40.5t163.5 -109.5t109.5 -163.5t40.5 -198.5q0 -139 -68.5 -257t-186.5 -186.5t-257 -68.5h-128q0 -159 -112.5 -271.5t-271.5 -112.5h-768q-159 0 -271.5 112.5t-112.5 271.5v928q0 40 28 68t68 28h1568zM2048 896q106 0 181 75t75 181t-75 181
t-181 75h-128v-512h128zM2240 128q26 0 45 -19t19 -45q0 -80 -56 -136t-136 -56h-1920q-80 0 -136 56t-56 136q0 26 19 45t45 19h2176z" />
    <glyph glyph-name="hospital" unicode="HOSPITAL" horiz-adv-x="1536" 
d="M1344 1792q80 0 136 -56t56 -136v-1728q0 -53 -37.5 -90.5t-90.5 -37.5h-448v320q0 80 -56 136t-136 56t-136 -56t-56 -136v-320h-448q-53 0 -90.5 37.5t-37.5 90.5v1728q0 80 56 136t136 56h1152zM512 576v128q0 26 -19 45t-45 19h-128q-26 0 -45 -19t-19 -45v-128
q0 -26 19 -45t45 -19h128q26 0 45 19t19 45zM896 576v128q0 26 -19 45t-45 19h-128q-26 0 -45 -19t-19 -45v-128q0 -26 19 -45t45 -19h128q26 0 45 19t19 45zM991 1178q14 0 23.5 9.5t9.5 23.5v138q0 13 -10 23t-23 10h-121v121q0 13 -10 23t-23 10h-138q-13 0 -23 -10
t-10 -23v-121h-121q-13 0 -23 -10t-10 -23v-138q0 -13 10 -23t23 -10h121v-121q0 -13 10 -23t23 -10h138q13 0 23 10t10 23v121h121zM1280 576v128q0 26 -19 45t-45 19h-128q-26 0 -45 -19t-19 -45v-128q0 -26 19 -45t45 -19h128q26 0 45 19t19 45z" />
    <glyph glyph-name="truck-medical" unicode="AMBULANCE" horiz-adv-x="2560" 
d="M2496 384q26 0 45 -19t19 -45v-128q0 -26 -19 -45t-45 -19h-192q0 -159 -112.5 -271.5t-271.5 -112.5t-271.5 112.5t-112.5 271.5h-512q0 -159 -112.5 -271.5t-271.5 -112.5t-271.5 112.5t-112.5 271.5h-64q-80 0 -136 56t-56 136v1280q0 80 56 136t136 56h1280
q80 0 136 -56t56 -136v-192h203q106 0 181 -75l309 -309q75 -75 75 -181v-459h64zM640 -64q80 0 136 56t56 136t-56 136t-136 56t-136 -56t-56 -136t56 -136t136 -56zM1216 1056v192q0 14 -9 23t-23 9h-224v224q0 13 -9.5 22.5t-22.5 9.5h-192q-13 0 -22.5 -9.5t-9.5 -22.5
v-224h-224q-14 0 -23 -9t-9 -23v-192q0 -14 9 -23t23 -9h224v-224q0 -14 9 -23t23 -9h192q14 0 23 9t9 23v224h224q14 0 23 9t9 23zM1920 -64q80 0 136 56t56 136t-56 136t-136 56t-136 -56t-56 -136t56 -136t136 -56zM2176 768v75l-309 309h-203v-384h512z" />
    <glyph glyph-name="suitcase-medical" unicode="MEDKIT" 
d="M0 1216q0 76 58 134t134 58h64v-1536h-64q-76 0 -134 58t-58 134v1152zM1856 1408q76 0 134 -58t58 -134v-1152q0 -76 -58 -134t-134 -58h-64v1536h64zM1536 1600v-192h128v-1536h-1280v1536h128v192q0 76 58 134t134 58h640q76 0 134 -58t58 -134zM704 1600v-192h640
v192h-640zM1408 544v192q0 14 -9 23t-23 9h-224v224q0 14 -9 23t-23 9h-192q-14 0 -23 -9t-9 -23v-224h-224q-14 0 -23 -9t-9 -23v-192q0 -14 9 -23t23 -9h224v-224q0 -14 9 -23t23 -9h192q14 0 23 9t9 23v224h224q14 0 23 9t9 23z" />
    <glyph glyph-name="jet-fighter" unicode="FIGHTER&#x2d;JET" horiz-adv-x="2560" 
d="M2514 830q30 -9 40.5 -35t-4 -52.5t-50.5 -35.5l-609 -179q-56 -16 -113 -16h-253l-476 -640h74q24 0 42.5 -19t18.5 -45q0 -27 -17.5 -45.5t-43.5 -18.5h-298q-24 0 -42.5 19t-18.5 45v704h-188l-184 -230q-20 -26 -51 -26h-160q-24 0 -42 19t-18 45v320h-61
q-24 0 -42 19t-18 45v128q0 26 19 45t45 19h64v320q0 26 19 45t45 19h160q31 0 51 -26l173 -230h192v704q0 26 19 45t45 19h299q24 0 42 -19t18 -45q0 -27 -17 -45.5t-43 -18.5h-75l480 -640h252q64 0 117 -15zM608 736q25 0 25 32q0 14 -8 23t-21 9h-316q-14 0 -23 -9
t-9 -23t9 -23t23 -9h320z" />
    <glyph glyph-name="beer-mug-empty" unicode="BEER&#x2d;MUG&#x2d;EMPTY" 
d="M1728 1408q133 0 226.5 -93.5t93.5 -226.5v-396q0 -94 -51.5 -173.5t-137.5 -118.5l-323 -144v-128q0 -106 -75 -181t-181 -75h-896q-106 0 -181 75t-75 181v1408q0 53 37.5 90.5t90.5 37.5h1152q53 0 90.5 -37.5t37.5 -90.5v-128h192zM640 320v896q0 27 -18.5 45.5
t-45.5 18.5t-45.5 -18.5t-18.5 -45.5v-896q0 -27 18.5 -45.5t45.5 -18.5t45.5 18.5t18.5 45.5zM896 320v896q0 27 -18.5 45.5t-45.5 18.5t-45.5 -18.5t-18.5 -45.5v-896q0 -27 18.5 -45.5t45.5 -18.5t45.5 18.5t18.5 45.5zM1152 320v896q0 27 -18.5 45.5t-45.5 18.5
t-45.5 -18.5t-18.5 -45.5v-896q0 -27 18.5 -45.5t45.5 -18.5t45.5 18.5t18.5 45.5zM1792 692v396q0 27 -18.5 45.5t-45.5 18.5h-192v-616l218 98q38 17 38 58z" />
    <glyph glyph-name="square-h" unicode="H&#x2d;SQUARE" horiz-adv-x="1792" 
d="M1536 1664q106 0 181 -75t75 -181v-1280q0 -106 -75 -181t-181 -75h-1280q-106 0 -181 75t-75 181v1280q0 106 75 181t181 75h1280zM1344 352v832q0 40 -28 68t-68 28t-68 -28t-28 -68v-320h-512v320q0 40 -28 68t-68 28t-68 -28t-28 -68v-832q0 -40 28 -68t68 -28t68 28
t28 68v320h512v-320q0 -40 28 -68t68 -28t68 28t28 68z" />
    <glyph glyph-name="square-plus" unicode="PLUS&#x2d;SQUARE" horiz-adv-x="1792" 
d="M1536 1664q106 0 181 -75t75 -181v-1280q0 -106 -75 -181t-181 -75h-1280q-106 0 -181 75t-75 181v1280q0 106 75 181t181 75h1280zM1276 672q42 0 68 28.5t18 67.5q0 40 -27 68t-66 28h-288v288q0 40 -26.5 68t-65.5 28q-40 0 -68 -28t-28 -68v-288h-285q-40 0 -68 -28
t-28 -68q0 -39 29.5 -67.5t66.5 -28.5h292v-288q0 -40 28 -68t68 -28q37 0 64.5 28.5t27.5 67.5v288h288z" />
    <glyph glyph-name="angles-left" unicode="ANGLE&#x2d;DOUBLE&#x2d;LEFT" horiz-adv-x="1792" 
d="M309 768l549 -549q38 -37 38 -90t-38 -91t-90 -38t-90 38l-640 640q-38 38 -38 91t38 90l640 640q38 37 91 37t90 -37t37 -90t-37 -91zM1077 768l549 -549q38 -37 38 -90t-38 -91t-90 -38t-90 38l-640 640q-38 38 -38 91t38 90l640 640q38 37 91 37t90 -37t37 -90
t-37 -91z" />
    <glyph glyph-name="angles-right" unicode="Angle&#x2d;double&#x2d;right" horiz-adv-x="1792" 
d="M986 858q38 -38 38 -90t-38 -90l-640 -640q-38 -38 -90 -38q-53 0 -90 37q-38 37 -38 90t38 91l549 550l-550 549q-37 37 -37 90t37 91t90 38t91 -38zM1754 858q38 -38 38 -90t-38 -90l-640 -640q-38 -38 -90 -38q-53 0 -90 37q-38 37 -38 90t38 91l549 550l-550 549
q-37 37 -37 90t37 91t90 38t91 -38z" />
    <glyph glyph-name="angles-up" unicode="ANGLE&#x2d;DOUBLE&#x2d;UP" horiz-adv-x="1536" 
d="M219 806q-37 -38 -91 -38t-91 38t-37 90t37 90l640 640q37 38 90 38t91 -38l640 -640q38 -38 38 -90t-38 -90t-90 -38q-53 0 -90 37l-550 550zM858 858l640 -640q38 -38 38 -90t-38 -90t-90 -38q-53 0 -90 37l-550 550l-550 -550q-38 -37 -91 -37t-90 37t-37 90t37 91
l640 640q37 38 90 38t91 -38z" />
    <glyph glyph-name="angles-down" unicode="Angle&#x2d;double&#x2d;down" horiz-adv-x="1536" 
d="M678 678l-640 639q-38 37 -38 90t38 91t91 38t90 -38l549 -549l549 550q37 37 90 37t91 -37t38 -90t-38 -91l-640 -640q-38 -38 -90 -38t-90 38zM1318 730q38 38 90 38t90 -37t38 -90t-38 -91l-640 -640q-38 -38 -90 -38q-53 0 -90 37l-640 640q-38 37 -38 90t38 91
t91 38t90 -38l549 -549z" />
    <glyph glyph-name="angle-left" unicode="Angle&#x2d;left" horiz-adv-x="1024" 
d="M768 0q54 0 91 37t37 90t-37 91l-550 550l550 550q37 38 37 90t-37 90t-90 38t-91 -38l-640 -640q-38 -38 -38 -90t38 -90l640 -640q38 -38 90 -38z" />
    <glyph glyph-name="angle-right" unicode="ANGLE&#x2d;RIGHT" horiz-adv-x="1024" 
d="M256 0q53 0 91 38l640 640q37 38 37 91t-37 90l-640 640q-37 37 -90 37t-91 -37t-38 -90t38 -91l549 -550l-549 -550q-38 -38 -38 -90t38 -90t90 -38z" />
    <glyph glyph-name="angle-up" unicode="Angle&#x2d;up" horiz-adv-x="1536" 
d="M1408 384q53 0 90 37q38 37 38 90t-38 91l-640 640q-38 38 -91 38t-90 -38l-640 -640q-37 -38 -37 -91t37 -90t90 -37t91 37l550 550l550 -549q38 -38 90 -38z" />
    <glyph glyph-name="angle-down" unicode="ANGLE&#x2d;DOWN" horiz-adv-x="1536" 
d="M768 256q54 0 91 37l640 640q37 37 37 90t-37 91t-90 38t-91 -38l-550 -549l-549 549q-37 38 -90 38t-91 -38t-38 -90t38 -90l640 -640q38 -38 90 -38z" />
    <glyph glyph-name="desktop" unicode="DESKTOP&#x2d;ALT" horiz-adv-x="2304" 
d="M2112 1792q80 0 136 -56t56 -136v-1280q0 -80 -56 -136t-136 -56h-768l64 -192h288q40 0 68 -28t28 -68t-28 -68t-68 -28h-1088q-40 0 -68 28t-28 68t28 68t68 28h288l64 192h-768q-80 0 -136 56t-56 136v1280q0 80 56 136t136 56h1920zM2048 640v896h-1792v-896h1792z
" />
    <glyph glyph-name="laptop" unicode="Laptop" horiz-adv-x="2560" 
d="M512 1408v-1024h-256v1088q0 80 56 136t136 56h1664q80 0 136 -56t56 -136v-1088h-256v1024h-1536zM2496 260q26 0 45 -19.5t19 -44.5v-64q0 -106 -75 -181t-181 -75h-2048q-106 0 -181 75t-75 181v64q0 26 19 45t45 19h2432z" />
    <glyph glyph-name="tablet-button" unicode="TABLET&#x2d;BUTTON" horiz-adv-x="1792" 
d="M1536 1792q106 0 181 -75t75 -181v-1536q0 -106 -75 -181t-181 -75h-1280q-106 0 -181 75t-75 181v1536q0 106 75 181t181 75h1280zM896 -64q53 0 90.5 37.5t37.5 90.5t-37.5 90.5t-90.5 37.5t-90.5 -37.5t-37.5 -90.5t37.5 -90.5t90.5 -37.5z" />
    <glyph glyph-name="mobile-button" unicode="MOBILE&#x2d;BUTTON" horiz-adv-x="1536" 
d="M1280 1792q80 0 136 -56t56 -136v-1664q0 -80 -56 -136t-136 -56h-1024q-80 0 -136 56t-56 136v1664q0 80 56 136t136 56h1024zM768 -64q53 0 90.5 37.5t37.5 90.5t-37.5 90.5t-90.5 37.5t-90.5 -37.5t-37.5 -90.5t37.5 -90.5t90.5 -37.5z" />
    <glyph glyph-name="quote-left" unicode="Quote&#x2d;left&#x2d;alt" horiz-adv-x="1792" 
d="M384 896q159 0 271.5 -112.5t112.5 -271.5t-112.5 -271.5t-271.5 -112.5t-271.5 112.5t-112.5 271.5v384q0 104 40.5 198.5t109.5 163.5t163.5 109.5t198.5 40.5q53 0 90.5 -37.5t37.5 -90.5t-37.5 -90.5t-90.5 -37.5q-106 0 -181 -75t-75 -181v-24q69 24 128 24z
M1408 896q159 0 271.5 -112.5t112.5 -271.5t-112.5 -271.5t-271.5 -112.5t-271.5 112.5t-112.5 271.5v384q0 104 40.5 198.5t109.5 163.5t163.5 109.5t198.5 40.5q53 0 90.5 -37.5t37.5 -90.5t-37.5 -90.5t-90.5 -37.5q-106 0 -181 -75t-75 -181v-24q69 24 128 24z" />
    <glyph glyph-name="quote-right" unicode="QUOTE&#x2d;RIGHT&#x2d;ALT" horiz-adv-x="1792" 
d="M384 1408q160 0 272 -111.5t112 -272.5v-384q0 -104 -40.5 -198.5t-109.5 -163.5t-163.5 -109.5t-198.5 -40.5q-53 0 -90.5 37.5t-37.5 90.5t37.5 90.5t90.5 37.5q106 0 181 75t75 181v24q-69 -24 -128 -24q-160 0 -272 111.5t-112 272.5t112 272.5t272 111.5zM1792 1024
v-384q0 -104 -40.5 -198.5t-109.5 -163.5t-163.5 -109.5t-198.5 -40.5q-53 0 -90.5 37.5t-37.5 90.5t37.5 90.5t90.5 37.5q106 0 181 75t75 181v24q-69 -24 -128 -24q-159 0 -271.5 112.5t-112.5 271.5t112.5 271.5t271.5 112.5t271.5 -112.5t112.5 -271.5z" />
    <glyph glyph-name="spinner" unicode="SPINNER" 
d="M384 768q0 -80 -56 -136t-136 -56t-136 56t-56 136t56 136t136 56t136 -56t56 -136zM436 1548q80 0 136 -56t56 -136t-56 -136t-136 -56t-136 56t-56 136t56 136t136 56zM436 372q80 0 136 -56t56 -136t-56 -136t-136 -56t-136 56t-56 136t56 136t136 56zM1024 128
q80 0 136 -56t56 -136t-56 -136t-136 -56t-136 56t-56 136t56 136t136 56zM1856 960q80 0 136 -56t56 -136t-56 -136t-136 -56t-136 56t-56 136t56 136t136 56zM1612 372q80 0 136 -56t56 -136t-56 -136t-136 -56t-136 56t-56 136t56 136t136 56zM1024 1792q80 0 136 -56
t56 -136t-56 -136t-136 -56t-136 56t-56 136t56 136t136 56z" />
    <glyph glyph-name="circle" unicode="CIRCLE" 
d="M2048 768q0 209 -81 398.5t-218 326.5t-326.5 218t-398.5 81t-398.5 -81t-326.5 -218t-218 -326.5t-81 -398.5t81 -398.5t218 -326.5t326.5 -218t398.5 -81t398.5 81t326.5 218t218 326.5t81 398.5z" />
    <glyph glyph-name="face-smile" unicode="FACE&#x2d;SMILE" 
d="M1024 1792q209 0 398.5 -81t326.5 -218t218 -326.5t81 -398.5t-81 -398.5t-218 -326.5t-326.5 -218t-398.5 -81t-398.5 81t-326.5 218t-218 326.5t-81 398.5t81 398.5t218 326.5t326.5 218t398.5 81zM1344 1088q-53 0 -90.5 -37.5t-37.5 -90.5t37.5 -90.5t90.5 -37.5
t90.5 37.5t37.5 90.5t-37.5 90.5t-90.5 37.5zM700 1088q-51 0 -89.5 -37.5t-38.5 -90.5t37.5 -90.5t90.5 -37.5t90.5 37.5t37.5 90.5t-37.5 90.5t-90.5 37.5zM1483 407q15 19 15.5 40t-11.5 36t-28.5 24t-37.5 5t-36 -23q-68 -80 -162 -124.5t-199 -44.5t-199.5 45
t-161.5 128q-15 19 -36 23t-37.5 -5t-28.5 -24t-11.5 -36t15.5 -40q85 -103 205 -159t254 -56q135 0 254.5 54.5t204.5 156.5z" />
    <glyph glyph-name="face-frown" unicode="FACE&#x2d;FROWN" 
d="M1024 1792q209 0 398.5 -81t326.5 -218t218 -326.5t81 -398.5t-81 -398.5t-218 -326.5t-326.5 -218t-398.5 -81t-398.5 81t-326.5 218t-218 326.5t-81 398.5t81 398.5t218 326.5t326.5 218t398.5 81zM1344 1088q-53 0 -90.5 -37.5t-37.5 -90.5t37.5 -90.5t90.5 -37.5
t90.5 37.5t37.5 90.5t-37.5 90.5t-90.5 37.5zM700 1088q-51 0 -89.5 -37.5t-38.5 -90.5t37.5 -90.5t90.5 -37.5t90.5 37.5t37.5 90.5t-37.5 90.5t-90.5 37.5zM1385 215q15 -19 36 -22.5t37.5 6t28.5 24.5t11.5 36t-16.5 38q-85 103 -204.5 159t-253.5 56
q-133 0 -253.5 -56.5t-209.5 -158.5q-15 -19 -15.5 -40t11.5 -36t29 -24t38 -5t36 23q68 81 161 125t199 44q107 0 202 -44t163 -125z" />
    <glyph glyph-name="face-meh" unicode="FACE&#x2d;MEH" 
d="M1024 1792q209 0 398.5 -81t326.5 -218t218 -326.5t81 -398.5t-81 -398.5t-218 -326.5t-326.5 -218t-398.5 -81t-398.5 81t-326.5 218t-218 326.5t-81 398.5t81 398.5t218 326.5t326.5 218t398.5 81zM700 1088q-51 0 -89.5 -37.5t-38.5 -90.5t37.5 -90.5t90.5 -37.5
t90.5 37.5t37.5 90.5t-37.5 90.5t-90.5 37.5zM1408 320q40 0 56 32t-1.5 64t-58.5 32h-768q-40 0 -56.5 -32t0 -64t56.5 -32h772zM1344 832q53 0 90.5 37.5t37.5 90.5t-37.5 90.5t-90.5 37.5t-90.5 -37.5t-37.5 -90.5t37.5 -90.5t90.5 -37.5z" />
    <glyph glyph-name="gamepad" unicode="GAMEPAD" horiz-adv-x="2560" 
d="M1792 1536q209 0 385.5 -103t279.5 -279.5t103 -385.5t-103 -385.5t-279.5 -279.5t-385.5 -103h-1024q-209 0 -385.5 102t-279.5 279t-103 387t103 387t279.5 279t385.5 102h1024zM988 672q42 0 69.5 28t27.5 68t-28.5 68t-68.5 28h-128v128q0 40 -27.5 68t-67.5 28
t-68.5 -28t-28.5 -68v-128h-127q-40 0 -68.5 -28t-28.5 -68q0 -39 29.5 -65.5t70.5 -26.5l124 -4v-128q0 -40 28.5 -68t68.5 -28t67.5 28t27.5 68v128h128zM1724 416q68 0 112.5 44.5t44.5 111.5q0 66 -46.5 113t-110.5 47q-63 0 -109.5 -48t-46.5 -112t45.5 -110t110.5 -46
zM1980 800q68 0 112.5 44.5t44.5 111.5q0 66 -46.5 113t-110.5 47q-63 0 -109.5 -48t-46.5 -112t45.5 -110t110.5 -46z" />
    <glyph glyph-name="keyboard" unicode="Keyboard" horiz-adv-x="2304" 
d="M2048 0q106 0 181 75t75 181v1024q0 106 -75 181t-181 75h-1792q-106 0 -181 -75t-75 -181v-1024q0 -106 75 -181t181 -75h1792zM512 1072q0 -20 -14 -34t-34 -14h-160q-20 0 -34 14t-14 34v160q0 20 14 34t34 14h160q20 0 34 -14t14 -34v-160zM896 1072q0 -20 -14 -34
t-34 -14h-160q-20 0 -34 14t-14 34v160q0 20 14 34t34 14h160q20 0 34 -14t14 -34v-160zM1280 1072q0 -20 -14 -34t-34 -14h-160q-20 0 -34 14t-14 34v160q0 20 14 34t34 14h160q20 0 34 -14t14 -34v-160zM1664 1072q0 -20 -14 -34t-34 -14h-160q-20 0 -34 14t-14 34v160
q0 20 14 34t34 14h160q20 0 34 -14t14 -34v-160zM2048 1072q0 -20 -14 -34t-34 -14h-160q-20 0 -34 14t-14 34v160q0 20 14 34t34 14h160q20 0 34 -14t14 -34v-160zM512 688q0 -20 -14 -34t-34 -14h-160q-20 0 -34 14t-14 34v160q0 20 14 34t34 14h160q20 0 34 -14t14 -34
v-160zM896 688q0 -20 -14 -34t-34 -14h-160q-20 0 -34 14t-14 34v160q0 20 14 34t34 14h160q20 0 34 -14t14 -34v-160zM1280 688q0 -20 -14 -34t-34 -14h-160q-20 0 -34 14t-14 34v160q0 20 14 34t34 14h160q20 0 34 -14t14 -34v-160zM1664 688q0 -20 -14 -34t-34 -14h-160
q-20 0 -34 14t-14 34v160q0 20 14 34t34 14h160q20 0 34 -14t14 -34v-160zM2048 688q0 -20 -14 -34t-34 -14h-160q-20 0 -34 14t-14 34v160q0 20 14 34t34 14h160q20 0 34 -14t14 -34v-160zM512 304q0 -20 -14 -34t-34 -14h-160q-20 0 -34 14t-14 34v160q0 20 14 34t34 14
h160q20 0 34 -14t14 -34v-160zM1664 304q0 -20 -14 -34t-34 -14h-928q-20 0 -34 14t-14 34v160q0 20 14 34t34 14h928q20 0 34 -14t14 -34v-160zM2048 304q0 -20 -14 -34t-34 -14h-160q-20 0 -34 14t-14 34v160q0 20 14 34t34 14h160q20 0 34 -14t14 -34v-160z" />
    <glyph glyph-name="flag-checkered" unicode="FLAG&#x2d;CHECKERED" horiz-adv-x="2304" 
d="M2038 1792q57 0 97.5 -34t40.5 -89v-1205q0 -37 -21.5 -68.5t-58.5 -46.5q-232 -93 -432 -93q-95 0 -200 20t-183.5 43.5t-183.5 43.5t-200 20q-236 0 -513 -127v-448q0 -26 -19 -45t-45 -19h-128q-26 0 -45 19t-19 45v1856q0 53 37.5 90.5t90.5 37.5t90.5 -37.5
t37.5 -90.5v-2q308 129 530 129q89 0 178.5 -20t151 -44t144 -44t159.5 -20q179 0 416 112q34 17 75 17zM1920 1225v254q-162 -60 -320 -69v-275q-36 -4 -53 -4q-107 0 -267 52v265q-62 18 -107 33q-134 45 -213 51v-276q-45 3 -46 3q-119 0 -274 -41v266q-86 -27 -157 -58
l-99 -41v-254q128 53 256 87v-326q-113 -43 -157 -61l-99 -42v-255q122 47 256 81v277q157 47 274 47q38 0 46 1v-304q143 -7 320 -52v268q144 -41 267 -41q8 0 17 0.5t19.5 1.5t16.5 1v-298q42 -4 64 -4q123 0 256 44v327q-162 -60 -320 -69v321q144 13 320 90zM960 1256
q59 -4 121 -17t98 -23.5t101 -32.5v-331q-62 18 -107 33q-134 45 -213 51v320z" />
    <glyph glyph-name="terminal" unicode="TERMINAL" horiz-adv-x="2304" 
d="M1024 768q0 -53 -38 -91l-768 -768q-37 -37 -90 -37q-52 0 -90 37t-38 91q0 52 38 90l677 678l-678 678q-37 37 -37 90q0 54 38 91t90 37t90 -38l768 -768q38 -38 38 -90zM2176 128q53 0 90.5 -37.5t37.5 -90.5t-37.5 -90.5t-90.5 -37.5h-1152q-53 0 -90.5 37.5
t-37.5 90.5t37.5 90.5t90.5 37.5h1152z" />
    <glyph glyph-name="code" unicode="CODE" horiz-adv-x="2560" 
d="M1664 1664q0 -15 -5 -35l-512 -1792q-12 -42 -46.5 -67.5t-76.5 -25.5q-64 0 -97.5 44t-30.5 84q0 15 5 35l512 1792q12 42 46.5 67.5t76.5 25.5q44 0 75 -24.5t42 -52t11 -51.5zM704 1220q0 -58 -37 -91l-358 -357l357 -358q38 -38 38 -90q0 -54 -38 -91t-90 -37
q-57 0 -91 34l-448 448q-37 37 -37 94q0 47 38 90l448 448q38 38 90 38t90 -37t38 -91zM2560 772q0 -59 -38 -91l-448 -448q-37 -37 -90 -37q-52 0 -90 37t-38 91q0 49 37 90l358 358l-358 357q-37 37 -37 91t38 91t90 37q45 0 90 -38l448 -448q38 -38 38 -90z" />
    <glyph glyph-name="reply-all" unicode="MAIL&#x2d;REPLY&#x2d;ALL" horiz-adv-x="2304" 
d="M545 887q-33 29 -33 73t33 72l704 609q33 24 68.5 23t63 -28.5t27.5 -67.5v-328q115 -9 212.5 -26t190.5 -46t167 -69t136 -97t103 -128t64 -164t23 -204q0 -176 -97 -345.5t-236 -270.5q-41 -30 -84.5 -2t-28.5 76q46 147 53.5 260t-20 194.5t-93.5 137.5t-161 88.5
t-229 47.5v-337q0 -40 -27.5 -67.5t-63 -28t-68.5 23.5zM33 887q-33 29 -33 73.5t33 75.5l704 605q33 24 68.5 23t63 -28.5t27.5 -67.5v-63l-631 -545l631 -541v-64q0 -40 -27.5 -67.5t-63 -28t-68.5 23.5z" />
    <glyph glyph-name="location-arrow" unicode="LOCATION&#x2d;ARROW" horiz-adv-x="1792" 
d="M1778 1399q23 54 10 109.5t-56 88.5q-41 41 -98 52.5t-110 -10.5l-1405 -572q-64 -29 -96 -88.5t-19 -126.5q14 -68 66.5 -111.5t121.5 -43.5h640v-637q0 -75 54.5 -131.5t137.5 -56.5q58 0 107 33t74 90z" />
    <glyph glyph-name="crop" unicode="CROP" 
d="M2048 288q0 40 -28 68t-68 28h-160v971l219 219q37 38 37 91t-37 90t-90 37t-91 -37l-219 -219h-843v-384h459l-587 -587v1131q0 40 -28 68t-68 28h-192q-40 0 -68 -28t-28 -68v-160h-160q-40 0 -68 -28t-28 -68v-192q0 -40 28 -68t68 -28h160v-1056q0 -40 28 -68t68 -28
h928v384h-459l587 587v-1131q0 -40 28 -68t68 -28h192q40 0 68 28t28 68v160h160q40 0 68 28t28 68v192z" />
    <glyph glyph-name="code-branch" unicode="CODE&#x2d;BRANCH" horiz-adv-x="1792" 
d="M1792 1472q0 -97 -53 -176.5t-139 -116.5v-155q0 -159 -112.5 -271.5t-271.5 -112.5h-640q-53 0 -90.5 -37.5t-37.5 -90.5v-155q86 -37 139 -116.5t53 -176.5q0 -133 -93.5 -226.5t-226.5 -93.5t-226.5 93.5t-93.5 226.5q0 97 53 176.5t139 116.5v822q-86 37 -139 116.5
t-53 176.5q0 133 93.5 226.5t226.5 93.5t226.5 -93.5t93.5 -226.5q0 -97 -53 -176.5t-139 -116.5v-307q69 24 128 24h640q53 0 90.5 37.5t37.5 90.5v155q-86 37 -139 116.5t-53 176.5q0 133 93.5 226.5t226.5 93.5t226.5 -93.5t93.5 -226.5zM320 1568q-40 0 -68 -28t-28 -68
t28 -68t68 -28t68 28t28 68t-28 68t-68 28zM320 -32q40 0 68 28t28 68t-28 68t-68 28t-68 -28t-28 -68t28 -68t68 -28zM1472 1568q-40 0 -68 -28t-28 -68t28 -68t68 -28t68 28t28 68t-28 68t-68 28z" />
    <glyph glyph-name="link-slash" unicode="CHAIN&#x2d;BROKEN" horiz-adv-x="2560" 
d="M1940 372l580 -453q31 -25 36 -64.5t-20 -70.5t-64.5 -36t-70.5 20l-2364 1852q-32 25 -37 64t20 71q29 37 76 37q33 0 59 -20l608 -477q153 113 335 113q228 0 400 -166q82 -82 124 -187.5t40 -215.5t-45 -213l120 -94l476 476q91 91 91 219q0 127 -91 218t-219 91
q-127 0 -218 -91l-152 -152q-27 33 -35 40q-65 65 -168 120l174 173q81 81 184.5 123.5t214.5 42.5q230 0 400 -166q109 -109 147.5 -254.5t0 -291t-147.5 -254.5zM1403 794q5 40 5 49q0 127 -91 218t-219 91q-62 0 -121 -25zM936 242q3 -3 15 -17.5t20 -21.5
q65 -65 168 -120l-174 -173q-81 -81 -184.5 -123.5t-214.5 -42.5t-215 42.5t-185 123.5q-109 109 -147.5 254t0 290.5t147.5 254.5l317 318l203 -159l-339 -340q-91 -91 -91 -219q0 -127 91 -218t219 -91q122 0 218 91zM1062 294q-83 83 -124.5 189t-39.5 218l706 -553
q-78 -20 -142 -20q-111 0 -215 42.5t-185 123.5z" />
    <glyph glyph-name="question" unicode="Question" horiz-adv-x="1280" 
d="M817 1664q191 0 327 -136t136 -327q0 -132 -69 -243.5t-187 -170.5l-320 -188v-87q0 -53 -37.5 -90.5t-90.5 -37.5t-90.5 37.5t-37.5 90.5v160q0 76 63 110l391 229q58 29 90 79.5t32 110.5q0 85 -61 146t-146 61h-433q-53 0 -90.5 -37.5t-37.5 -90.5q0 -51 -37.5 -87.5
t-90.5 -36.5q-54 0 -91 35.5t-37 88.5q0 159 112.5 271.5t271.5 112.5h433zM576 192q65 0 112.5 -48t47.5 -112t-47 -110t-113 -46t-113 45t-47 111t47 113t113 47z" />
    <glyph glyph-name="info" unicode="Info" horiz-adv-x="768" 
d="M640 0q54 0 91 -35.5t37 -88.5t-37.5 -90.5t-90.5 -37.5h-512q-53 0 -90.5 37.5t-37.5 90.5t37.5 90.5t90.5 37.5h128v768h-128q-54 0 -91 35.5t-37 88.5t37.5 90.5t90.5 37.5h256q53 0 90.5 -37.5t37.5 -90.5v-896h128zM384 1280q-80 0 -136 56t-56 136t56 136t136 56
t136 -56t56 -136t-56 -136t-136 -56z" />
    <glyph glyph-name="exclamation" unicode="EXCLAMATION" horiz-adv-x="512" 
d="M256 384q-53 0 -90.5 38.5t-37.5 93.5v1020q0 53 37.5 90.5t90.5 37.5t90.5 -37.5t37.5 -90.5v-1028q0 -51 -37.5 -87.5t-90.5 -36.5zM256 192q65 0 112.5 -48t47.5 -112t-47 -110t-113 -46t-113 45t-47 111t47 113t113 47z" />
    <glyph glyph-name="superscript" unicode="SUPERSCRIPT" 
d="M1920 1152q53 0 90.5 -37.5t37.5 -90.5t-37.5 -90.5t-90.5 -37.5h-256q-53 0 -90.5 37.5t-37.5 90.5t37.5 90.5t90.5 37.5v320q-36 0 -68 19t-46 52q-24 47 -7 97t64 74l128 64q63 32 124 -5q28 -17 44.5 -46.5t16.5 -62.5v-512zM1280 1280v-7h-61l-359 -509l359 -512h61
q53 0 90.5 -38.5t37.5 -89.5t-37.5 -87.5t-90.5 -36.5h-128q-66 0 -105 55l-343 490l-343 -487q-38 -54 -105 -54h-128q-54 0 -91 35.5t-37 88.5t37.5 90.5t90.5 37.5h61l359 512l-359 512h-61q-53 0 -90.5 37.5t-37.5 90.5t37.5 90.5t90.5 37.5h128q66 0 105 -55l343 -490
l343 490q39 55 105 55h128q53 0 90.5 -37.5t37.5 -90.5t-37.5 -90.5t-90.5 -37.5zM1280 1280z" />
    <glyph glyph-name="subscript" unicode="SUBSCRIPT" 
d="M1920 0q53 0 90.5 -37.5t37.5 -90.5t-37.5 -90.5t-90.5 -37.5h-256q-53 0 -90.5 37.5t-37.5 90.5t37.5 90.5t90.5 37.5v320q-36 0 -67 19t-47 52q-24 47 -7 97t64 74l128 64q65 32 124 -5q28 -17 44.5 -46.5t16.5 -62.5v-512zM1280 1280v-7h-61l-359 -509l359 -512h61
q53 0 90.5 -38.5t37.5 -89.5t-37.5 -87.5t-90.5 -36.5h-128q-66 0 -105 55l-343 490l-343 -487q-38 -54 -105 -54h-128q-54 0 -91 35.5t-37 88.5t37.5 90.5t90.5 37.5h61l359 512l-359 512h-61q-53 0 -90.5 37.5t-37.5 90.5t37.5 90.5t90.5 37.5h128q66 0 105 -55l343 -490
l343 490q39 55 105 55h128q53 0 90.5 -37.5t37.5 -90.5t-37.5 -90.5t-90.5 -37.5zM1280 1280z" />
    <glyph glyph-name="eraser" unicode="Eraser" 
d="M1992 700l-568 -568h416q86 0 147 -61t61 -147q0 -22 -15 -37t-37 -15l-1424 4q-80 0 -136 56l-380 384q-56 56 -56 136q0 74 56 136l1024 1020q51 56 132 56q80 0 143 -52l637 -640q55 -55 55 -136q0 -80 -55 -136zM782 946l-500 -494l320 -324h460l269 269z" />
    <glyph glyph-name="puzzle-piece" unicode="PUZZLE&#x2d;PIECE" 
d="M2048 640q0 106 -56.5 183t-135.5 77t-140 -82q-31 -46 -83 -46q-41 0 -69 28t-28 69v287q0 51 -37.5 87.5t-90.5 36.5h-287q-40 0 -68.5 28.5t-28.5 69.5q0 45 46 89q82 51 82 137q0 77 -75.5 132.5t-180.5 55.5q-106 0 -181 -54.5t-75 -133.5q0 -88 82 -144
q46 -31 46 -82q0 -40 -28 -68t-70 -33h-542q-54 0 -91 -36t-37 -89v-286q0 -40 28 -67t69 -27q54 0 87 45q51 83 136 83q79 0 135.5 -77t56.5 -183t-56.5 -181t-135.5 -75q-84 0 -140 82q-31 46 -83 46q-40 0 -68.5 -28.5t-28.5 -69.5v-542q0 -53 37.5 -90.5t90.5 -37.5h542
q40 0 69 29t29 69q0 47 -46 86q-82 51 -82 136q0 79 75 135.5t181 56.5t181 -56.5t75 -135.5q0 -84 -82 -140q-46 -31 -46 -82q0 -41 28.5 -69.5t68.5 -28.5h287q53 0 90.5 37.5t37.5 90.5v542q0 40 29 69t69 29q47 0 86 -46q51 -82 136 -82q79 0 135.5 75t56.5 181z" />
    <glyph glyph-name="microphone" unicode="MICROPHONE" horiz-adv-x="1536" 
d="M768 384q-161 0 -272.5 112t-111.5 272v640q0 159 112.5 271.5t271.5 112.5t271.5 -112.5t112.5 -271.5v-640q0 -159 -112.5 -271.5t-271.5 -112.5zM1376 1024q40 0 68 -27t28 -65v-164q0 -131 -47 -252t-128 -212.5t-193.5 -153.5t-239.5 -79v-135h160q55 0 92.5 -39.5
t35.5 -94.5q-1 -25 -20 -41.5t-44 -16.5h-640q-25 0 -44 16.5t-20 41.5q-3 55 35 94.5t93 39.5h160v140q-173 24 -312.5 128.5t-217.5 262.5t-78 336v129q0 38 28 65t68 27t68 -27t28 -65v-144q0 -131 64 -250.5t175 -196t240 -84.5q109 -7 210 31t174 107t117 167t44 206
v164q0 38 28 65t68 27z" />
    <glyph glyph-name="microphone-slash" unicode="Microphone&#x2d;slash" horiz-adv-x="2560" 
d="M1532 -64q56 0 91 -38.5t30 -93.5q0 -25 -17 -42.5t-43 -17.5h-637q-25 0 -44.5 20t-19.5 48q0 51 36 87.5t89 36.5h160v137q-128 18 -241 84t-192.5 163t-125.5 222t-46 258v154l192 -151v-15q0 -131 65 -250.5t177 -196t241 -84.5q92 -6 187 25l173 -136
q-114 -59 -231 -75v-135h156zM2523 -84q32 -25 36 -64t-23 -68q-24 -31 -64 -36t-71 20l-2364 1852q-32 25 -37 64t20 71q29 37 76 37q33 0 59 -20l745 -581v217q0 162 116 275t279 109q103 -3 189 -58.5t135 -146.5t49 -195v-620q0 -77 -34 -153l103 -80q59 112 59 233v156
q0 40 28 68t68 28q37 0 64.5 -28.5t27.5 -67.5v-160q0 -186 -98 -353z" />
    <glyph glyph-name="calendar" unicode="CALENDAR" horiz-adv-x="1792" 
d="M1600 1536q80 0 136 -56t56 -136v-192h-1792v192q0 80 56 136t136 56h192v132q0 50 38 87t90 37t90 -37t38 -87v-132h512v132q0 50 38 87t90 37t90 -37t38 -87v-132h192zM0 -64v1088h1792v-1088q0 -80 -56 -136t-136 -56h-1408q-80 0 -136 56t-56 136z" />
    <glyph glyph-name="fire-extinguisher" unicode="FIRE&#x2d;EXTINGUISHER" 
d="M256 -128v128h892v-128q0 -54 -35.5 -91t-88.5 -37h-644q-51 0 -87.5 37.5t-36.5 90.5zM2014 1770q34 -28 27 -70v-448q0 -45 -35 -74q-27 -22 -61 -22q-11 0 -17 1l-701 125q-34 6 -56.5 32.5t-22.5 61.5h-252v-141q113 -55 182.5 -163.5t69.5 -239.5v-704h-892v704
q0 131 70.5 239.5t185.5 163.5v125q-114 -30 -200.5 -109.5t-124.5 -192.5q-10 -30 -35.5 -48t-55.5 -18q-13 0 -30 5q-38 13 -56 48.5t-5 72.5q57 172 194 289.5t313 149.5v107q0 53 37.5 90.5t90.5 37.5h132q51 0 87.5 -37.5t36.5 -90.5v-96h260q0 35 22.5 62t56.5 33
l700 128q44 8 79 -21zM704 1408q26 0 43 18.5t17 45.5t-17 45.5t-43 18.5t-45 -19t-19 -45t19 -45t45 -19z" />
    <glyph glyph-name="rocket" unicode="ROCKET" 
d="M2020 1715q35 -162 17 -330q0 -120 -25.5 -227.5t-69.5 -193.5t-109.5 -164t-139 -139.5t-164.5 -119.5v-418q0 -49 -31.5 -98.5t-75.5 -72.5l-394 -198q-23 -10 -43 -10q-37 0 -65 28.5t-28 67.5l4 416l-90 -90q-41 -38 -94 -36.5t-87 36.5l-203 203q-36 39 -35.5 92.5
t35.5 88.5l86 90h-416q-37 0 -64.5 28.5t-27.5 67.5q0 20 10 43l198 395q22 44 72 75t99 31h417q74 116 154 204t182 160t231 110t279 38q200 0 329 -28q17 -4 31 -18t18 -31zM1532 1120q68 0 112.5 46.5t44.5 113.5q0 66 -45.5 113t-111.5 47t-111 -47t-45 -113t46.5 -113
t109.5 -47z" />
    <glyph glyph-name="circle-chevron-left" unicode="CIRCLE&#x2d;CHEVRON&#x2d;LEFT" 
d="M1024 1792q209 0 398.5 -81t326.5 -218t218 -326.5t81 -398.5t-81 -398.5t-218 -326.5t-326.5 -218t-398.5 -81t-398.5 81t-326.5 218t-218 326.5t-81 398.5t81 398.5t218 326.5t326.5 218t398.5 81zM1242 410l-357 358l357 357q38 37 38 90t-38 91t-90 38t-90 -38
l-448 -448q-38 -38 -38 -90q0 -54 37 -91l448 -448q37 -37 90 -37t91 37t38 90t-38 91z" />
    <glyph glyph-name="circle-chevron-right" unicode="Circle&#x2d;chevron&#x2d;right" 
d="M1024 1792q209 0 398.5 -81t326.5 -218t218 -326.5t81 -398.5t-81 -398.5t-218 -326.5t-326.5 -218t-398.5 -81t-398.5 81t-326.5 218t-218 326.5t-81 398.5t81 398.5t218 326.5t326.5 218t398.5 81zM1434 678q38 38 38 90q0 54 -37 91l-448 448q-37 37 -90 37t-91 -37
t-38 -90t38 -91l357 -358l-358 -357q-37 -37 -37 -90t37 -91t90 -38t91 38z" />
    <glyph glyph-name="circle-chevron-up" unicode="CIRCLE&#x2d;CHEVRON&#x2d;UP" 
d="M1024 1792q209 0 398.5 -81t326.5 -218t218 -326.5t81 -398.5t-81 -398.5t-218 -326.5t-326.5 -218t-398.5 -81t-398.5 81t-326.5 218t-218 326.5t-81 398.5t81 398.5t218 326.5t326.5 218t398.5 81zM1562 550q38 38 38 90t-38 90l-448 448q-38 38 -90 38q-54 0 -91 -37
l-448 -448q-37 -37 -37 -90t37 -91t90 -38t91 38l358 357l357 -357q37 -38 90 -38t91 38z" />
    <glyph glyph-name="circle-chevron-down" unicode="Circle&#x2d;chevron&#x2d;down" 
d="M1024 1792q209 0 398.5 -81t326.5 -218t218 -326.5t81 -398.5t-81 -398.5t-218 -326.5t-326.5 -218t-398.5 -81t-398.5 81t-326.5 218t-218 326.5t-81 398.5t81 398.5t218 326.5t326.5 218t398.5 81zM1562 806q38 38 38 90t-37 90t-90 38t-91 -38l-358 -357l-357 358
q-37 37 -90 37t-91 -37t-38 -90t38 -91l448 -448q38 -38 90 -38t90 38z" />
    <glyph glyph-name="anchor" unicode="ANCHOR" horiz-adv-x="2304" 
d="M2285 493q30 -30 13 -69.5t-62 -39.5h-139q-30 -180 -137 -326t-270 -230t-350 -84h-380q-187 0 -349.5 84t-269.5 230t-137 326h-140q-43 0 -58 39.5t20 69.5l252 256q19 19 45.5 19t45.5 -19l252 -256q30 -30 14 -69.5t-59 -39.5h-110q44 -167 181 -275.5t313 -108.5
h57v832h-189q-24 0 -42 19t-18 45v128q0 26 19 45t45 19h108q-79 53 -125.5 137t-46.5 183q0 158 113.5 271t270.5 113q156 0 268 -112.5t112 -271.5q0 -99 -46.5 -183t-125.5 -137h108q24 0 42.5 -19t18.5 -45v-128q0 -27 -17.5 -45.5t-43.5 -18.5h-188v-832h60
q176 0 313.5 108.5t180.5 275.5h-110q-41 0 -54.5 39.5t20.5 69.5l252 256q19 19 45.5 19t45.5 -19zM1152 1536q-52 0 -90 -38t-38 -90q0 -53 35.5 -90.5t88.5 -37.5t90.5 37.5t37.5 90.5q0 54 -35.5 91t-88.5 37z" />
    <glyph glyph-name="unlock-keyhole" unicode="UNLOCK&#x2d;KEYHOLE" horiz-adv-x="1792" 
d="M1536 896q106 0 181 -76t75 -184v-640q0 -104 -75 -178t-181 -74h-1280q-106 0 -181 75t-75 181v640q0 106 75 181t181 75h64v320q0 117 45.5 223.5t123 184t184 123t223.5 45.5t223.5 -45.5t184 -123t123 -184t45.5 -223.5v-64h-256v64q0 132 -94 226t-226 94t-226 -94
t-94 -226v-320h960zM1024 256v128q0 53 -37 88.5t-91 35.5t-91 -35.5t-37 -88.5v-128q0 -53 37.5 -90.5t90.5 -37.5t90.5 37.5t37.5 90.5z" />
    <glyph glyph-name="bullseye" unicode="BULLSEYE" 
d="M1024 1344q117 0 223.5 -45.5t184 -123t123 -184t45.5 -223.5t-45.5 -223.5t-123 -184t-184 -123t-223.5 -45.5t-223.5 45.5t-184 123t-123 184t-45.5 223.5t45.5 223.5t123 184t184 123t223.5 45.5zM1024 448q133 0 226.5 93.5t93.5 226.5t-93.5 226.5t-226.5 93.5
t-226.5 -93.5t-93.5 -226.5t93.5 -226.5t226.5 -93.5zM1024 896q53 0 90.5 -37.5t37.5 -90.5t-37.5 -90.5t-90.5 -37.5t-90.5 37.5t-37.5 90.5q0 52 38 90t90 38zM1024 1792q208 0 397.5 -81t327 -218.5t218.5 -327t81 -397.5t-81 -397.5t-218.5 -327t-327 -218.5
t-397.5 -81t-397.5 81t-327 218.5t-218.5 327t-81 397.5t81 397.5t218.5 327t327 218.5t397.5 81zM1024 0q209 0 385.5 103t279.5 279.5t103 385.5t-103 385.5t-279.5 279.5t-385.5 103t-385.5 -103t-279.5 -279.5t-103 -385.5t103 -385.5t279.5 -279.5t385.5 -103z" />
    <glyph glyph-name="ellipsis" unicode="ELLIPSIS&#x2d;H" 
d="M256 1024q106 0 181 -75t75 -181t-75 -181t-181 -75t-181 75t-75 181t75 181t181 75zM1024 1024q106 0 181 -75t75 -181t-75 -181t-181 -75t-181 75t-75 181t75 181t181 75zM1792 1024q106 0 181 -75t75 -181t-75 -181t-181 -75t-181 75t-75 181t75 181t181 75z" />
    <glyph glyph-name="ellipsis-vertical" unicode="ELLIPSIS&#x2d;VERTICAL" horiz-adv-x="512" 
d="M512 1536q0 -106 -75 -181t-181 -75t-181 75t-75 181t75 181t181 75t181 -75t75 -181zM512 768q0 -106 -75 -181t-181 -75t-181 75t-75 181t75 181t181 75t181 -75t75 -181zM512 0q0 -106 -75 -181t-181 -75t-181 75t-75 181t75 181t181 75t181 -75t75 -181z" />
    <glyph glyph-name="square-rss" unicode="RSS&#x2d;SQUARE" horiz-adv-x="1792" 
d="M1536 1664q106 0 181 -75t75 -181v-1280q0 -106 -75 -181t-181 -75h-1280q-106 0 -181 75t-75 181v1280q0 106 75 181t181 75h1280zM602 294q38 38 38 90.5t-37 90.5q-37 37 -91 37t-91 -37t-37 -91t37 -91t91 -37q52 0 90 38zM998 256q40 2 66 32t24 70
q-10 153 -94.5 288.5t-219.5 219.5t-288 94q-39 2 -69.5 -24.5t-32.5 -65.5q-2 -40 24 -70t66 -32q164 -11 287.5 -134.5t131.5 -287.5q2 -38 29.5 -64t65.5 -26h10zM1380 260q40 -1 66 28.5t22 71.5q-7 191 -88.5 369t-213.5 310t-310.5 214.5t-371.5 90.5q-39 2 -69 -25
t-31 -67q-2 -40 25 -68.5t67 -27.5q157 -8 302.5 -76t253 -176t174 -253.5t71.5 -302.5q1 -39 29 -65.5t66 -26.5q7 0 8 4z" />
    <glyph glyph-name="circle-play" unicode="CIRCLE&#x2d;PLAY" 
d="M1024 1792q209 0 398.5 -81t326.5 -218t218 -326.5t81 -398.5t-81 -398.5t-218 -326.5t-326.5 -218t-398.5 -81t-398.5 81t-326.5 218t-218 326.5t-81 398.5t81 398.5t218 326.5t326.5 218t398.5 81zM1490 686q46 30 46 82t-46 82l-576 352q-23 14 -50 14
q-41 0 -68.5 -28.5t-27.5 -67.5v-704q0 -39 27.5 -67.5t68.5 -28.5q27 0 50 14z" />
    <glyph glyph-name="square-minus" unicode="MINUS&#x2d;SQUARE" horiz-adv-x="1792" 
d="M1536 1664q106 0 181 -75t75 -181v-1280q0 -106 -75 -181t-181 -75h-1280q-106 0 -181 75t-75 181v1280q0 106 75 181t181 75h1280zM1276 672q42 0 69 28t24 68q0 40 -27 68t-66 28h-768q-40 0 -68 -28t-28 -68q0 -39 29.5 -67.5t66.5 -28.5h768z" />
    <glyph glyph-name="square-check" unicode="CHECK&#x2d;SQUARE" horiz-adv-x="1792" 
d="M1536 1664q106 0 181 -75t75 -181v-1280q0 -106 -75 -181t-181 -75h-1280q-106 0 -181 75t-75 181v1280q0 106 75 181t181 75h1280zM1359 945q33 33 32.5 79t-32.5 79q-33 33 -79 33t-79 -33l-433 -433l-177 177q-33 33 -79 33t-79 -33t-33 -79t33 -79l256 -256
q33 -33 79 -33t79 33z" />
    <glyph glyph-name="square-pen" unicode="Pencil&#x2d;square" horiz-adv-x="1792" 
d="M1536 1664q106 0 181 -75t75 -181v-1280q0 -106 -75 -181t-181 -75h-1280q-106 0 -181 75t-75 181v1280q0 106 75 181t181 75h1280zM715 320q39 9 71 39l406 406l-299 299l-404 -404q-31 -31 -40 -73l-64 -286q-4 -18 7.5 -31.5t28.5 -13.5q5 0 8 1q197 42 286 63z
M1364 938q44 46 44 107t-44 104l-87 87q-44 44 -106 44t-105 -44l-82 -82l299 -298z" />
    <glyph glyph-name="share-from-square" unicode="SHARE&#x2d;FROM&#x2d;SQUARE" horiz-adv-x="2304" 
d="M2276 1218q28 -26 28 -65.5t-28 -62.5l-604 -553q-40 -36 -88 -13t-48 79v297q-115 -1 -205 -9t-171.5 -27.5t-137 -51t-95.5 -80t-55 -113.5t-6.5 -152t42.5 -196q13 -43 -25 -67.5t-75 1.5q-124 89 -210 239t-86 306q0 113 27.5 205.5t75.5 159.5t121 117.5t156.5 83
t191 53t215 29t237.5 10.5v297q0 56 48 79t88 -13zM1664 256q53 0 90.5 -37.5t37.5 -90.5v-124q0 -106 -75 -181t-181 -75h-1280q-106 0 -181 75t-75 181v1276q0 106 75 181t181 75h128q53 0 90.5 -37.5t37.5 -90.5t-37.5 -90.5t-90.5 -37.5h-128v-1276h1280v124
q0 53 37.5 90.5t90.5 37.5z" />
    <glyph glyph-name="compass" unicode="COMPASS" horiz-adv-x="2304" 
d="M1062 858q38 38 91 38t90 -38t37 -91t-37 -90t-90 -37t-91 37t-38 90t38 91zM1152 1792q209 0 398.5 -81t326.5 -218t218 -326.5t81 -398.5t-81 -398.5t-218 -326.5t-326.5 -218t-398.5 -81t-398.5 81t-326.5 218t-218 326.5t-81 398.5t81 398.5t218 326.5t326.5 218
t398.5 81zM1656 1168q23 50 -15.5 88t-88.5 16l-577 -263q-18 -8 -37 -27t-27 -37l-263 -577q-23 -50 15.5 -88.5t88.5 -16.5l578 264q18 8 36.5 26.5t26.5 36.5z" />
    <glyph glyph-name="square-caret-down" unicode="CARET&#x2d;SQUARE&#x2d;DOWN" horiz-adv-x="1792" 
d="M1536 1664q106 0 181 -75t75 -181v-1280q0 -106 -75 -181t-181 -75h-1280q-106 0 -181 75t-75 181v1280q0 106 75 181t181 75h1280zM1382 863q20 21 24 48.5t-10 54.5q-9 26 -32 42t-52 16h-832q-29 0 -53 -16t-35 -42t-6.5 -54t24.5 -49l416 -448q28 -31 70 -31t70 31z
" />
    <glyph glyph-name="square-caret-up" unicode="CARET&#x2d;SQUARE&#x2d;UP" horiz-adv-x="1792" 
d="M1536 1664q106 0 181 -75t75 -181v-1280q0 -106 -75 -181t-181 -75h-1280q-106 0 -181 75t-75 181v1280q0 106 75 181t181 75h1280zM1396 570q14 27 10 54.5t-24 48.5l-416 448q-28 29 -70.5 29t-69.5 -29l-416 -448q-20 -21 -24.5 -49t6.5 -54t35 -42t53 -16h832
q29 0 52 16t32 42z" />
    <glyph glyph-name="square-caret-right" unicode="CARET&#x2d;SQUARE&#x2d;RIGHT" horiz-adv-x="1792" 
d="M1536 1664q106 0 181 -75t75 -181v-1280q0 -106 -75 -181t-181 -75h-1280q-106 0 -181 75t-75 181v1280q0 106 75 181t181 75h1280zM1249 698q31 28 31 70q0 46 -31 70l-448 416q-21 20 -49 24.5t-54 -6.5t-42 -35t-16 -53v-832q0 -29 16 -53t42 -35q19 -8 38 -8
q37 0 65 26z" />
    <glyph glyph-name="euro-sign" unicode="EURO&#x2d;SIGN" horiz-adv-x="1536" 
d="M1405 47q-12 51 -58.5 79.5t-95.5 16.5q-152 -35 -300.5 10t-258.5 161q-54 57 -96 134h492q52 0 88 40t36 92q0 51 -35.5 87.5t-88.5 36.5h-570q-6 64 0 128h570q53 0 88.5 37t35.5 91t-35.5 91t-88.5 37h-492q42 77 96 134q110 116 258.5 161t300.5 10q52 -12 97 16
t57 80t-16 97t-80 57q-219 50 -432 -14t-370 -229q-126 -130 -193 -312h-122q-53 0 -90.5 -37.5t-37.5 -90.5t37.5 -90.5t90.5 -37.5h68q-4 -64 0 -128h-68q-53 0 -90.5 -37.5t-37.5 -90.5t37.5 -90.5t90.5 -37.5h122q66 -180 193 -311q122 -128 281.5 -196.5t330.5 -68.5
q98 0 190 22q52 12 80 56.5t16 96.5z" />
    <glyph glyph-name="sterling-sign" unicode="GBP" horiz-adv-x="1280" 
d="M1280 0q0 53 -37.5 90.5t-90.5 37.5h-791q100 208 100 435v77h435q53 0 90.5 37.5t37.5 90.5t-37.5 90.5t-90.5 37.5h-435v267q0 101 74 173t179 72q43 0 82 -13l316 -103q50 -17 98 7t64 74t-8 97.5t-74 64.5l-317 103q-80 26 -161 26q-103 0 -197.5 -40t-162.5 -107
t-108.5 -159.5t-40.5 -194.5v-267h-77q-53 0 -90.5 -37.5t-37.5 -90.5t37.5 -90.5t90.5 -37.5h77v-77q0 -131 -45 -255.5t-130 -225.5q-24 -28 -29 -65t11 -71t47.5 -54t68.5 -20h1024q53 0 90.5 37.5t37.5 90.5z" />
    <glyph glyph-name="dollar-sign" unicode="DOLLAR&#x2d;SIGN" horiz-adv-x="1280" 
d="M1208 360q51 279 -221 421q-99 52 -306 109h-1l-1 1h-1h-2l-1 1h-1l-59 16q-102 28 -163 53.5t-91.5 51.5t-37 55.5t0.5 65.5q11 63 75.5 100.5t151 42.5t184.5 -7q78 -12 201 -52q50 -16 97.5 8t64.5 74q16 50 -8 97.5t-74 64.5q-146 48 -243 62h-5v140q0 53 -37.5 90.5
t-90.5 37.5t-90.5 -37.5t-37.5 -90.5v-134q-180 -21 -297 -112.5t-143 -237.5q-19 -105 9.5 -191t74.5 -136.5t130.5 -94t133 -59.5t126.5 -38l60 -16q229 -62 297.5 -109.5t52.5 -133.5q-11 -63 -75.5 -100.5t-151.5 -42.5t-185 7q-93 14 -266 74l-45 16q-50 17 -97.5 -6.5
t-64.5 -73.5t6.5 -98t73.5 -65l44 -15q210 -71 312 -86h5v-140q0 -53 37.5 -90.5t90.5 -37.5t90.5 37.5t37.5 90.5v134q180 21 296.5 113.5t143.5 240.5z" />
    <glyph glyph-name="rupee-sign" unicode="RUPEE&#x2d;SIGN" 
d="M1576 570q61 -21 96.5 -34.5t95 -49t90.5 -75t50.5 -106.5t7.5 -148q-20 -137 -130 -216q-94 -69 -235 -69q-52 0 -103 10q-74 13 -192 64l-25 10q-49 20 -69 69.5t0 98.5t69 69t98 0l26 -11q99 -41 138 -48q41 -7 77 -6t61.5 18.5t30.5 48.5q5 32 -2.5 48t-43.5 36
t-121 48l-35 12q-46 16 -76.5 28.5t-84.5 46.5t-84.5 73t-50 105.5t-7.5 146.5q20 138 129 216q135 96 338 59q65 -12 152 -47q49 -20 70 -68.5t1 -98.5q-20 -49 -69 -69.5t-98 -0.5q-55 23 -102 32q-135 25 -163 -42q-4 -8 -5 -18v-1q-4 -24 -1 -41.5t34 -36t100 -42.5z
M1152 1088q0 -173 -94.5 -315t-248.5 -211l206 -515q20 -50 -1 -98.5t-70 -67.5q-24 -9 -48 -9q-39 0 -71.5 21.5t-47.5 58.5l-224 560h-169v-512q0 -53 -37.5 -90.5t-90.5 -37.5t-90.5 37.5t-37.5 90.5v1536q0 53 37.5 90.5t90.5 37.5h320q117 0 223.5 -45.5t184 -123
t123 -184t45.5 -223.5zM576 768q132 0 226 94t94 226t-94 226t-226 94h-192v-640h192z" />
    <glyph glyph-name="yen-sign" unicode="CNY" horiz-adv-x="1280" 
d="M1258 1465q29 44 19 96.5t-54 81.5t-96 18.5t-81 -54.5l-406 -608l-405 608q-29 44 -81.5 54t-96.5 -19t-54 -81t19 -96l379 -569h-209q-52 0 -90 -40.5t-38 -91.5t37.5 -87.5t90.5 -36.5h320v-128h-320q-52 0 -90 -40.5t-38 -91.5t37.5 -87.5t90.5 -36.5h320v-256
q0 -53 37.5 -90.5t90.5 -37.5t90.5 37.5t37.5 90.5v256h320q53 0 90.5 37.5t37.5 90.5t-37.5 90.5t-90.5 37.5h-320v128h320q53 0 90.5 37.5t37.5 90.5t-37.5 90.5t-90.5 37.5h-209z" />
    <glyph glyph-name="ruble-sign" unicode="RUBLE&#x2d;SIGN" horiz-adv-x="1536" 
d="M960 512h-448v-128h640q53 0 90.5 -37.5t37.5 -90.5t-37.5 -90.5t-90.5 -37.5h-640v-128q0 -53 -37.5 -90.5t-90.5 -37.5t-90.5 37.5t-37.5 90.5v128h-128q-53 0 -90.5 37.5t-37.5 90.5t37.5 90.5t90.5 37.5h128v128h-128q-53 0 -90.5 37.5t-37.5 90.5t37.5 90.5
t90.5 37.5h128v768q0 53 37.5 90.5t90.5 37.5h576q117 0 223.5 -45.5t184 -123t123 -184t45.5 -223.5t-45.5 -223.5t-123 -184t-184 -123t-223.5 -45.5zM512 1408v-640h448q132 0 226 94t94 226t-94 226t-226 94h-448z" />
    <glyph glyph-name="won-sign" unicode="KRW" 
d="M1920 832q53 0 90.5 -37.5t37.5 -90.5t-37.5 -90.5t-90.5 -37.5l-185 3l-205 -616q-14 -39 -47.5 -63t-74.5 -24q-1 0 -3 -2t-5 -2q-43 1 -76 28.5t-44 68.5l-151 607h-217l-148 -607q-11 -41 -43.5 -68.5t-75.5 -28.5q-41 -4 -76.5 21.5t-49.5 66.5l-206 616h-185
q-53 0 -90.5 37.5t-37.5 90.5t37.5 90.5t90.5 37.5h100l-221 663q-17 50 7 98t74 64q50 17 97 -7t64 -74l249 -744h218l180 735q14 43 49 70t79 27t78.5 -27t45.5 -70l184 -735h218l249 745q17 50 64.5 74t97.5 7q50 -16 73.5 -64t6.5 -98l-221 -664h100zM622 458l30 118
h-69zM976 832h92l-44 176zM1426 458l36 118h-70z" />
    <glyph glyph-name="file" unicode="FILE" horiz-adv-x="1536" 
d="M1024 1792l512 -512h-512v512zM896 1280q0 -53 38.5 -90.5t93.5 -37.5h508v-1216q0 -80 -56 -136t-136 -56h-1152q-80 0 -136 56t-56 136v1664q0 80 56 136t136 56h704v-512z" />
    <glyph glyph-name="file-lines" unicode="FILE&#x2d;LINES" horiz-adv-x="1536" 
d="M1024 1792l512 -512h-512v512zM896 1280q0 -53 38.5 -90.5t93.5 -37.5h508v-1216q0 -80 -56 -136t-136 -56h-1152q-80 0 -136 56t-56 136v1664q0 80 56 136t136 56h704v-512zM1088 128q26 0 45 19t19 45t-19 45t-45 19h-640q-26 0 -45 -19t-19 -45t19 -45t45 -19h640z
M1088 384q26 0 45 19t19 45t-19 45t-45 19h-640q-26 0 -45 -19t-19 -45t19 -45t45 -19h640zM1152 704q0 26 -19 45t-45 19h-640q-26 0 -45 -19t-19 -45t19 -45t45 -19h640q26 0 45 19t19 45z" />
    <glyph glyph-name="arrow-down-a-z" unicode="ARROW&#x2d;DOWN&#x2d;A&#x2d;Z" 
d="M958 300l-355 -388q-37 -40 -95 -40t-94 40l-348 384q-36 39 -33.5 92t41.5 89t91.5 33.5t88.5 -41.5l130 -141v1208q0 53 37.5 90.5t90.5 37.5t90.5 -37.5t37.5 -90.5v-1208l130 145q35 38 87.5 41.5t93.5 -33.5q39 -36 41 -89t-34 -92zM1792 128q53 0 90.5 -37.5
t37.5 -90.5q0 -54 -38.5 -91t-96.5 -37h-509q-36 0 -67.5 21.5t-46.5 57.5t-8 73.5t35 65.5l294 294h-203q-53 0 -90.5 37.5t-37.5 90.5t36.5 90.5t87.5 37.5h512q41 0 74 -21.5t48 -57.5t8 -73.5t-35 -65.5l-294 -294h203zM1970 955q24 -48 7 -98.5t-64 -74.5
q-38 -19 -72.5 -13t-60 25t-38.5 46l-29 57h-354l-28 -57q-24 -48 -74.5 -65t-97.5 7t-64 74.5t7 98.5l319 640q21 42 68 58t93.5 0t67.5 -58zM1471 1122v1h130l-65 130zM1471 1122z" />
    <glyph glyph-name="arrow-up-a-z" unicode="ARROW&#x2d;UP&#x2d;A&#x2d;Z" 
d="M606 1624l352 -384q36 -39 33.5 -92t-41.5 -89q-41 -37 -93 -33.5t-87 41.5l-130 141v-1204q0 -55 -37.5 -93.5t-90.5 -38.5t-90.5 37.5t-37.5 90.5v1208l-130 -141q-36 -39 -88.5 -41.5t-91.5 33.5t-41 89t36 92l349 384q37 40 94.5 40t93.5 -40zM1792 128
q53 0 90.5 -37.5t37.5 -90.5q0 -54 -38.5 -91t-96.5 -37h-509q-36 0 -67.5 21.5t-46.5 57.5t-8 73.5t35 65.5l294 294h-203q-53 0 -90.5 37.5t-37.5 90.5t36.5 90.5t87.5 37.5h516q39 0 71 -21.5t47 -57.5t8 -73.5t-35 -65.5l-294 -294h203zM1970 955q24 -48 7 -98.5
t-64 -74.5q-38 -19 -72.5 -13t-60 25t-38.5 46l-29 57h-354l-28 -57q-24 -48 -74.5 -65t-97.5 7t-64 74.5t7 98.5l319 640q21 42 68 58t93.5 0t67.5 -58zM1471 1122v1h130l-65 130zM1471 1122z" />
    <glyph glyph-name="arrow-down-wide-short" unicode="ARROW&#x2d;DOWN&#x2d;WIDE&#x2d;SHORT" horiz-adv-x="2304" 
d="M1664 640q53 0 90.5 -37.5t37.5 -90.5t-37.5 -90.5t-90.5 -37.5h-380q-53 0 -90.5 37.5t-37.5 90.5t37.5 90.5t90.5 37.5h380zM2176 1664q53 0 90.5 -37.5t37.5 -90.5t-37.5 -90.5t-90.5 -37.5h-892q-53 0 -90.5 37.5t-37.5 90.5t37.5 90.5t90.5 37.5h892zM1408 128
q53 0 88.5 -37t35.5 -91t-35.5 -91t-88.5 -37h-128q-53 0 -90.5 37.5t-37.5 90.5t37.5 90.5t90.5 37.5h128zM1920 1152q53 0 90.5 -37.5t37.5 -90.5t-37.5 -90.5t-90.5 -37.5h-636q-53 0 -90.5 37.5t-37.5 90.5t37.5 90.5t90.5 37.5h636zM770 469q36 39 87.5 41.5
t85.5 -33.5q39 -36 41.5 -89t-33.5 -92l-348 -384q-37 -40 -95 -40t-94 40l-348 384q-36 39 -33.5 92t41.5 89q37 34 86 34q56 0 94 -42l130 -141v1208q0 53 37.5 90.5t90.5 37.5t90.5 -37.5t37.5 -90.5v-1208z" />
    <glyph glyph-name="arrow-up-wide-short" unicode="ARROW&#x2d;UP&#x2d;WIDE&#x2d;SHORT" horiz-adv-x="2304" 
d="M1664 640q53 0 90.5 -37.5t37.5 -90.5t-37.5 -90.5t-90.5 -37.5h-380q-53 0 -90.5 37.5t-37.5 90.5t37.5 90.5t90.5 37.5h380zM1408 128q53 0 88.5 -37t35.5 -91t-35.5 -91t-88.5 -37h-128q-53 0 -90.5 37.5t-37.5 90.5t37.5 90.5t90.5 37.5h128zM1920 1152
q53 0 90.5 -37.5t37.5 -90.5t-37.5 -90.5t-90.5 -37.5h-636q-53 0 -90.5 37.5t-37.5 90.5t37.5 90.5t90.5 37.5h636zM2176 1664q53 0 90.5 -37.5t37.5 -90.5t-37.5 -90.5t-90.5 -37.5h-892q-53 0 -90.5 37.5t-37.5 90.5t37.5 90.5t90.5 37.5h892zM606 1624l352 -384
q36 -39 33.5 -92t-41.5 -89t-91.5 -33.5t-88.5 41.5l-130 141v-1208q0 -53 -37.5 -90.5t-90.5 -37.5t-90.5 37.5t-37.5 90.5v1208l-130 -141q-38 -42 -94 -42q-49 0 -86 34q-39 36 -41 89t36 92l349 384q37 40 94.5 40t93.5 -40z" />
    <glyph glyph-name="arrow-down-1-9" unicode="ARROW&#x2d;DOWN&#x2d;&#x31;&#x2d;&#x39;" 
d="M1280 1024q0 53 37.5 90.5t90.5 37.5v190q-35 0 -66 18.5t-48 50.5q-24 47 -8 97.5t63 74.5l128 67q63 33 125 -5t62 -109v-384q53 0 90.5 -37.5t37.5 -90.5t-37.5 -90.5t-90.5 -37.5l-256 4q-54 0 -91 35.5t-37 88.5zM1568 770q146 0 249 -102t103 -250q0 -32 -5 -59.5
t-11 -50t-25 -51.5t-33 -49t-49.5 -58.5t-60.5 -64.5t-79.5 -82t-94.5 -97q-33 -34 -81 -34q-46 0 -78 31q-34 32 -34.5 78t31.5 80l31 32q-96 40 -155.5 128.5t-59.5 196.5q0 146 103 249t249 103zM1568 322q40 0 68 28t28 68t-28 68t-68 28t-68 -28t-28 -68t28 -68t68 -28
zM864 511q54 0 79 -34q39 -36 41.5 -89t-33.5 -92l-348 -384q-37 -40 -95 -40t-94 40l-348 384q-36 39 -33.5 92t41.5 89t91.5 33.5t88.5 -41.5l130 -141v1208q0 53 37.5 90.5t90.5 37.5t90.5 -37.5t37.5 -90.5v-1208l130 141q38 42 94 42z" />
    <glyph glyph-name="arrow-up-1-9" unicode="ARROW&#x2d;UP&#x2d;&#x31;&#x2d;&#x39;" 
d="M1280 1024q0 53 37.5 90.5t90.5 37.5v190q-35 0 -66 18.5t-48 50.5q-24 47 -8 97.5t63 74.5l128 67q63 33 125 -5t62 -109v-384q53 0 90.5 -37.5t37.5 -90.5t-37.5 -90.5t-90.5 -37.5l-256 4q-54 0 -91 35.5t-37 88.5zM1568 770q146 0 249 -102t103 -250q0 -32 -5 -59.5
t-11 -50t-25 -51.5t-33 -49t-49.5 -58.5t-60.5 -64.5t-79.5 -82t-94.5 -97q-33 -34 -81 -34q-46 0 -78 31q-34 32 -34.5 78t31.5 80l31 32q-96 40 -155.5 128.5t-59.5 196.5q0 146 103 249t249 103zM1568 322q40 0 68 28t28 68t-28 68t-68 28t-68 -28t-28 -68t28 -68t68 -28
zM160 1025q-47 0 -86 34q-39 36 -41 89t36 92l349 384q37 40 94.5 40t93.5 -40l352 -384q36 -39 33.5 -92t-41.5 -89t-91.5 -33.5t-88.5 41.5l-134 141v-1208q0 -53 -38.5 -90.5t-89.5 -37.5t-87.5 37.5t-36.5 90.5v1208l-130 -141q-38 -42 -94 -42z" />
    <glyph glyph-name="thumbs-up" unicode="THUMBS&#x2d;UP" 
d="M512 4q0 -56 -37.5 -91t-90.5 -30h-256q-54 0 -91 35.5t-37 88.5v893q0 51 37.5 87.5t90.5 36.5h256q54 0 91 -35.5t37 -88.5v-896zM2048 896q0 -76 -52 -131t-127 -60q51 -56 51 -129q0 -70 -45 -123t-112 -65q29 -47 29 -100q0 -64 -37 -113.5t-96 -68.5q5 -23 5 -42
q0 -80 -56 -136t-136 -56h-235q-213 0 -384 128l-136 102q-36 27 -56.5 68t-20.5 86v640q0 92 72 150l65 52q66 53 113.5 113.5t71.5 113.5t42.5 105.5t32.5 93.5t33.5 73t53.5 49.5t86 17.5q89 0 143.5 -58.5t54.5 -133.5q0 -53 -37.5 -166t-100.5 -218h586q80 0 136 -56
t56 -136z" />
    <glyph glyph-name="thumbs-down" unicode="THUMBS&#x2d;DOWN" 
d="M384 1664q53 0 90.5 -37.5t37.5 -90.5v-889q0 -51 -37.5 -87.5t-90.5 -36.5h-256q-54 0 -91 35.5t-37 88.5v892q0 51 37.5 88t90.5 37h256zM1869 831q75 -5 127 -60t52 -131q0 -79 -56 -135t-136 -56h-586q63 -105 100.5 -218.5t37.5 -166.5q0 -75 -54.5 -133.5
t-143.5 -58.5q-52 0 -86 17.5t-53.5 49.5t-33 73t-32 94t-43 106t-72 115t-113.5 115l-65 52q-72 58 -72 150v640q0 43 20.5 83t56.5 67l136 102q171 128 384 128h235q80 0 136 -56t56 -136q0 -22 -5 -39q59 -19 96 -68.5t37 -112.5q0 -56 -29 -103q67 -13 112 -66t45 -123
q0 -73 -51 -129z" />
    <glyph glyph-name="person-dress" unicode="FEMALE" horiz-adv-x="1280" 
d="M640 1408q-79 0 -133.5 56t-54.5 136t56 136t136 56q77 0 132.5 -56.5t55.5 -135.5q0 -80 -56 -136t-136 -56zM1260 708q29 -45 17 -97t-57 -80q-31 -19 -68 -19q-68 0 -116 60l-130 209l175 -525h-160v-384q0 -53 -37.5 -90.5t-90.5 -37.5t-90.5 37.5t-37.5 90.5v384
h-64v-384q0 -54 -36 -91t-89 -37t-90.5 37.5t-37.5 90.5v384h-160l179 525l-131 -209q-28 -45 -79.5 -56.5t-96.5 16.5t-57 79.5t16 96.5l245 392q53 85 139.5 132.5t186.5 47.5h100q100 0 187 -48t139 -132z" />
    <glyph glyph-name="person" unicode="MALE" horiz-adv-x="1280" 
d="M1260 708q29 -45 17 -97t-57 -80q-31 -19 -68 -19q-68 0 -116 60l-115 185v-885q0 -53 -37.5 -90.5t-90.5 -37.5t-90.5 37.5t-37.5 90.5v576h-64v-576q0 -54 -36 -91t-89 -37t-90.5 37.5t-37.5 90.5l4 885l-116 -185q-28 -45 -79.5 -56.5t-96.5 16.5t-57 79.5t16 96.5
l283 452q35 56 92.5 88t124.5 32h242q67 0 124.5 -33t92.5 -91zM640 1408q-80 0 -136 56t-56 136t56 136t136 56t136 -56t56 -136t-56 -136t-136 -56z" />
    <glyph glyph-name="sun" unicode="Sun" 
d="M1024 1156q158 0 269 -115.5t111 -272.5t-109.5 -268.5t-270.5 -111.5q-160 0 -270 114.5t-110 272.5q0 157 111 269t269 112zM2037 404q19 -27 6.5 -58t-45.5 -37l-436 -79l-79 -436q-6 -33 -36.5 -45.5t-58.5 6.5l-364 253l-364 -253q-28 -19 -58.5 -6.5t-36.5 45.5
l-79 436l-436 79q-33 6 -45.5 37t6.5 58l253 364l-253 368q-19 25 -6.5 55t45.5 36l436 79l76 436q6 33 36.5 45.5t57.5 -6.5l368 -253l364 257q28 19 58.5 6t36.5 -46l79 -436l436 -78q33 -6 45.5 -37t-6.5 -58l-253 -364zM1024 260q212 0 360 148t148 360q0 137 -68.5 254
t-185.5 185.5t-254 68.5q-138 0 -254.5 -67.5t-185 -184.5t-68.5 -256q0 -138 67.5 -254.5t184.5 -185t256 -68.5z" />
    <glyph glyph-name="moon" unicode="MOON" 
d="M128 768q0 -182 71 -348t190.5 -286t285.5 -191t348 -71q205 0 386.5 88t308.5 244q19 23 4 48t-44 20q-109 -23 -212.5 -8.5t-196 52.5t-170.5 104.5t-134.5 148t-88 183t-31.5 209.5q0 190 95 353t260 257q25 14 20.5 43.5t-33.5 34.5q-84 15 -164 15
q-182 0 -347.5 -71t-285.5 -191t-191 -286t-71 -348z" />
    <glyph glyph-name="box-archive" unicode="ARCHIVE" 
d="M128 64v1088h1792v-1088q0 -80 -56 -136t-136 -56h-1408q-80 0 -136 56t-56 136zM640 848v-32q0 -20 14 -34t34 -14h672q20 0 34 14t14 34v32q0 20 -14 34t-34 14h-672q-20 0 -34 -14t-14 -34zM1920 1664q53 0 90.5 -37.5t37.5 -90.5v-192q0 -26 -19 -45t-45 -19h-1920
q-26 0 -45 19t-19 45v192q0 53 37.5 90.5t90.5 37.5h1792z" />
    <glyph glyph-name="bug" unicode="BUG" 
d="M1920 768q53 0 90.5 -37.5t37.5 -90.5t-37.5 -90.5t-90.5 -37.5h-256v-128q0 -80 -32 -171l250 -250q38 -37 38 -90t-38 -91t-90 -38q-53 0 -90 37l-217 217q-147 -126 -333 -126h-64v960q0 26 -19 45t-45 19t-45 -19t-19 -45v-960h-64q-188 0 -333 126l-217 -216
q-38 -38 -90 -38q-53 0 -90 37q-38 37 -38 90t38 91l250 251q-32 91 -32 171v128h-256q-53 0 -90.5 37.5t-37.5 90.5t37.5 90.5t90.5 37.5h256v203l-218 218q-38 37 -38 90t38 91t91 38t90 -38l218 -218h918l219 218q38 38 91 38t90 -38t37 -91t-37 -90l-219 -218v-203h256z
M1408 1408v-128h-768v128q0 159 112.5 271.5t271.5 112.5t271.5 -112.5t112.5 -271.5z" />
    <glyph glyph-name="square-caret-left" unicode="CARET&#x2d;SQUARE&#x2d;LEFT" horiz-adv-x="1792" 
d="M1536 1664q106 0 181 -75t75 -181v-1280q0 -106 -75 -181t-181 -75h-1280q-106 0 -181 75t-75 181v1280q0 106 75 181t181 75h1280zM1152 352v832q0 29 -16 53t-42 35t-54 6.5t-49 -24.5l-448 -416q-31 -28 -31 -70q0 -41 31 -70l448 -416q28 -26 65 -26q19 0 38 8
q26 11 42 35t16 53z" />
    <glyph glyph-name="circle-dot" unicode="Circle&#x2d;dot" 
d="M1024 1792q209 0 398.5 -81t326.5 -218t218 -326.5t81 -398.5t-81 -398.5t-218 -326.5t-326.5 -218t-398.5 -81t-398.5 81t-326.5 218t-218 326.5t-81 398.5t81 398.5t218 326.5t326.5 218t398.5 81zM1408 768q0 159 -112.5 271.5t-271.5 112.5q-158 0 -271 -113.5
t-113 -270.5t113 -270.5t271 -113.5q159 0 271.5 112.5t112.5 271.5z" />
    <glyph glyph-name="wheelchair" unicode="WHEELCHAIR" 
d="M2041 104q17 -50 -7 -97.5t-74 -63.5l-192 -64q-23 -7 -40 -7q-39 0 -71.5 21.5t-47.5 58.5l-179 432h-566q-50 0 -86.5 33t-40.5 82l-95 562q-11 79 36 142.5t127 74.5q79 11 142.5 -36t74.5 -127l6 -27h316q53 0 90.5 -37.5t37.5 -90.5t-37.5 -90.5t-90.5 -37.5h-260
l41 -192h391q40 0 72.5 -21.5t46.5 -59.5l167 -399l77 25q51 17 98 -7t64 -74zM640 -64q149 0 267.5 90t163.5 230h196q-45 -221 -221 -366.5t-406 -145.5q-130 0 -248.5 51t-204 136.5t-136.5 204t-51 248.5q0 232 148 409t372 219l32 -189q-155 -31 -257.5 -154.5
t-102.5 -284.5q0 -185 131.5 -316.5t316.5 -131.5zM768 1408q-80 0 -136 56t-56 136t56 136t136 56t136 -56t56 -136t-56 -136t-136 -56z" />
    <glyph glyph-name="lira-sign" unicode="LIRA&#x2d;SIGN" horiz-adv-x="1280" 
d="M1280 0q0 53 -37.5 90.5t-90.5 37.5h-791q57 118 82 256h453q53 0 90.5 37.5t37.5 90.5t-37.5 90.5t-90.5 37.5h-435v128h435q53 0 90.5 37.5t37.5 90.5t-37.5 90.5t-90.5 37.5h-435v139q0 101 74 173t179 72q44 0 82 -13l316 -104q50 -16 97.5 8t64.5 74q16 50 -8 97.5
t-74 64.5l-317 103q-80 26 -161 26q-103 0 -197.5 -40t-162.5 -107t-108.5 -159.5t-40.5 -194.5v-139h-77q-53 0 -90.5 -37.5t-37.5 -90.5t37.5 -90.5t90.5 -37.5h77v-128h-77q-53 0 -90.5 -37.5t-37.5 -90.5t37.5 -90.5t90.5 -37.5h52q-43 -175 -150 -302q-24 -28 -29 -65
t11 -71t47.5 -54t68.5 -20h1024q53 0 90.5 37.5t37.5 90.5z" />
    <glyph glyph-name="shuttle-space" unicode="SHUTTLE&#x2d;SPACE" horiz-adv-x="2560" 
d="M2307 1023q118 -55 185.5 -123t67.5 -132t-67.5 -132t-185.5 -123q-131 -61 -299.5 -95t-343.5 -34h-1024q0 -53 -37.5 -90.5t-90.5 -37.5h896q-103 -34 -204.5 -88.5t-177 -103t-155 -93.5t-170 -72t-189.5 -27h-192q-80 0 -136 56t-56 136v192q-53 0 -90.5 37.5
t-37.5 90.5v256q0 53 37.5 90.5t90.5 37.5q-53 0 -90.5 37.5t-37.5 90.5v256q0 53 37.5 90.5t90.5 37.5v192q0 80 56 136t136 56h192q99 0 190 -27t170 -72t154.5 -93.5t177 -103t204.5 -88.5h-896q53 0 90.5 -37.5t37.5 -90.5h1024q175 0 343.5 -34t299.5 -95zM1924 568
q39 0 68 29.5t41.5 74t12.5 96.5t-13 96.5t-41.5 74t-67.5 29.5q-16 0 -28 -12t-12 -28v-320q0 -16 12 -28t28 -12z" />
    <glyph glyph-name="square-envelope" unicode="Envelope&#x2d;square" horiz-adv-x="1792" 
d="M1536 1664q106 0 181 -75t75 -181v-1280q0 -106 -75 -181t-181 -75h-1280q-106 0 -181 75t-75 181v1280q0 106 75 181t181 75h1280zM1536 448v440l-554 -277q-42 -20 -86 -20t-86 20l-554 277v-440q0 -53 37.5 -90.5t90.5 -37.5h1024q53 0 90.5 37.5t37.5 90.5z
M1536 1032v56q0 53 -37.5 90.5t-90.5 37.5h-1024q-53 0 -90.5 -37.5t-37.5 -90.5v-56l612 -306q28 -14 57 0z" />
    <glyph glyph-name="bank" unicode="BANK" 
d="M1984 0q26 0 45 -19t19 -45v-128q0 -26 -19 -45t-45 -19h-1920q-26 0 -45 19t-19 45v128q0 26 19 45t45 19h64v128q0 53 37.5 90.5t90.5 37.5v640h256v-640h384v640h256v-640h384v640h256v-640q53 0 90.5 -37.5t37.5 -90.5v-128h64zM2006 1423q19 -7 30.5 -23t11.5 -36
v-148q0 -26 -19 -45t-45 -19h-64v-64q0 -26 -19 -45t-45 -19h-1664q-26 0 -45 19t-19 45v64h-64q-26 0 -45 19t-19 45v148q0 20 12 36.5t30 22.5l937 361q19 8 45 8t45 -8zM1024 1216q53 0 90.5 37.5t37.5 90.5t-37.5 90.5t-90.5 37.5t-90.5 -37.5t-37.5 -90.5t37.5 -90.5
t90.5 -37.5z" />
    <glyph glyph-name="graduation-cap" unicode="Graduation&#x2d;cap" horiz-adv-x="2560" 
d="M2492 1244q31 -10 49.5 -35t18.5 -57t-17.5 -57t-46.5 -35l-1131 -405q-85 -31 -170 0l-762 273q-75 -83 -100 -188q51 -39 51 -100q0 -59 -48 -97l100 -596q5 -29 -14.5 -52t-49.5 -23h-232q-30 0 -49.5 23t-14.5 52l100 596q-48 38 -48 97q0 39 21.5 71.5t56.5 46.5
q26 122 98 216l-240 86q-29 11 -46.5 36t-17.5 56t17.5 56t46.5 36l1128 405q85 31 170 0zM1404 534l585 208l59 -571q0 -81 -103.5 -150t-280.5 -109t-384 -40q-210 0 -387 40t-279 109t-102 150l59 571l581 -208q60 -22 128 -22t124 22z" />
    <glyph glyph-name="language" unicode="LANGUAGE" horiz-adv-x="2560" 
d="M640 820l52 -116h-103zM2304 1540q105 0 180.5 -77t75.5 -183v-1024q0 -106 -75 -181t-181 -75h-960v1536zM2208 864q40 0 68 28t28 68t-28 68t-68 28h-192q0 40 -28 68t-68 28t-68 -28t-28 -68h-192q-40 0 -68 -28t-28 -68t28 -68t68 -28h366q-30 -75 -78 -137
q-16 20 -24 31q-22 33 -61 40.5t-72 -15.5q-33 -22 -40.5 -61t15.5 -72q23 -34 39 -52q-39 -24 -53 -29q-37 -15 -52 -51t-1 -73q11 -28 35.5 -44.5t53.5 -16.5q21 0 32 7q53 21 124 72q14 -10 28 -19t26 -16t22.5 -13t19 -10.5t14.5 -7t10 -4.5l5 -2q17 -7 35 -7
q69 0 93 60q15 37 -0.5 73.5t-52.5 51.5q-8 0 -54 30q98 119 140 265h6zM0 1284q0 104 75.5 180t180.5 76l960 -4v-1536l-960 4q-106 0 -181 75t-75 181v1024zM296 519q-16 -36 -1.5 -73t50.5 -54q36 -16 73.5 -2t53.5 51l32 73q2 0 4 -1t4 -1h256q3 0 4 2l36 -73
q12 -27 36 -42t52 -15q18 0 39 8q37 17 51 54t-2 73l-256 576q-15 33 -51.5 46t-73 0t-51.5 -46z" />
    </font>
</defs>
</svg>
